<?xml version="1.0" encoding="UTF-8"?>
<svg width="1024px" height="1024px" viewBox="0 0 1024 1024" version="1.1" xmlns="http://www.w3.org/2000/svg" xmlns:xlink="http://www.w3.org/1999/xlink">
    <!-- Generator: Sketch 64 (93537) - https://sketch.com -->
    <title>线性戴帽子男士</title>
    <desc>Created with Sketch.</desc>
    <defs>
        <circle id="path-1" cx="512.5" cy="512.5" r="403.5"></circle>
    </defs>
    <g id="线性戴帽子男士" stroke="none" stroke-width="1" fill="none" fill-rule="evenodd">
        <mask id="mask-2" fill="white">
            <use xlink:href="#path-1"></use>
        </mask>
        <circle stroke="#66320F" stroke-width="10" cx="512.5" cy="512.5" r="398.5"></circle>
        <g id="pitcher" mask="url(#mask-2)">
            <g transform="translate(232.000000, 234.000000)">
                <polygon id="Rectangle-path" stroke="none" fill="#FFFFFF" points="199 87 362 87 362 167 199 167"></polygon>
                <path d="M458.420868,161 L103.562324,161 C96.8089539,161 90.6746684,163.782511 86.2262839,168.2547 C81.7692268,172.735608 79,178.916204 79,185.720519 L79,203 L483,203 L483,185.720519 C483,178.936163 480.312996,172.771888 475.688065,168.248496 C471.272978,163.701389 465.150524,161 458.420868,161 Z" id="Shape" stroke="#66320F" stroke-width="10" fill="#7E41DF"></path>
                <path d="M281.5,5 C230.855174,5 196.251358,13.7150672 172.660716,25.4729813 C129.508936,46.980446 124.346682,78.7528294 124,81.2849612 L124,157 L195.242303,157 L195.242303,75.9923267 L367.742303,75.9923267 L367.742303,157 L439,157 L439,81.3115903 C438.425846,77.7553241 424.926935,5 281.5,5 Z" id="Shape" stroke="#66320F" stroke-width="10" fill="#65429D"></path>
                <path d="M350,431.993784 C329.481363,441.326067 306.33028,446.452307 281.00701,446.452307 C255.669453,446.452307 232.527338,441.325567 212,431.992149 L212,478.153899 C217.729763,484.534949 244.51136,512 281.00701,512 C317.50229,512 344.273182,484.534992 350,478.154515 L350,431.993784 Z" id="Shape" stroke="#66320F" stroke-width="10" fill="#F0D0C0"></path>
                <path d="M435.496596,235.07883 L435.496596,274.665142 C435.496596,282.564959 435.026721,290.374364 434.000914,298.023157 C445.816002,295.650778 457.32231,290.36092 466.307054,283.739453 C475.906845,276.664715 483,268.067483 483,259.781933 C483,256.155525 481.97289,252.981703 480.071957,250.250469 C477.878638,247.09914 474.591481,244.541265 470.543875,242.444946 C461.669799,237.848919 449.325692,235.521993 435.496596,235.07883 Z" id="Shape" stroke="#66320F" stroke-width="10" fill="#F0D0C0"></path>
                <path d="M120.770297,235.098061 C108.689729,235.580859 97.9120212,237.864052 90.1366728,242.336982 C86.5422024,244.404775 83.6262839,246.938798 81.6795479,250.046366 C79.9319956,252.835979 79,256.079695 79,259.781933 C79,268.081039 85.3245067,276.776971 94.0213319,283.898394 C101.845635,290.305349 111.81483,295.463693 122.095712,297.88568 C121.18932,290.281882 120.770297,282.519128 120.770297,274.665142 L120.770297,235.098061 Z" id="Shape" stroke="#66320F" stroke-width="10" fill="#F0D0C0"></path>
                <path d="M439,212 L124,212 L124,273.267274 C124,282.900825 124.575275,292.391626 125.860765,301.593595 C133.600138,357.456523 163.88038,404.427689 209.919491,428.177652 C230.831448,439.016921 254.87831,445 281.5,445 C308.106232,445 332.167571,439.015852 353.067102,428.177348 C399.121028,404.427455 429.385905,357.457602 437.126253,301.586387 C438.425073,292.38676 439,282.899724 439,273.267274 L439,212 Z" id="Shape" stroke="#66320F" stroke-width="10" fill="#FDDCCC"></path>
                <path d="M218.547619,287.940594 L218.547619,287.940594 C211.646997,287.940594 206,282.550319 206,275.960396 L206,263.980198 C206,257.391632 211.645576,252 218.547619,252 L218.547619,252 C225.448241,252 231.095238,257.390275 231.095238,263.980198 L231.095238,275.960396 C231.095238,282.550319 225.448241,287.940594 218.547619,287.940594 L218.547619,287.940594 Z" id="Shape" stroke="none" fill="#7B351E"></path>
                <path d="M344.02381,287.940594 L344.02381,287.940594 C337.123188,287.940594 331.47619,282.550319 331.47619,275.960396 L331.47619,263.980198 C331.47619,257.391632 337.121766,252 344.02381,252 L344.02381,252 C350.924431,252 356.571429,257.390275 356.571429,263.980198 L356.571429,275.960396 C356.571429,282.550319 350.924431,287.940594 344.02381,287.940594 L344.02381,287.940594 Z" id="Shape" stroke="none" fill="#7B351E"></path>
                <path d="M246.777205,351.113075 C244.865541,350.261367 242.781687,350.253316 240.96037,350.930213 C239.161057,351.598932 237.614638,352.938895 236.758913,354.803674 C235.914958,356.645208 235.904711,358.652056 236.575221,360.406709 C237.253255,362.181049 238.623776,363.692967 240.513645,364.536645 C252.638932,369.952824 266.738469,372.792079 281.28673,372.792079 C295.83473,372.792079 309.934054,369.954342 322.056782,364.537365 C323.948015,363.693079 325.318129,362.18137 325.996055,360.407312 C326.666732,358.652223 326.65649,356.644834 325.811704,354.800571 C324.959238,352.935887 323.414462,351.599692 321.617777,350.93195 C319.794373,350.254277 317.707165,350.261495 315.789162,351.115605 C295.584568,360.143053 266.987472,360.143053 246.777205,351.113075 Z" id="Shape" stroke="#66320F" stroke-width="10" fill="#F26D6D"></path>
                <path d="M355.775143,487.253189 C346.050428,497.240316 318.137093,522.147482 281.507024,522.147482 C244.880467,522.147482 216.959651,497.244675 207.230757,487.252546 C197.639269,496.231928 181.942427,506.525086 168.386213,514.642673 C170.003945,524.413081 176.462001,545.806946 201.69444,561.131331 C218.711809,571.466468 244.017013,579 281.507024,579 C318.991824,579 344.293713,571.466523 361.308962,561.131449 C386.538473,545.807026 392.996118,524.4131 394.614575,514.644016 C381.060866,506.527206 365.366601,496.235568 355.775143,487.253189 Z" id="Shape" stroke="#66320F" stroke-width="10" fill="#FFC400"></path>
                <path d="M396.985414,517.056236 C394.777211,529.476385 387.84861,550.954605 363.064065,566.746527 C346.597166,577.238711 322.007431,585.283462 285.046964,585.954635 L285.953053,682 L557,682 L557,650.082725 C556.984235,649.578632 554.335051,571.762257 419.232212,528.936099 C419.232212,528.936099 407.985678,523.233934 396.985414,517.056236 Z" id="Shape" stroke="#66320F" stroke-width="10" fill="#7799FF"></path>
                <path d="M159.052431,519.970337 C149.620856,525.366834 142.808363,528.911758 142.031245,529.236263 C96.5126871,543.87988 65.9837652,562.400536 45.5544655,580.660558 C6.54677008,615.526235 5.03454425,649.189808 5,650.120323 L5,682 L276,682 L276,588.529957 C238.85007,587.868674 213.533409,579.841661 196.223248,569.358841 C170.267363,553.640276 161.826789,532.303344 159.052431,519.970337 Z" id="Shape" stroke="#66320F" stroke-width="10" fill="#6DAEF2"></path>
                <rect id="Rectangle-path" stroke="#66320F" stroke-width="10" fill="#FFFFFF" x="226" y="629" width="20" height="12"></rect>
                <path d="M334,629 L314,629 L314,641 L334,641 L334,629 Z" id="Rectangle-path" stroke="#66320F" stroke-width="10" fill="#FFFFFF"></path>
            </g>
        </g>
    </g>
</svg>