<?xml version="1.0" encoding="UTF-8"?>
<svg width="1024px" height="1024px" viewBox="0 0 1024 1024" version="1.1" xmlns="http://www.w3.org/2000/svg" xmlns:xlink="http://www.w3.org/1999/xlink">
    <!-- Generator: Sketch 64 (93537) - https://sketch.com -->
    <title>线性中长发女生</title>
    <desc>Created with Sketch.</desc>
    <defs>
        <circle id="path-1" cx="512.5" cy="512.5" r="403.5"></circle>
    </defs>
    <g id="线性中长发女生" stroke="none" stroke-width="1" fill="none" fill-rule="evenodd">
        <mask id="mask-2" fill="white">
            <use xlink:href="#path-1"></use>
        </mask>
        <circle stroke="#66320F" stroke-width="10" cx="512.5" cy="512.5" r="398.5"></circle>
        <g id="girl-6" mask="url(#mask-2)">
            <g transform="translate(216.000000, 216.000000)">
                <path d="M53.6322684,413.399119 C53.6322684,413.399119 83.9873679,476.167203 76.4920194,529.334814 C69.009411,582.502424 26.8740868,607.539204 8.89374385,574.247375 C8.89374385,574.247375 -79.4919145,700 301,700 L301,356 L53.6322684,413.399119 Z" id="Fill-1" stroke="#66320F" stroke-width="10" fill="#C3682C" stroke-linejoin="round"></path>
                <path d="M548.029893,397.865196 C548.029893,397.865196 510.003254,476.167203 517.503259,529.334814 C525.003264,582.502424 567.14089,607.539204 585.105228,574.247375 C585.105228,574.247375 673.495715,700 293,700 L293,356 L548.029893,397.865196 Z" id="Fill-3" stroke="#66320F" stroke-width="10" fill="#C3682C" stroke-linejoin="round"></path>
                <polygon id="Fill-5" stroke="#66320F" stroke-width="10" fill="#F2DED4" stroke-linejoin="round" points="251 641 350 641 350 529 251 529"></polygon>
                <path d="M251,543.923701 C251,543.923701 292.640117,570.171064 350,564.084176 L350,531 L251,531 L251,543.923701 Z" id="Fill-6" stroke="none" fill="#ECCAB8"></path>
                <path d="M155,356 C155,386.934759 133.284276,412 106.5,412 C79.7157239,412 58,386.934759 58,356 C58,325.069519 79.7157239,300 106.5,300 C133.284276,300 155,325.069519 155,356 L155,356 Z" id="Fill-7" stroke="none" fill="#916A50"></path>
                <path d="M541,356 C541,386.934759 519.288061,412 492.508453,412 C465.711939,412 444,386.934759 444,356 C444,325.069519 465.711939,300 492.508453,300 C519.288061,300 541,325.069519 541,356 L541,356 Z" id="Fill-8" stroke="none" fill="#916A50"></path>
                <path d="M491.80516,251.357778 C491.80516,169.723809 432.331911,110 299.500314,110 C166.668716,110 107.195468,169.723809 107.195468,251.357778 C107.195468,332.979047 93.3145825,548 299.500314,548 C505.669184,547.987301 491.80516,332.979047 491.80516,251.357778 L491.80516,251.357778 Z" id="Fill-9" stroke="#66320F" stroke-width="10" fill="#F2DED4" stroke-linejoin="round"></path>
                <path d="M226,344.49376 C226,356.924193 216.600061,367 204.989371,367 C193.399939,367 184,356.924193 184,344.49376 C184,332.075807 193.399939,322 204.989371,322 C216.600061,322 226,332.075807 226,344.49376 L226,344.49376 Z" id="Fill-10" stroke="#66320F" stroke-width="10" fill="#3B2519" stroke-linejoin="round"></path>
                <path d="M202,334.002032 C202,337.317982 199.317982,340 196.002032,340 C192.686082,340 190,337.317982 190,334.002032 C190,330.682018 192.686082,328 196.002032,328 C199.317982,328 202,330.682018 202,334.002032 L202,334.002032 Z" id="Fill-11" stroke="none" fill="#FFFFFF"></path>
                <path d="M172.026612,294.246663 C181.860912,297.905206 197.647994,281.823968 233.777259,295.812274 C240.353105,298.367122 244.30198,274 205.558375,274 C172.026612,274 166.090669,292.043361 172.026612,294.246663 L172.026612,294.246663 Z" id="Fill-12" stroke="none" fill="#865B3D"></path>
                <path d="M417,344.49376 C417,356.924193 407.603361,367 396.008504,367 C384.396639,367 375,356.924193 375,344.49376 C375,332.075807 384.396639,322 396.008504,322 C407.603361,322 417,332.075807 417,344.49376 L417,344.49376 Z" id="Fill-13" stroke="#66320F" stroke-width="10" fill="#3B2519" stroke-linejoin="round"></path>
                <path d="M393,334.002032 C393,337.317982 390.317982,340 387.002032,340 C383.682018,340 381,337.317982 381,334.002032 C381,330.682018 383.682018,328 387.002032,328 C390.317982,328 393,330.682018 393,334.002032 L393,334.002032 Z" id="Fill-14" stroke="none" fill="#FFFFFF"></path>
                <path d="M424.973801,294.246663 C415.140657,297.905206 399.35543,281.823968 363.230412,295.812274 C356.638502,298.367122 352.706928,274 391.429142,274 C424.973801,274 430.909047,292.043361 424.973801,294.246663 L424.973801,294.246663 Z" id="Fill-15" stroke="none" fill="#865B3D"></path>
                <path d="M82,708 C82,656.510125 179.164278,582.009194 291.00033,574.599389 L291,574 C294.008197,574 297.009123,574.050794 300.00123,574.150689 C302.991333,574.050794 305.992037,574 309,574 L309.000876,574.599385 C420.844031,582.009167 518,656.510116 518,708 L518,708 L82,708 Z" id="形状结合" stroke="#66320F" stroke-width="10" fill="#F87884" stroke-linejoin="round"></path>
                <path d="M251,573.84215 L300.5,668 C303.459559,668 350,573.84215 350,573.84215 C350,573.84215 298.643434,553.947312 251,573.84215 L251,573.84215 Z" id="Fill-23" stroke="none" fill="#F2DED4"></path>
                <path d="M348.006585,565 C365.762793,566.696391 391,589.45245 391,589.45245 L391,589.45245 L361.760735,641.510197 L328.004802,623.456046 L298.701,666.959 L299,668 L298.5,667.258 L298,668 L298.299,666.959 L269.000686,623.456046 L235.250926,641.510197 L206,589.45245 C206.017009,589.45245 231.245348,566.696391 249.00256,565 L278.036624,595.076219 L298.5,666.261 L318.967211,595.076219 Z" id="形状结合" stroke="#66320F" stroke-width="10" fill="#FFA7B3" stroke-linejoin="round"></path>
                <polygon id="Fill-26" stroke="none" fill="#F38191" points="300 700 300 667.187285 284 642"></polygon>
                <polygon id="Fill-27" stroke="none" fill="#F38191" points="299 700 299 667.187285 314 642"></polygon>
                <path d="M443.210697,57.7773373 C443.210697,57.7773373 323.902905,-32.7978192 178.153127,12.8632649 C39.5407011,56.270581 36.6224114,240.434407 41.0906466,344.239308 C45.5631051,448.04421 81.3132098,460.514211 117.063315,446.040861 C164.342986,426.8902 117.063315,367.188693 117.063315,367.188693 C139.400267,344.226575 130.476467,301.977976 130.476467,301.977976 C165.483273,300.670706 178.153127,243.422453 178.153127,243.422453 C246.236699,269.797056 265.786284,217.968882 265.786284,217.968882 C329.595892,252.407814 379.895213,191.012798 379.895213,191.012798 C379.895213,191.012798 411.324897,256.698887 451.247607,249.407035 C451.247607,249.407035 440.752745,312.559226 465.649008,321.27719 C465.649008,321.27719 438.970519,402.119974 473.913976,426.82229 C508.85321,451.528849 565.457895,426.95811 563.971298,301.960998 C562.484702,176.968131 540.13508,45.7911966 443.210697,57.7773373 L443.210697,57.7773373 Z" id="Fill-29" stroke="#66320F" stroke-width="10" fill="#DB8043" stroke-linejoin="round"></path>
            </g>
        </g>
        <path d="M513.000231,692 C501.413737,692 490.202806,689.675045 480.576987,685.285148 C475.800128,683.09995 473.683416,677.430569 475.850705,672.620316 C478.017994,667.810064 483.647134,665.671452 488.426146,667.857733 C502.786856,674.413327 523.214683,674.413327 537.575393,667.857733 C542.366242,665.682286 547.988926,667.811147 550.149758,672.620316 C552.315971,677.429485 550.200335,683.09995 545.423476,685.285148 C535.794429,689.675045 524.582421,692 513.000231,692 L513.000231,692 Z" id="Shape" stroke="#66320F" stroke-width="10" fill="#EB7480" stroke-linejoin="round" mask="url(#mask-2)"></path>
    </g>
</svg>