<?xml version="1.0" encoding="UTF-8"?>
<svg width="1024px" height="1024px" viewBox="0 0 1024 1024" version="1.1" xmlns="http://www.w3.org/2000/svg" xmlns:xlink="http://www.w3.org/1999/xlink">
    <!-- Generator: Sketch 64 (93537) - https://sketch.com -->
    <title>线性女律师</title>
    <desc>Created with Sketch.</desc>
    <defs>
        <circle id="path-1" cx="512.5" cy="512.5" r="403.5"></circle>
    </defs>
    <g id="线性女律师" stroke="none" stroke-width="1" fill="none" fill-rule="evenodd">
        <mask id="mask-2" fill="white">
            <use xlink:href="#path-1"></use>
        </mask>
        <circle stroke="#66320F" stroke-width="10" cx="512.5" cy="512.5" r="398.5"></circle>
        <g id="lawyer-1" mask="url(#mask-2)">
            <g transform="translate(224.000000, 203.000000)">
                <path d="M78.6886381,517.010368 L47.5578263,530.379286 C18.6969077,542.77064 0,571.097756 0,602.428658 L0,733.850184 C0,748.29294 11.7416461,760 26.2270702,760 L550.77293,760 C565.258354,760 577,748.29294 577,733.850184 L577,602.428658 C577,571.097756 558.303092,542.77064 529.442174,530.376323 L498.293535,517 L78.6886381,517.010368 L78.6886381,517.010368 Z" id="Shape" stroke="#66320F" stroke-width="10" fill="#5B5D6E" stroke-linejoin="round"></path>
                <path d="M289,0 L289.371838,0.00171715434 C289.979062,0.00462427987 290.586037,0.0112202759 291.192747,0.0214866202 C399.088861,1.58581718 499,118.723925 499,248.780833 C499,298.421215 474.653662,340.305221 437.01881,370.104862 C447.253063,416.743309 472,441.632336 472,512 L472,512 L354,498.857994 L354.002695,410.650865 C333.183281,416.112114 311.247852,419 289,419 C261.334608,419 234.152321,414.534424 208.998326,406.208052 L209,407 C134.821673,382.821229 78,325.007721 78,249.039352 C78,160.594155 124.119194,78.2738119 187.419933,34 C187.404427,34.1956721 187.389344,34.3920759 187.374695,34.5892089 C200.636992,25.2049527 214.669823,17.4944274 229.205413,11.753575 C229.91589,11.4764688 230.62698,11.1996713 231.339234,10.9276206 C231.443845,10.8865713 231.5486,10.8468349 231.65338,10.807201 C250.051399,3.82008904 269.222551,0 288.65462,0 L289,0 Z" id="形状结合" stroke="#66320F" stroke-width="10" fill="#7B351E" stroke-linejoin="round"></path>
                <polygon id="Rectangle-path" stroke="#66320F" stroke-width="10" fill="#F2DED4" stroke-linejoin="round" points="197 419 381 419 381 642 197 642"></polygon>
                <path d="M202,419 L202,534 C318.053226,517.613417 381,432.104517 381,432.104517 L381,419 L202,419 L202,419 Z" id="Shape" stroke="none" fill="#ECCAB8"></path>
                <polygon id="Shape" stroke="#66320F" stroke-width="10" fill="#F7B500" stroke-linejoin="round" points="315.285502 550 289 628.749442 262.714498 550 197 550 197 760 381 760 381 550"></polygon>
                <path d="M288.498553,393 C265.216002,393 243.432201,387.364928 228.732587,377.54076 C222.759849,373.541348 221.197291,365.527932 225.266173,359.641894 C229.333571,353.768988 237.46985,352.232548 243.469299,356.23342 C253.767635,363.126242 270.601112,367.239464 288.498553,367.239464 C306.395993,367.239464 323.22947,363.126242 333.527807,356.23342 C339.5139,352.220875 347.65018,353.768988 351.730933,359.641894 C355.79833,365.5148 354.250612,373.528216 348.264519,377.54076 C333.579744,387.364928 311.792975,393 288.498553,393 L288.498553,393 Z" id="Shape" stroke="none" fill="#646464"></path>
                <path d="M432.774788,222.934021 L432.769345,248.861544 C447.736641,251.902561 459.001486,265.149735 459,281.034739 L459,281.034739 L459,294.168841 C459,310.050869 447.735156,323.29953 432.769345,326.342036 L432.769345,326.342036 L432.769345,356.621289 C432.769345,379.073344 421.315812,399.967696 402.399432,412.021671 L402.399432,412.021671 L330.748366,457.680084 C304.97086,474.106639 272.02914,474.106639 246.251634,457.680084 L246.251634,457.680084 L174.600568,412.021671 C155.685673,399.967696 144.230655,379.073344 144.230655,356.621289 L144.230655,356.621289 L144.230655,326.342036 C129.264844,323.301018 118,310.052357 118,294.168841 L118,294.168841 L118,281.034739 C118,265.152711 129.264844,251.904049 144.230655,248.861544 L144.230655,248.861544 L144.23,222.792966 L144.803778,221.662129 C164.627234,183.047455 198.597274,158.908286 225.357948,143.741532 C285.814462,221.207279 391.971156,223.566497 432.774788,222.934021 Z" id="形状结合" stroke="#66320F" stroke-width="10" fill="#F2DED4" stroke-linejoin="round"></path>
                <path d="M407.536954,760 L451.09048,602.363772 L424.959252,576.091315 L477.221708,562.954343 L496.615504,523.95563 C500.170713,516.806783 496.603663,508.147513 489.062536,505.619226 L385.760191,471 L343,760 L407.536954,760 L407.536954,760 Z" id="Shape" stroke="#66320F" stroke-width="10" fill="#2D3241" stroke-linejoin="round"></path>
                <path d="M169.463046,760 L125.90952,602.363772 L152.040748,576.091315 L99.7782923,562.954343 L80.3844959,523.95563 C76.8292872,516.806783 80.3963367,508.147513 87.9374641,505.619226 L191.239809,471 L234,760 L169.463046,760 L169.463046,760 Z" id="Shape" stroke="#66320F" stroke-width="10" fill="#2D3241" stroke-linejoin="round"></path>
                <path d="M196.379315,459 L262,550.583204 C262,550.583204 235.752023,576.749622 209.504047,615.99999 C209.481746,616.03556 173.122612,525.357917 160.934512,494.963077 C158.631588,489.219952 160.701097,482.710584 165.864463,479.27953 L196.379315,459 L196.379315,459 Z" id="Shape" stroke="#66320F" stroke-width="10" fill="#FFFFFF" stroke-linejoin="round"></path>
                <path d="M380.620685,459 L315,550.583204 C315,550.583204 341.247977,576.749622 367.495953,615.99999 C367.518254,616.03556 403.877388,525.357917 416.065488,494.963077 C418.368412,489.219952 416.298903,482.710584 411.135537,479.27953 L380.620685,459 L380.620685,459 Z" id="Shape" stroke="#66320F" stroke-width="10" fill="#FFFFFF" stroke-linejoin="round"></path>
                <path d="M222.5,301 L222.5,301 C215.075612,301 209,295.150884 209,288 L209,275 C209,267.850589 215.074082,262 222.5,262 L222.5,262 C229.924388,262 236,267.849116 236,275 L236,288 C236,295.149411 229.924388,301 222.5,301 L222.5,301 Z" id="Shape" stroke="none" fill="#66320F"></path>
                <path d="M354.5,301 L354.5,301 C347.075612,301 341,295.150884 341,288 L341,275 C341,267.850589 347.074082,262 354.5,262 L354.5,262 C361.924388,262 368,267.849116 368,275 L368,288 C368,295.149411 361.924388,301 354.5,301 L354.5,301 Z" id="Shape" stroke="none" fill="#66320F"></path>
                <path d="M288.502551,407 C272.520205,407 257.0374,403.839592 243.70738,397.858969 C237.107786,394.888539 234.183389,387.181915 237.171716,380.64314 C240.17045,374.117619 247.925233,371.19726 254.551588,374.169163 C274.455927,383.120216 302.601211,383.106962 322.455001,374.182417 C329.067976,371.172224 336.848033,374.119091 339.821493,380.644612 C342.820227,387.181915 339.898803,394.890012 333.297722,397.847187 C319.992977,403.838119 304.496791,407 288.502551,407 L288.502551,407 Z" id="Shape" stroke="#66320F" stroke-width="10" fill="#EB7480" stroke-linejoin="round"></path>
            </g>
        </g>
    </g>
</svg>