<?xml version="1.0" encoding="UTF-8"?>
<svg width="1024px" height="1024px" viewBox="0 0 1024 1024" version="1.1" xmlns="http://www.w3.org/2000/svg" xmlns:xlink="http://www.w3.org/1999/xlink">
    <!-- Generator: Sketch 64 (93537) - https://sketch.com -->
    <title>线性胡子大叔</title>
    <desc>Created with Sketch.</desc>
    <defs>
        <circle id="path-1" cx="512.5" cy="512.5" r="403.5"></circle>
    </defs>
    <g id="线性胡子大叔" stroke="none" stroke-width="1" fill="none" fill-rule="evenodd">
        <mask id="mask-2" fill="white">
            <use xlink:href="#path-1"></use>
        </mask>
        <circle stroke="#66320F" stroke-width="10" cx="512.5" cy="512.5" r="398.5"></circle>
        <g id="user-10" mask="url(#mask-2)" stroke="#66320F" stroke-linejoin="round" stroke-width="10">
            <g transform="translate(223.000000, 224.000000)" id="Shape">
                <path d="M289,152.380952 C187.13,103.466667 122,160 122,160 L122,114.285714 C122,114.285714 152.819091,0 289,0 C425.180909,0 456,114.285714 456,114.285714 L456,160 C456,160 390.87,103.466667 289,152.380952 L289,152.380952 Z" fill="#A0A5A6"></path>
                <path d="M364.909091,453.027692 C342.743636,464.603077 317.238182,471 289,471 C260.761818,471 235.256364,464.603077 213.090909,453.027692 C164.357273,427.744615 132.171818,377.787692 123.973636,318.235385 C122.607273,308.487692 122,298.435385 122,288.230769 L122,273 C122,273 174.225455,364.384615 228.272727,364.384615 C228.272727,363.013846 228.728182,318.692308 289,318.692308 C349.271818,318.692308 349.727273,363.013846 349.727273,364.384615 C403.774545,364.384615 456,273 456,273 L456,288.230769 C456,298.435385 455.392727,308.487692 454.026364,318.235385 C445.828182,377.787692 413.642727,427.744615 364.909091,453.027692 L364.909091,453.027692 Z" fill="#FFFFFF"></path>
                <path d="M578,675.964286 L578,714 L0,714 L0,675.964286 C0,675.964286 1.36894737,592.742143 144.5,546.642857 C144.5,546.642857 196.367895,519.561429 212.947368,501 L289,569.464286 L365.052632,501 C381.632105,519.561429 433.5,546.642857 433.5,546.642857 C577.543684,592.285714 578,675.964286 578,675.964286 L578,675.964286 Z" fill="#254D8D"></path>
                <path d="M365,486.210938 L365,501.445313 L289,570 L213,501.445313 L213,486.210938 L213,453 C235.192,464.578125 260.728,470.976563 289,470.976563 C317.272,470.976563 342.808,464.578125 365,453 L365,486.210938 L365,486.210938 Z" fill="#ECCAB8"></path>
                <path d="M121.047923,288.875252 C121.047923,299.120724 121.648562,309.21328 123,319 C99.7252396,315.788732 76,293.156942 76,273.583501 C76,252.480885 96.1214058,243 121.047923,243 L121.047923,273.583501 L121.047923,288.875252 L121.047923,288.875252 Z" fill="#ECCAB8"></path>
                <path d="M502,273.583501 C502,293.156942 478.27476,315.788732 455,319 C456.351438,309.21328 456.952077,299.120724 456.952077,288.875252 L456.952077,273.583501 L456.952077,243 C481.878594,243 502,252.480885 502,273.583501 Z" fill="#ECCAB8"></path>
                <path d="M456,242.230847 L456,272.673135 C456,272.673135 403.774545,364 349.727273,364 C349.727273,362.630097 349.271818,318.336568 289,318.336568 C228.728182,318.336568 228.272727,362.630097 228.272727,364 C174.225455,364 122,272.673135 122,272.673135 L122,242.230847 L122,158.514555 C122,158.514555 187.13,102.04411 289,150.903983 C390.87,102.04411 456,158.514555 456,158.514555 L456,242.230847 L456,242.230847 Z" fill="#F2DED4"></path>
            </g>
        </g>
        <path d="M442,512 L442,512 C433.75068,512 427,505.700952 427,498 L427,484 C427,476.300634 433.748981,470 442,470 L442,470 C450.24932,470 457,476.299048 457,484 L457,498 C457,505.700952 450.24932,512 442,512 L442,512 Z" id="Shape" stroke="#66320F" stroke-width="10" fill="#606060" stroke-linejoin="round" mask="url(#mask-2)"></path>
        <path d="M588,512 L588,512 C579.75068,512 573,505.700952 573,498 L573,484 C573,476.300634 579.748981,470 588,470 L588,470 C596.24932,470 603,476.299048 603,484 L603,498 C603,505.700952 596.24932,512 588,512 L588,512 Z" id="Shape" stroke="#66320F" stroke-width="10" fill="#606060" stroke-linejoin="round" mask="url(#mask-2)"></path>
    </g>
</svg>