<?xml version="1.0" encoding="UTF-8"?>
<svg width="1024px" height="1024px" viewBox="0 0 1024 1024" version="1.1" xmlns="http://www.w3.org/2000/svg" xmlns:xlink="http://www.w3.org/1999/xlink">
    <!-- Generator: Sketch 64 (93537) - https://sketch.com -->
    <title>线性短发女孩</title>
    <desc>Created with Sketch.</desc>
    <defs>
        <circle id="path-1" cx="512.5" cy="512.5" r="403.5"></circle>
    </defs>
    <g id="线性短发女孩" stroke="none" stroke-width="1" fill="none" fill-rule="evenodd">
        <mask id="mask-2" fill="white">
            <use xlink:href="#path-1"></use>
        </mask>
        <circle stroke="#66320F" stroke-width="10" cx="512.5" cy="512.5" r="398.5"></circle>
        <g id="user-7" mask="url(#mask-2)" stroke="#66320F" stroke-linejoin="round" stroke-width="10">
            <g transform="translate(228.000000, 244.000000)">
                <path d="M399.497895,522.409286 C414.172105,531.366429 426.75,537.785714 426.75,537.785714 C568.550789,582.571429 569,664.678571 569,664.678571 L569,702 L0,702 L0,664.678571 C0,664.678571 1.34763158,583.019286 142.25,537.785714 C142.25,537.785714 155.127368,531.067857 170.101053,522.110714 C184.775263,513.153571 201.545789,502.106429 209.631579,493 C209.631579,493 240.477368,575.107143 284.5,575.107143 C328.522632,575.107143 359.368421,493 359.368421,493 C367.603947,502.106429 384.673947,513.452143 399.497895,522.409286 L399.497895,522.409286 Z" id="Shape" fill="#6236FF"></path>
                <path d="M211,445 C232.754,456.294931 257.786,462.536866 285.5,462.536866 C313.214,462.536866 338.246,456.294931 360,445 L360,492.260369 C360,492.260369 329.306,574 285.5,574 C241.694,574 211,492.260369 211,492.260369 L211,445 L211,445 Z" id="Shape" fill="#ECCAB8"></path>
                <path d="M285.5,463 C257.684545,463 232.560909,456.729302 210.727273,445.382326 C154.797273,416.566977 121,355.054419 121,283.837209 L121,171.860465 C121,171.860465 195.174545,164.992558 233.159091,142 L285.5,142 L337.840909,142 C366.553636,164.395349 450,171.860465 450,171.860465 L450,283.837209 C450,355.054419 416.202727,416.566977 360.272727,445.382326 C338.439091,456.729302 313.315455,463 285.5,463 Z" id="Shape" fill="#F2DED4"></path>
                <path d="M169.853786,251.930614 C178.804255,256.251367 193.197161,237.248189 226.15116,253.780251 C232.150123,256.784063 235.734916,228 200.424319,228 C169.853786,228 164.4267,249.315226 169.853786,251.930614 L169.853786,251.930614 Z" id="Fill-8" fill="#8F7830"></path>
                <path d="M398.15215,251.930614 C389.200665,256.251367 374.806123,237.248189 341.848381,253.780251 C335.848736,256.784063 332.267374,228 367.578144,228 C398.15215,228 403.564498,249.315226 398.15215,251.930614 L398.15215,251.930614 Z" id="Fill-11" fill="#8F7830"></path>
                <path d="M201,309 L201,309 C193.850589,309 188,303.000906 188,295.666667 L188,282.333333 C188,275.000604 193.849116,269 201,269 L201,269 C208.149411,269 214,274.999094 214,282.333333 L214,295.666667 C214,303.000906 208.149411,309 201,309 L201,309 Z" id="Shape" fill="#551735"></path>
                <path d="M371,306 L371,306 C363.850589,306 358,300.000906 358,292.666667 L358,279.333333 C358,272.000604 363.849116,266 371,266 L371,266 C378.149411,266 384,271.999094 384,279.333333 L384,292.666667 C384,300.000906 378.149411,306 371,306 L371,306 Z" id="Shape" fill="#551735"></path>
                <path d="M288.111369,405 C268.715895,405 245.370129,393.179543 248.240981,384.348429 C254.223836,365.955981 263.226827,387.885439 285.998422,387.885439 C308.207331,387.885439 317.727075,365.955981 323.70993,384.348429 C326.592265,393.179543 307.506843,405 288.111369,405" id="Fill-28" fill="#E7645B"></path>
                <path d="M488,179.468116 L488,321.54704 C488,402.008579 473.45,499.968259 400.7,523 C385.85,514.026594 368.75,502.66028 360.5,493.537318 L360.5,445.978267 C416.6,417.113812 450.5,355.496426 450.5,284.15785 L450.5,171.990277 C450.5,171.990277 366.8,164.512439 338,142.078925 L285.5,142.078925 L233,142.078925 C194.9,165.110666 120.5,171.990277 120.5,171.990277 L120.5,284.15785 C120.5,355.496426 154.4,417.113812 210.5,445.978267 L210.5,493.537318 C202.4,502.66028 185.6,513.727481 170.9,522.700886 C98.9,499.070918 83,401.709465 83,321.54704 L83,179.468116 C83,80.3119817 163.55,0 263,0 L308,0 C407.45,0 488,80.3119817 488,179.468116 L488,179.468116 Z" id="Shape" fill="#8F7830"></path>
            </g>
        </g>
    </g>
</svg>