<?xml version="1.0" encoding="UTF-8"?>
<svg width="1024px" height="1024px" viewBox="0 0 1024 1024" version="1.1" xmlns="http://www.w3.org/2000/svg" xmlns:xlink="http://www.w3.org/1999/xlink">
    <!-- Generator: Sketch 64 (93537) - https://sketch.com -->
    <title>线性眼镜男</title>
    <desc>Created with Sketch.</desc>
    <defs>
        <circle id="path-1" cx="512.5" cy="512.5" r="403.5"></circle>
        <polygon id="path-3" points="191.913035 127.449169 191.913035 0.375133298 0.380685888 0.375133298 0.380685888 127.449169 191.913035 127.449169"></polygon>
    </defs>
    <g id="线性眼镜男" stroke="none" stroke-width="1" fill="none" fill-rule="evenodd">
        <mask id="mask-2" fill="white">
            <use xlink:href="#path-1"></use>
        </mask>
        <circle stroke="#66320F" stroke-width="10" cx="512.5" cy="512.5" r="398.5"></circle>
        <g id="boy_3" mask="url(#mask-2)">
            <g transform="translate(296.000000, 212.000000)" id="Person-7">
                <g>
                    <path d="M426.494241,213.690057 C426.494241,331.709846 331.022716,427.379322 213.247121,427.379322 C95.4715258,427.379322 0,331.709846 0,213.690057 C0,95.6702669 95.4715258,0.000791441722 213.247121,0.000791441722 C331.022716,0.000791441722 426.494241,95.6702669 426.494241,213.690057" id="Fill-1" stroke="#66320F" stroke-width="10" fill="#8C6239" stroke-linejoin="round"></path>
                    <path d="M410.698158,314.442171 C410.698158,334.109498 394.783605,350.057048 375.156972,350.057048 C355.530338,350.057048 339.615785,334.109498 339.615785,314.442171 C339.615785,294.774844 355.530338,278.827293 375.156972,278.827293 C394.783605,278.827293 410.698158,294.774844 410.698158,314.442171" id="Fill-3" fill="#ECCAB8"></path>
                    <path d="M86.8784566,314.442171 C86.8784566,334.109498 70.963903,350.057048 51.3372698,350.057048 C31.7106367,350.057048 15.796083,334.109498 15.796083,314.442171 C15.796083,294.774844 31.7106367,278.827293 51.3372698,278.827293 C70.963903,278.827293 86.8784566,294.774844 86.8784566,314.442171" id="Fill-5" fill="#ECCAB8"></path>
                    <path d="M268.533411,559.391801 L157.96083,559.391801 C75.0866806,559.391801 7.89804151,626.719748 7.89804151,709.765728 L7.89804151,780.995483 C7.89804151,798.478431 22.0434338,812.653152 39.4902075,812.653152 L387.004034,812.653152 C404.450808,812.653152 418.5962,798.478431 418.5962,780.995483 L418.5962,709.765728 C418.5962,626.719748 351.407561,559.391801 268.533411,559.391801" id="Fill-7" fill="#FFFFFF"></path>
                    <path d="M270.51582,559.492314 L276.431453,630.619182 L232.518342,628.73555 L213.247121,678.105685 L193.975899,628.73555 L165.858872,630.619182 L165.858872,559.389427 L157.96083,559.389427 C75.0866806,559.389427 7.89804151,626.717374 7.89804151,709.763354 L7.89804151,780.993109 C7.89804151,798.476057 22.0434338,812.650778 39.4902075,812.650778 L387.004034,812.650778 C404.450808,812.650778 418.5962,798.476057 418.5962,780.993109 L418.5962,709.763354 C418.5962,627.390099 352.465898,560.568675 270.51582,559.492314" id="Fill-9" stroke="#66320F" stroke-width="10" fill="#BEDEFF" stroke-linejoin="round"></path>
                    <path d="M213.247121,630.621556 L213.247121,630.621556 C187.073011,630.621556 165.858872,609.363431 165.858872,583.135053 L165.858872,472.333211 L260.63537,472.333211 L260.63537,583.135053 C260.63537,609.363431 239.42123,630.621556 213.247121,630.621556" id="Fill-14" stroke="#66320F" stroke-width="10" fill="#F6DED2" stroke-linejoin="round"></path>
                    <path d="M82.9294358,753.297397 C76.3819594,753.297397 71.0823736,758.615886 71.0823736,765.169023 L71.0823736,812.655527 L94.7764981,812.655527 L94.7764981,765.169023 C94.7764981,758.615886 89.4769122,753.297397 82.9294358,753.297397" id="Fill-18" fill="#292929" opacity="0.200000003"></path>
                    <path d="M343.564806,753.297397 C337.017329,753.297397 331.717743,758.615886 331.717743,765.169023 L331.717743,812.655527 L355.411868,812.655527 L355.411868,765.169023 C355.411868,758.615886 350.112282,753.297397 343.564806,753.297397" id="Fill-20" fill="#292929" opacity="0.200000003"></path>
                    <path d="M213.236853,428.334592 C186.873191,428.334592 165.303639,449.948865 165.303639,476.36719 L165.303639,480.189853 C165.303639,453.771529 186.873191,432.157255 213.236853,432.157255 C239.600516,432.157255 261.170067,453.771529 261.170067,480.189853 L261.170067,476.36719 C261.170067,449.948865 239.600516,428.334592 213.236853,428.334592" id="Fill-22" fill="#373535"></path>
                    <path d="M213.247121,527.734132 L213.247121,527.734132 C117.285916,527.734132 39.4902075,449.777122 39.4902075,353.616953 L39.4902075,203.243026 C39.4902075,107.082857 117.285916,29.1258468 213.247121,29.1258468 L213.247121,29.1258468 C309.208325,29.1258468 387.004034,107.082857 387.004034,203.243026 L387.004034,353.616953 C387.004034,449.777122 309.208325,527.734132 213.247121,527.734132" id="Fill-24" stroke="#66320F" stroke-width="10" fill="#F6DED2" stroke-linejoin="round"></path>
                    <path d="M213.203681,386.477723 C206.095444,386.477723 199.058289,385.48842 192.28177,383.533559 C188.08791,382.330568 185.663211,377.945981 186.871611,373.743425 C188.072113,369.54087 192.447628,367.134887 196.641488,368.322049 C207.374927,371.416587 219.064028,371.416587 229.821161,368.306221 C234.022919,367.111144 238.398434,369.517126 239.598936,373.727596 C240.807337,377.922238 238.390536,382.314739 234.196676,383.517731 C227.388564,385.480506 220.327715,386.477723 213.203681,386.477723" id="Fill-28" stroke="#66320F" stroke-width="10" fill="#C48464" stroke-linejoin="round"></path>
                    <path d="M255.35079,412.505757 C267.134668,412.505757 275.048506,424.543586 270.672991,435.505054 C261.558651,458.338147 239.278276,474.46773 213.238433,474.46773 C187.19859,474.46773 164.918215,458.338147 155.803875,435.505054 C151.42836,424.543586 159.342198,412.505757 171.126076,412.505757 L255.35079,412.505757 Z" id="Fill-30" stroke="#66320F" stroke-width="10" fill="#524758" stroke-linejoin="round"></path>
                    <path d="M241.088507,433.710064 L185.739032,433.710064 C176.300872,433.710064 168.64767,426.040994 168.64767,416.59118 L168.64767,412.50734 L258.171971,412.50734 L258.171971,416.59118 C258.171971,426.040994 250.526666,433.710064 241.088507,433.710064" id="Fill-36" stroke="#66320F" stroke-width="10" fill="#FFFFFF" stroke-linejoin="round"></path>
                    <path d="M213.247121,451.518294 C201.210505,451.518294 190.595538,457.786513 184.403473,467.204669 C193.028134,471.779202 202.80591,474.470104 213.247121,474.470104 C223.688332,474.470104 233.466107,471.779202 242.090768,467.204669 C235.898704,457.786513 225.283736,451.518294 213.247121,451.518294" id="Fill-38" stroke="#66320F" stroke-width="10" fill="#F37F65" stroke-linejoin="round"></path>
                    <path d="M296.923711,351.766562 C273.261179,351.766562 254.005754,332.471213 254.005754,308.759619 C254.005754,285.040111 273.261179,265.744762 296.923711,265.744762 C320.586244,265.744762 339.841669,285.040111 339.841669,308.759619 C339.841669,332.471213 320.586244,351.766562 296.923711,351.766562 M129.97491,351.766562 C106.304479,351.766562 87.0569523,332.471213 87.0569523,308.759619 C87.0569523,285.040111 106.304479,265.744762 129.97491,265.744762 C153.637442,265.744762 172.892867,285.040111 172.892867,308.759619 C172.892867,332.471213 153.637442,351.766562 129.97491,351.766562 M296.923711,249.947585 C273.142708,249.947585 252.670985,264.209365 243.461868,284.628561 L238.028016,283.061506 C223.606192,278.890609 208.347176,278.890609 193.917454,283.061506 L184.0528,285.910697 C175.135911,264.795031 154.253489,249.947585 129.97491,249.947585 C97.6087358,249.947585 71.2845634,276.326337 71.2845634,308.759619 C71.2845634,341.184987 97.6087358,367.571654 129.97491,367.571654 C162.341084,367.571654 188.665256,341.184987 188.665256,308.759619 C188.665256,306.187434 188.444111,303.670649 188.120291,301.177607 L198.292969,298.241359 C209.855702,294.89356 222.089768,294.89356 233.660399,298.241359 L238.991577,299.78467 C238.541388,302.720919 238.233365,305.69674 238.233365,308.759619 C238.233365,341.184987 264.557537,367.571654 296.923711,367.571654 C329.289885,367.571654 355.614058,341.184987 355.614058,308.759619 C355.614058,276.326337 329.289885,249.947585 296.923711,249.947585" id="Fill-40" stroke="#66320F" stroke-width="10" fill="#FFFFFF" stroke-linejoin="round"></path>
                    <g id="Group-48" transform="translate(240.402063, 38.549947)">
                        <mask id="mask-4" fill="white">
                            <use xlink:href="#path-3"></use>
                        </mask>
                        <g id="Clip-47"></g>
                        <path d="M190.19995,35.9674568 C199.416964,78.1908727 170.912933,111.668858 119.164965,123.018132 C51.0364586,137.952637 10.5274037,113.726606 1.30249119,71.5031901 C-6.6508366,35.0414699 37.5702978,-26.5010384 106.551792,13.284737 C162.706867,45.6863611 180.982936,-6.25595914 190.19995,35.9674568" id="Fill-46" stroke="#66320F" stroke-width="10" fill="#8C6239" stroke-linejoin="round" mask="url(#mask-4)"></path>
                    </g>
                    <path d="M211.249706,0.61099301 C159.683393,0.61099301 112.413615,19.0120131 75.5929451,49.6091501 C87.0924935,142.09703 165.764885,213.690848 261.173226,213.690848 C322.169801,213.690848 376.33457,184.423333 410.485701,139.152867 C380.323081,58.2358648 302.511576,0.61099301 211.249706,0.61099301" id="Fill-51" stroke="#66320F" stroke-width="10" fill="#8C6239" stroke-linejoin="round"></path>
                    <path d="M66.6184005,66.4795218 C32.3882886,102.347661 10.4949176,150.142826 7.8964619,203.050705 C15.1231699,205.385459 22.8158623,206.683423 30.8165784,206.683423 C71.9811707,206.683423 105.350396,173.237096 105.350396,131.987153 C105.350396,103.740598 89.6964778,79.174247 66.6184005,66.4795218" id="Fill-53" stroke="#66320F" stroke-width="10" fill="#8C6239" stroke-linejoin="round"></path>
                    <path d="M165.858872,583.872676 L165.858872,551.478967 C158.276752,555.887297 147.456435,560.683434 142.164747,567.307801 C133.137286,578.601674 126.368664,589.032876 126.368664,606.879887 C126.368664,621.64819 135.735741,639.107394 144.273524,651.952493 C150.710428,661.63974 164.516205,662.644871 172.145713,653.867782 L193.975899,628.731593 C193.975899,628.731593 165.858872,614.794304 165.858872,583.872676" id="Fill-59" stroke="#66320F" stroke-width="10" fill="#7799FF" stroke-linejoin="round"></path>
                    <path d="M260.63537,583.872676 L260.63537,551.478967 C268.21749,555.887297 279.037806,560.683434 284.329494,567.307801 C293.356956,578.601674 300.125577,589.032876 300.125577,606.879887 C300.125577,621.64819 290.7585,639.107394 282.220717,651.952493 C275.783813,661.63974 261.978037,662.644871 254.348529,653.867782 L232.518342,628.731593 C232.518342,628.731593 260.63537,614.794304 260.63537,583.872676" id="Fill-61" stroke="#66320F" stroke-width="10" fill="#7799FF" stroke-linejoin="round"></path>
                    <path d="M221.145162,679.257233 C221.145162,683.625991 217.60684,687.17165 213.247121,687.17165 C208.887402,687.17165 205.349079,683.625991 205.349079,679.257233 C205.349079,674.888474 208.887402,671.342816 213.247121,671.342816 C217.60684,671.342816 221.145162,674.888474 221.145162,679.257233" id="Fill-63" stroke="#66320F" stroke-width="10" fill="#FFFFFF" stroke-linejoin="round"></path>
                    <path d="M221.145162,717.680145 C221.145162,722.048904 217.60684,725.594563 213.247121,725.594563 C208.887402,725.594563 205.349079,722.048904 205.349079,717.680145 C205.349079,713.311387 208.887402,709.765728 213.247121,709.765728 C217.60684,709.765728 221.145162,713.311387 221.145162,717.680145" id="Fill-65" fill="#AAABAE"></path>
                    <path d="M255,542.828834 C255,542.828834 223.647,550.743252 213,550.743252 C202.353,550.743252 171,542.828834 171,542.828834 L171,527 C171,527 202.353,534.914417 213,534.914417 C223.647,534.914417 255,527 255,527 L255,542.828834 Z" id="Fill-16" fill="#ECCAB8"></path>
                </g>
            </g>
        </g>
        <path d="M448,543 L448,543 C440.850442,543 435,537.449581 435,530.666667 L435,518.333333 C435,511.550419 440.850442,506 448,506 L448,506 C455.149558,506 461,511.550419 461,518.333333 L461,530.666667 C461,537.449581 455.149558,543 448,543 L448,543 Z" id="Shape" fill="#8C6239" mask="url(#mask-2)"></path>
        <path d="M576,543 L576,543 C568.850442,543 563,537.449581 563,530.666667 L563,518.333333 C563,511.550419 568.850442,506 576,506 L576,506 C583.149558,506 589,511.550419 589,518.333333 L589,530.666667 C589,537.449581 583.149558,543 576,543 L576,543 Z" id="Shape" fill="#8C6239" mask="url(#mask-2)"></path>
    </g>
</svg>