<?xml version="1.0" encoding="UTF-8"?>
<svg width="1024px" height="1024px" viewBox="0 0 1024 1024" version="1.1" xmlns="http://www.w3.org/2000/svg" xmlns:xlink="http://www.w3.org/1999/xlink">
    <!-- Generator: Sketch 64 (93537) - https://sketch.com -->
    <title>线性书生</title>
    <desc>Created with Sketch.</desc>
    <defs>
        <circle id="path-1" cx="512.5" cy="512.5" r="403.5"></circle>
    </defs>
    <g id="线性书生" stroke="none" stroke-width="1" fill="none" fill-rule="evenodd">
        <mask id="mask-2" fill="white">
            <use xlink:href="#path-1"></use>
        </mask>
        <circle stroke="#66320F" stroke-width="10" cx="512.5" cy="512.5" r="398.5"></circle>
        <g id="user-19" mask="url(#mask-2)" stroke="#66320F" stroke-linejoin="round" stroke-width="10">
            <g transform="translate(213.000000, 242.000000)">
                <path d="M0,694 L0,656.5 C0,656.5 1.36894737,574.45 144.5,529 C144.5,529 196.367895,502.3 212.947368,484 C212.947368,484 242.681748,505.351576 285.558559,506.455656 C329.9208,505.351687 360.684211,484 360.684211,484 C377.837368,502.3 431.5,529 431.5,529 C580.527895,574 581,656.5 581,656.5 L581,694 L0,694 Z" id="形状结合" fill="#7799FF"></path>
                <path d="M210,484.564103 L210,437 C231.9,448.367521 257.1,454.649573 285,454.649573 C312.9,454.649573 338.1,448.367521 360,437 L360,484.564103 C360,484.564103 329.1,507 285,507 C240.9,507 210,484.564103 210,484.564103 L210,484.564103 Z" id="Shape" fill="#ECCAB8"></path>
                <path d="M451.164663,191.912394 C451.164663,191.912394 383.432507,205.149199 285.59717,139.266008 C274.609509,131.895514 120.029676,191.912394 120.029676,191.912394 L120.029676,124.224183 C120.029676,124.224183 113.708008,11.4104995 285.59717,11.4104995 C285.59717,11.4104995 374.100521,-22.4336056 458.690458,26.452324 C543.280396,75.3382537 471.935858,113.544488 549,154.307832 C549,154.307832 545.839166,191.912394 451.164663,191.912394 L451.164663,191.912394 Z" id="Shape" fill="#D8B233"></path>
                <path d="M121.047923,274.27163 C121.047923,284.382294 121.648562,294.342052 123,304 C99.7252396,300.830986 76,278.496982 76,259.181087 C76,238.356137 96.1214058,229 121.047923,229 L121.047923,274.27163 L121.047923,274.27163 Z" id="Shape" fill="#ECCAB8"></path>
                <path d="M496,259.181087 C496,278.496982 472.27476,300.830986 449,304 C450.351438,294.342052 450.952077,284.382294 450.952077,274.27163 L450.952077,229 C475.878594,229 496,238.356137 496,259.181087 Z" id="Shape" fill="#ECCAB8"></path>
                <path d="M450,230.445908 L450,275.356726 C450,285.386809 449.398182,295.267189 448.044091,304.848164 C439.919545,363.38193 408.023182,412.484425 359.727273,437.335078 C337.760909,448.712485 312.484545,455 284.5,455 C256.515455,455 231.239091,448.712485 209.272727,437.335078 C160.976818,412.484425 129.080455,363.38193 120.955909,304.848164 C119.601818,295.267189 119,285.386809 119,275.356726 L119,230.445908 L119,193.020226 C119,193.020226 273.516818,133.288837 284.5,140.624271 C382.295455,206.194066 450,193.020226 450,193.020226 L450,230.445908 L450,230.445908 Z" id="Shape" fill="#F6DED2"></path>
                <path d="M212,296 L212,296 C203.75068,296 197,289.700952 197,282 L197,268 C197,260.300634 203.748981,254 212,254 L212,254 C220.24932,254 227,260.299048 227,268 L227,282 C227,289.700952 220.24932,296 212,296 L212,296 Z" id="Shape" fill="#7B351E"></path>
                <path d="M358,296 L358,296 C349.75068,296 343,289.700952 343,282 L343,268 C343,260.300634 349.748981,254 358,254 L358,254 C366.24932,254 373,260.299048 373,268 L373,282 C373,289.700952 366.24932,296 358,296 L358,296 Z" id="Shape" fill="#7B351E"></path>
                <path d="M289.795088,396 C276.704935,396 264.023924,393.400412 253.117087,388.477942 C247.700807,386.034912 245.306831,379.688858 247.753168,374.295502 C250.198287,368.911854 256.56071,366.516155 261.97699,368.954331 C278.268447,376.308908 301.320512,376.308908 317.611969,368.954331 C323.028249,366.517369 329.400414,368.913068 331.835791,374.295502 C334.28091,379.688858 331.888152,386.034912 326.471872,388.477942 C315.566252,393.401625 302.885242,396 289.795088,396 L289.795088,396 Z" id="Shape" fill="#F26D6D"></path>
                <path d="M347,639 L347,661 L316,661 L316,639 L347,639 Z M256,639 L256,661 L225,661 L225,639 L256,639 Z M347,594 L347,616 L316,616 L316,594 L347,594 Z M256,594 L256,616 L225,616 L225,594 L256,594 Z M347,548 L347,570 L316,570 L316,548 L347,548 Z M256,548 L256,570 L225,570 L225,548 L256,548 Z" id="形状结合" fill="#FFFFFF"></path>
            </g>
        </g>
    </g>
</svg>