<?xml version="1.0" encoding="UTF-8"?>
<svg width="1024px" height="1024px" viewBox="0 0 1024 1024" version="1.1" xmlns="http://www.w3.org/2000/svg" xmlns:xlink="http://www.w3.org/1999/xlink">
    <!-- Generator: Sketch 64 (93537) - https://sketch.com -->
    <title>线性平头小伙</title>
    <desc>Created with Sketch.</desc>
    <defs>
        <circle id="path-1" cx="512.5" cy="512.5" r="403.5"></circle>
    </defs>
    <g id="线性平头小伙" stroke="none" stroke-width="1" fill="none" fill-rule="evenodd">
        <mask id="mask-2" fill="white">
            <use xlink:href="#path-1"></use>
        </mask>
        <circle stroke="#66320F" stroke-width="10" cx="512.5" cy="512.5" r="398.5"></circle>
        <g id="user-6" mask="url(#mask-2)">
            <g transform="translate(199.000000, 228.000000)">
                <path d="M495,148.090909 L428.818182,148.090909 C368.096364,148.090909 373.721818,181 313,181 C252.278182,181 257.903636,148.090909 197.181818,148.090909 L131,148.090909 C131,148.090909 156.48,0 313,0 C469.52,0 495,148.090909 495,148.090909 L495,148.090909 Z" id="Shape" stroke="#66320F" stroke-width="10" fill="#532B51" stroke-linejoin="round"></path>
                <path d="M420,775 L206,775 C206,715.903077 253.903077,668 313,668 C372.096923,668 420,715.903077 420,775 L420,775 Z" id="Shape" stroke="none" fill="#F7B500"></path>
                <path d="M512,609.01 L512,775 L421.020833,775 C421.020833,715.765 372.884583,667.75 313.5,667.75 C254.115417,667.75 205.979167,715.765 205.979167,775 L115,775 L115,609.175 C127.40625,603.73 141.135833,598.45 156.354167,593.5 C156.354167,593.5 212.76125,564.13 230.791667,544 C230.791667,544 264.8675,585.25 313.5,585.25 C362.1325,585.25 396.208333,544 396.208333,544 C414.23875,564.13 470.645833,593.5 470.645833,593.5 C485.864167,598.285 499.59375,603.565 512,609.01 L512,609.01 Z" id="Shape" stroke="#66320F" stroke-width="10" fill="#6236FF" stroke-linejoin="round"></path>
                <path d="M115,609 L115,775 L0,775 L0,733.706468 C0,733.706468 1.15,660.20398 115,609 L115,609 Z" id="Shape" stroke="#66320F" stroke-width="10" fill="#F2DED4" stroke-linejoin="round"></path>
                <path d="M627,733.747515 L627,775 L512,775 L512,609 C626.671429,659.823062 627,733.747515 627,733.747515 L627,733.747515 Z" id="Shape" stroke="#66320F" stroke-width="10" fill="#F2DED4" stroke-linejoin="round"></path>
                <path d="M230,544.626761 L230,492 C254.09,504.577465 281.81,511.528169 312.5,511.528169 C343.19,511.528169 370.91,504.577465 395,492 L395,544.626761 C395,544.626761 361.01,586 312.5,586 C263.99,586 230,544.626761 230,544.626761 L230,544.626761 Z" id="Shape" stroke="#66320F" stroke-width="10" fill="#ECCAB8" stroke-linejoin="round"></path>
                <path d="M131.840256,313.496982 C131.840256,324.551308 132.504792,335.440644 134,346 C108.249201,342.535211 82,318.1167 82,296.997988 C82,274.229376 104.261981,264 131.840256,264 L131.840256,313.496982 L131.840256,313.496982 Z" id="Shape" stroke="#66320F" stroke-width="10" fill="#ECCAB8" stroke-linejoin="round"></path>
                <path d="M494.159744,264 C521.738019,264 544,274.229376 544,296.997988 C544,318.1167 517.750799,342.535211 492,346 C493.495208,335.440644 494.159744,324.551308 494.159744,313.496982 L494.159744,264 L494.159744,264 Z" id="Shape" stroke="#66320F" stroke-width="10" fill="#ECCAB8" stroke-linejoin="round"></path>
                <path d="M492.849091,346.960909 C483.914545,411.298182 448.838182,465.269091 395.727273,492.583636 C371.570909,505.089091 343.774545,512 313,512 C282.225455,512 254.429091,505.089091 230.272727,492.583636 C177.161818,465.269091 142.085455,411.298182 133.150909,346.960909 C131.661818,336.43 131,325.57 131,314.545455 L131,265.181818 L131,150 L197.181818,150 C257.903636,150 252.278182,182.909091 313,182.909091 C373.721818,182.909091 368.096364,150 428.818182,150 L495,150 L495,265.181818 L495,314.545455 C495,325.57 494.338182,336.43 492.849091,346.960909 L492.849091,346.960909 Z" id="Shape" stroke="#66320F" stroke-width="10" fill="#F2DED4" stroke-linejoin="round"></path>
                <path d="M238,313.491679 C238,325.923262 228.596253,336 217.002127,336 C205.403747,336 196,325.923262 196,313.491679 C196,301.076738 205.403747,291 217.002127,291 C228.596253,291 238,301.076738 238,313.491679 L238,313.491679 Z" id="Fill-6" stroke="#66320F" stroke-width="10" fill="#3B2519" stroke-linejoin="round"></path>
                <path d="M215,305.497799 C215,309.09448 211.870979,312 208.00237,312 C204.129021,312 201,309.09448 201,305.497799 C201,301.90552 204.129021,299 208.00237,299 C211.870979,299 215,301.90552 215,305.497799 L215,305.497799 Z" id="Fill-7" stroke="none" fill="#FFFFFF"></path>
                <path d="M182.092984,257.691838 C192.198352,262.511141 208.448408,241.315288 245.654535,259.754896 C252.427558,263.105301 256.474906,231 216.608102,231 C182.092984,231 175.96563,254.774675 182.092984,257.691838 L182.092984,257.691838 Z" id="Fill-8" stroke="#66320F" stroke-width="10" fill="#8E462F" stroke-linejoin="round"></path>
                <path d="M429,313.491679 C429,325.923262 419.596253,336 408.002127,336 C396.403747,336 387,325.923262 387,313.491679 C387,301.076738 396.403747,291 408.002127,291 C419.596253,291 429,301.076738 429,313.491679 L429,313.491679 Z" id="Fill-9" stroke="#66320F" stroke-width="10" fill="#3B2519" stroke-linejoin="round"></path>
                <path d="M406,305.497799 C406,309.09448 402.870979,312 398.99763,312 C395.129021,312 392,309.09448 392,305.497799 C392,301.90552 395.129021,299 398.99763,299 C402.870979,299 406,301.90552 406,305.497799 L406,305.497799 Z" id="Fill-10" stroke="none" fill="#FFFFFF"></path>
                <path d="M439.913718,257.691838 C429.807202,262.511141 413.5553,241.315288 376.344946,259.754896 C369.571154,263.105301 365.52768,231 405.394679,231 C439.913718,231 446.024433,254.774675 439.913718,257.691838 L439.913718,257.691838 Z" id="Fill-11" stroke="#66320F" stroke-width="10" fill="#8E462F" stroke-linejoin="round"></path>
                <path d="M345.913718,429.691838 C335.807202,434.511141 319.5553,413.315288 282.344946,431.754896 C275.571154,435.105301 271.52768,403 311.394679,403 C345.913718,403 352.024433,426.774675 345.913718,429.691838 L345.913718,429.691838 Z" id="Fill-11备份" stroke="#66320F" stroke-width="10" fill="#ED9292" stroke-linejoin="round" transform="translate(313.000000, 417.500000) scale(1, -1) translate(-313.000000, -417.500000) "></path>
            </g>
        </g>
    </g>
</svg>