<?xml version="1.0" encoding="UTF-8"?>
<svg width="1024px" height="1024px" viewBox="0 0 1024 1024" version="1.1" xmlns="http://www.w3.org/2000/svg" xmlns:xlink="http://www.w3.org/1999/xlink">
    <!-- Generator: Sketch 64 (93537) - https://sketch.com -->
    <title>线性男律师</title>
    <desc>Created with Sketch.</desc>
    <defs>
        <circle id="path-1" cx="512.5" cy="512.5" r="403.5"></circle>
    </defs>
    <g id="线性男律师" stroke="none" stroke-width="1" fill="none" fill-rule="evenodd">
        <mask id="mask-2" fill="white">
            <use xlink:href="#path-1"></use>
        </mask>
        <circle stroke="#66320F" stroke-width="10" cx="512.5" cy="512.5" r="398.5"></circle>
        <g id="lawyer" mask="url(#mask-2)">
            <g transform="translate(168.000000, 187.000000)">
                <path d="M619.745217,537.632887 L570.754792,525.448769 L560.909876,523 L129.695367,523.098548 L71.2547829,537.632887 C29.9658762,547.901292 1,584.806032 1,627.14435 L1,739.638405 C1,754.196635 12.8652322,766 27.4997691,766 L663.500231,766 C678.134768,766 690,754.196635 690,739.638405 L690,627.14435 C690,584.804538 661.034124,547.899799 619.745217,537.632887 L619.745217,537.632887 Z" id="Shape" stroke="#66320F" stroke-width="10" fill="#3A7ABC" stroke-linejoin="round"></path>
                <polygon id="Rectangle-path" stroke="#66320F" stroke-width="10" fill="#F2DED4" stroke-linejoin="round" points="239 423 452 423 452 582 239 582"></polygon>
                <path d="M246,423 L246,531.346978 C367.840174,547.780272 452,436.272929 452,436.272929 L452,423 L246,423 L246,423 Z" id="Shape" stroke="none" fill="#ECCAB8"></path>
                <rect id="Rectangle-path" stroke="none" fill="#F5FCFF" x="252" y="568" width="186" height="198"></rect>
                <path d="M238.942492,766 L172.621735,607.818318 L199.149737,581.454953 L146.093733,568.272524 L126.405462,529.138867 C122.796271,521.965284 126.417483,513.274558 134.076119,510.739016 L238.943995,476 L292,766" id="Shape" stroke="#66320F" stroke-width="10" fill="#254D8D" stroke-linejoin="round"></path>
                <path d="M451.057508,766 L517.378265,607.818318 L490.850263,581.454953 L543.906267,568.272524 L563.594538,529.138867 C567.203729,521.965284 563.582517,513.274558 555.923881,510.739016 L451.056005,476 L398,766" id="Shape" stroke="#66320F" stroke-width="10" fill="#254D8D" stroke-linejoin="round"></path>
                <polygon id="Shape" stroke="#66320F" stroke-width="10" fill="#6282E4" stroke-linejoin="round" points="327.096347 594 319 766 372 766 363.902152 594"></polygon>
                <path d="M502.571642,239.06404 L502.571642,146 L185.428358,146 L185.428358,239.06404 C170.349748,242.121963 159,255.437761 159,271.400269 L159,297.80009 C159,313.764093 170.349748,327.079891 185.428358,330.136319 L185.428358,354.412789 C185.428358,380.893357 197.658303,405.622908 218.018093,420.311407 L276.771228,462.697661 C288.7931,471.371994 302.919659,476 317.366563,476 L370.630444,476 C385.078844,476 399.205404,471.371994 411.228772,462.697661 L469.981907,420.311407 C490.341697,405.622908 502.571642,380.894852 502.571642,354.412789 L502.571642,330.136319 C517.650252,327.078395 529,313.762598 529,297.80009 L529,271.400269 C529,255.436266 517.650252,242.121963 502.571642,239.06404 L502.571642,239.06404 Z" id="Shape" stroke="#66320F" stroke-width="10" fill="#F2DED4" stroke-linejoin="round"></path>
                <path d="M319,567 L319,593.666163 C319,601.029377 324.93325,607 332.250375,607 L358.749625,607 C366.06675,607 372,601.029377 372,593.666163 L372,567 L319,567 L319,567 Z" id="Shape" stroke="#66320F" stroke-width="10" fill="#6ACAF1" stroke-linejoin="round"></path>
                <path d="M331.266867,0 C238.634183,0 225.4003,39.4502979 225.4003,39.4502979 C172.467766,39.4502979 146,52.6008938 146,105.200298 C146,140.540662 159.233883,249.849404 159.233883,249.849404 L185.70015,263 L210.36752,170.878795 C210.36752,170.878795 331.266867,210.399106 490.065967,210.399106 L503.29985,262.99851 L529.766117,249.847914 C529.766117,249.847914 543,170.947319 543,118.347914 C543,39.4502979 437.133433,0 331.266867,0 L331.266867,0 Z" id="Shape" stroke="#66320F" stroke-width="10" fill="#8E462F" stroke-linejoin="round"></path>
                <path d="M226.385077,39 C173.462691,39 147,52.1770852 147,104.882441 C147,140.293991 160.231346,249.822915 160.231346,249.822915 L186.692538,263 L211.355179,170.693234 C211.355179,170.693234 332.231346,210.293152 491,210.293152 C305.768654,170.764881 226.385077,78.529763 226.385077,39 L226.385077,39 Z" id="Shape" stroke="#66320F" stroke-width="10" fill="#7B351E" stroke-linejoin="round"></path>
                <path d="M345.000323,418 C328.840212,418 313.203914,414.745063 299.77843,408.599207 C293.115967,405.53993 290.163712,397.602796 293.186509,390.868443 C296.209307,384.13409 304.060476,381.140033 310.72594,384.200826 C330.755351,393.378658 359.246795,393.378658 379.276206,384.200826 C385.95818,381.1552 393.800344,384.135606 396.814136,390.868443 C399.835433,397.60128 396.884678,405.53993 390.222216,408.599207 C376.792229,414.745063 361.15443,418 345.000323,418 L345.000323,418 Z" id="Shape" stroke="none" fill="#EB7480"></path>
                <path d="M279,304 L279,304 C271.850589,304 266,298.000906 266,290.666667 L266,277.333333 C266,270.000604 271.849116,264 279,264 L279,264 C286.149411,264 292,269.999094 292,277.333333 L292,290.666667 C292,298.000906 286.149411,304 279,304 L279,304 Z" id="Shape" stroke="none" fill="#7B351E"></path>
                <path d="M411,304 L411,304 C403.850589,304 398,298.000906 398,290.666667 L398,277.333333 C398,270.000604 403.849116,264 411,264 L411,264 C418.149411,264 424,269.999094 424,277.333333 L424,290.666667 C424,298.000906 418.149411,304 411,304 L411,304 Z" id="Shape" stroke="none" fill="#7B351E"></path>
                <path d="M238.99878,463 L345,568.845687 C345,568.845687 292.00014,582.077148 252.249495,634.999991 C252.222477,635.034464 214.661773,531.819181 202.796469,499.209657 C200.711597,493.476723 202.824987,487.079819 207.905829,483.697014 L238.99878,463 L238.99878,463 Z" id="Shape" stroke="#66320F" stroke-width="10" fill="#FFFFFF" stroke-linejoin="round"></path>
                <path d="M451.00122,463 L345,568.845687 C345,568.845687 397.99986,582.077148 437.750505,634.999991 C437.777523,635.034464 475.338227,531.819181 487.203531,499.209657 C489.288403,493.476723 487.175013,487.079819 482.094171,483.697014 L451.00122,463 L451.00122,463 Z" id="Shape" stroke="#66320F" stroke-width="10" fill="#FFFFFF" stroke-linejoin="round"></path>
                <path d="M24.082167,566 C9.11841708,582.475676 0,603.976514 0,627.330848 L0,739.673812 C0,754.213979 11.9383748,766 26.6664988,766 L120,766 L120,693.408015 C120,672.461883 111.571846,652.373159 96.5688249,637.561603 L24.082167,566 L24.082167,566 Z" id="Shape" stroke="none" fill="#66320F"></path>
                <path d="M665.917833,566 C680.881583,582.475676 690,603.976514 690,627.330848 L690,739.673812 C690,754.213979 678.061625,766 663.333501,766 L570,766 L570,693.408015 C570,672.461883 578.428154,652.373159 593.431175,637.561603 L665.917833,566 L665.917833,566 Z" id="Shape" stroke="none" fill="#66320F"></path>
            </g>
        </g>
    </g>
</svg>