<?xml version="1.0" encoding="UTF-8"?>
<svg width="1024px" height="1024px" viewBox="0 0 1024 1024" version="1.1" xmlns="http://www.w3.org/2000/svg" xmlns:xlink="http://www.w3.org/1999/xlink">
    <!-- Generator: Sketch 64 (93537) - https://sketch.com -->
    <title>线性小偷</title>
    <desc>Created with Sketch.</desc>
    <defs>
        <circle id="path-1" cx="512.5" cy="512.5" r="403.5"></circle>
    </defs>
    <g id="线性小偷" stroke="none" stroke-width="1" fill="none" fill-rule="evenodd">
        <mask id="mask-2" fill="white">
            <use xlink:href="#path-1"></use>
        </mask>
        <circle stroke="#66320F" stroke-width="10" cx="512.5" cy="512.5" r="398.5"></circle>
        <g id="criminal" mask="url(#mask-2)">
            <g transform="translate(193.000000, 204.000000)" id="Shape">
                <path d="M443.192094,368 L320.5,368 L197.807906,368 C185.538141,368 161,380.35769 161,404.875348 C161,480.402767 320.5,589.249304 320.5,663 C320.5,589.249304 480,480.402767 480,404.875348 C480,380.35769 455.460469,368 443.192094,368 L443.192094,368 Z" stroke="#66320F" stroke-width="10" fill="#4646A0" stroke-linejoin="round"></path>
                <path d="M172,452.608179 C195.786348,510.882604 253.04684,552 319.999304,552 C386.951767,552 444.212259,510.882604 468,452.608179 L437.60935,445.868761 C426.358918,443.374482 418.354928,433.418208 418.354928,421.919511 L418.354928,368 L221.643679,368 L221.643679,421.919511 C221.643679,433.419597 213.639689,443.373092 202.389257,445.868761 L172,452.608179 L172,452.608179 Z" stroke="#66320F" stroke-width="10" fill="#F2DED4" stroke-linejoin="round"></path>
                <path d="M208.67121,447.33551 L180.803553,454.224488 L180,455.789083 C180.020055,455.841137 180.042785,455.893191 180.06284,455.945245 C321.631286,521.452997 416,377.129511 416,377.129511 L416,364 L227.155611,364 L227.155611,421.702624 C227.155611,434.011168 219.473053,444.665882 208.67121,447.33551 L208.67121,447.33551 Z" stroke="none" fill="#ECCAB8"></path>
                <path d="M148,233 L148,263.629813 C148,278.444469 158.552198,290.801579 172.57123,293.637955 L172.57123,316.166611 C172.57123,340.740678 183.941773,363.689794 202.870875,377.320776 L257.495412,416.655379 C268.672503,424.705193 281.806386,429 295.240885,429 L344.761899,429 C358.195006,429 371.328888,424.705193 382.504588,416.655379 L437.129125,377.320776 C456.058227,363.689794 467.42877,340.742065 467.42877,316.166611 L467.42877,293.637955 C481.447802,290.800191 492,278.443081 492,263.629813 L492,233 L148,233 L148,233 Z" stroke="#66320F" stroke-width="10" fill="#F2DED4" stroke-linejoin="round"></path>
                <path d="M466.990253,270 L454.70404,270 C446.966678,270 439.679048,273.647169 435.036909,279.847076 L412.917827,309.381334 C408.274296,315.579847 400.989451,319.22841 393.250696,319.22841 L245.757658,319.22841 C238.020295,319.22841 230.734059,315.581241 226.09192,309.382728 L203.967268,279.845682 C199.323736,273.647169 192.038892,270 184.301529,270 L172.009747,270 L172,316.636634 C172,341.326124 183.375608,364.383033 202.31314,378.078039 L256.962005,417.597396 C268.144074,425.683626 281.283806,430 294.724288,430 L344.293812,430 C357.73151,430 370.868457,425.68502 382.049134,417.597396 L436.689645,378.078039 C455.625785,364.383033 467,341.326124 467,316.636634 L466.990253,270 L466.990253,270 Z" stroke="#66320F" stroke-width="10" fill="#5B5D6E" opacity="0.819033668" stroke-linejoin="round"></path>
                <path d="M258.5,270 L258.5,270 C251.625566,270 246,264.450838 246,257.666667 L246,245.333333 C246,238.550559 251.62415,233 258.5,233 L258.5,233 C265.374434,233 271,238.549162 271,245.333333 L271,257.666667 C271,264.450838 265.37585,270 258.5,270 L258.5,270 Z" stroke="#66320F" stroke-width="10" fill="#464655" stroke-linejoin="round"></path>
                <path d="M381.5,270 L381.5,270 C374.625566,270 369,264.450838 369,257.666667 L369,245.333333 C369,238.550559 374.62415,233 381.5,233 L381.5,233 C388.374434,233 394,238.549162 394,245.333333 L394,257.666667 C394,264.450838 388.374434,270 381.5,270 L381.5,270 Z" stroke="#66320F" stroke-width="10" fill="#464655" stroke-linejoin="round"></path>
                <path d="M160.286261,196 L479.713739,196 C486.498461,196 492,201.485458 492,208.250347 L492,232.749653 C492,239.514542 486.498461,245 479.713739,245 L160.286261,245 C153.501539,245 148,239.514542 148,232.749653 L148,208.250347 C148.001392,201.485458 153.501539,196 160.286261,196 L160.286261,196 Z" stroke="#66320F" stroke-width="10" fill="#464655" stroke-linejoin="round"></path>
                <path d="M480,196 L161,196 L161,159.249566 C161,71.2985889 232.41009,0 320.5,0 L320.5,0 C408.58991,0 480,71.2985889 480,159.250954 L480,196 L480,196 Z" stroke="#66320F" stroke-width="10" fill="#5B5D6E" stroke-linejoin="round"></path>
                <path d="M574.84214,474.681168 L489.950527,453.473977 L480.249304,405 C480.249304,418.678603 474.870408,433.477036 466.271692,448.936236 C427.448705,518.755123 320.498608,602.55587 320.498608,662.880556 C320.498608,602.557261 213.548511,518.755123 174.726916,448.937627 C166.129592,433.478427 160.749304,418.679995 160.749304,405.001391 L151.048081,453.475368 L66.1564677,474.682559 C27.8638532,484.249096 1,518.631315 1,558.075717 L1,687.440278 C1,701.003421 12.0041849,712 25.5767089,712 L615.423291,712 C628.995815,712 640,701.003421 640,687.440278 L640,558.075717 C639.998608,518.629924 613.134755,484.247705 574.84214,474.681168 L574.84214,474.681168 Z" stroke="#66320F" stroke-width="10" fill="#617BCA" stroke-linejoin="round"></path>
                <path d="M89.3275602,567.715648 L22.2760044,501 C8.4345358,516.359988 0,536.404849 0,558.177691 L0,687.456549 C0,701.010706 11.0443938,712 24.6665114,712 L111,712 L111,619.780294 C111.001397,600.252576 103.205354,581.524206 89.3275602,567.715648 L89.3275602,567.715648 Z" stroke="#66320F" stroke-width="10" fill="#6DAEF2" stroke-linejoin="round"></path>
                <path d="M550.673837,567.715648 L617.723996,501 C631.565464,516.359988 640,536.404849 640,558.177691 L640,687.456549 C640,701.010706 628.955606,712 615.333489,712 L529,712 L529,619.780294 C529,600.252576 536.796043,581.524206 550.673837,567.715648 L550.673837,567.715648 Z" stroke="#66320F" stroke-width="10" fill="#6DAEF2" stroke-linejoin="round"></path>
            </g>
        </g>
    </g>
</svg>