<?xml version="1.0" encoding="UTF-8"?>
<svg width="1024px" height="1024px" viewBox="0 0 1024 1024" version="1.1" xmlns="http://www.w3.org/2000/svg" xmlns:xlink="http://www.w3.org/1999/xlink">
    <!-- Generator: Sketch 64 (93537) - https://sketch.com -->
    <title>线性长发女生</title>
    <desc>Created with Sketch.</desc>
    <defs>
        <circle id="path-1" cx="512.5" cy="512.5" r="403.5"></circle>
    </defs>
    <g id="线性长发女生" stroke="none" stroke-width="1" fill="none" fill-rule="evenodd">
        <mask id="mask-2" fill="white">
            <use xlink:href="#path-1"></use>
        </mask>
        <circle stroke="#66320F" stroke-width="10" cx="512.5" cy="512.5" r="398.5"></circle>
        <g id="编组" mask="url(#mask-2)" stroke="#66320F" stroke-linejoin="round" stroke-width="10">
            <g transform="translate(239.000000, 207.000000)">
                <path d="M273.57529,0 L273.428571,0 C177.679537,0 98.4324324,74.5429302 92.4594595,170.219823 L69,546 L478,546 L454.540541,170.219823 C448.571429,74.5429302 369.324324,0 273.57529,0 L273.57529,0 Z" id="Shape" fill="#532B51"></path>
                <path d="M273.001933,409 L66.4287565,486.407467 C26.4725398,501.379838 0,539.552432 0,582.194331 L0,750 L546,750 L546,582.194331 C546,539.552432 519.52746,501.383701 479.571243,486.407467 L273.001933,409 L273.001933,409 Z" id="Shape" fill="#F87884"></path>
                <path d="M102,641.627434 C102,623.501475 94.836159,606.12254 82.0799003,593.307026 L16.0993845,527 C5.92750066,543.078418 0,561.920436 0,581.85783 L0,750 L102,750 L102,641.627434 L102,641.627434 L102,641.627434 Z" id="Shape" fill="#E85757"></path>
                <path d="M444,641.627434 C444,623.501475 451.163841,606.12254 463.9201,593.307026 L529.900615,527 C540.072499,543.078418 546,561.920436 546,581.85783 L546,750 L444,750 L444,641.627434 L444,641.627434 Z" id="Shape" fill="#E85757"></path>
                <path d="M339.5625,434.564649 L339.5625,341 L203.4375,341 L203.4375,434.564649 L123,464.723793 L223.37243,565.07184 C249.949766,591.64272 293.046379,591.64272 319.62757,565.07184 L420,464.723793 L339.5625,434.564649 L339.5625,434.564649 Z" id="Shape" fill="#ECCAB8"></path>
                <path d="M137,171 L137,305.16845 C137,327.99979 147.526913,349.318839 165.055015,361.985727 L215.629041,398.532115 C225.978121,406.00848 238.14032,410 250.573134,410 L296.426866,410 C308.867412,410 321.021879,406.00848 331.370959,398.532115 L381.944985,361.985727 C399.473087,349.322706 410,327.99979 410,305.16845 L410,273.429677 C375.887081,171 137,171 137,171 L137,171 Z" id="Shape" fill="#F2DED4"></path>
                <path d="M202.5,269 L202.5,269 C194.525657,269 188,262.550974 188,254.666667 L188,240.333333 C188,232.450649 194.524014,226 202.5,226 L202.5,226 C210.474343,226 217,232.449026 217,240.333333 L217,254.666667 C217,262.549351 210.474343,269 202.5,269 L202.5,269 Z" id="Shape" fill="#7B351E"></path>
                <path d="M341.5,269 L341.5,269 C333.525657,269 327,262.550974 327,254.666667 L327,240.333333 C327,232.450649 333.524014,226 341.5,226 L341.5,226 C349.474343,226 356,232.449026 356,240.333333 L356,254.666667 C356,262.549351 349.474343,269 341.5,269 L341.5,269 Z" id="Shape备份" fill="#7B351E"></path>
                <path d="M273.501677,357 C262.998992,357 252.824577,354.862077 244.06485,350.816361 C239.727974,348.806953 237.806227,343.593648 239.769985,339.170359 C241.740581,334.756036 246.836582,332.7805 251.191043,334.790904 C264.271038,340.846029 282.76651,340.837062 295.813287,334.79987 C300.158956,332.763563 305.271565,334.757032 307.225553,339.171355 C309.196149,343.593648 307.276356,348.807949 302.938503,350.808391 C294.195385,354.861081 284.012177,357 273.501677,357 L273.501677,357 Z" id="Shape" fill="#EB7480"></path>
            </g>
        </g>
    </g>
</svg>