<?xml version="1.0" encoding="UTF-8"?>
<svg width="1024px" height="1024px" viewBox="0 0 1024 1024" version="1.1" xmlns="http://www.w3.org/2000/svg" xmlns:xlink="http://www.w3.org/1999/xlink">
    <!-- Generator: Sketch 64 (93537) - https://sketch.com -->
    <title>线性犯人</title>
    <desc>Created with Sketch.</desc>
    <defs>
        <circle id="path-1" cx="512.5" cy="512.5" r="403.5"></circle>
    </defs>
    <g id="线性犯人" stroke="none" stroke-width="1" fill="none" fill-rule="evenodd">
        <mask id="mask-2" fill="white">
            <use xlink:href="#path-1"></use>
        </mask>
        <circle stroke="#66320F" stroke-width="10" cx="512.5" cy="512.5" r="398.5"></circle>
        <g id="prisoner" mask="url(#mask-2)">
            <g transform="translate(181.000000, 214.000000)">
                <path d="M427.192972,424 L233.808468,424 L233.808468,436.696511 C233.808468,443.812403 231.331388,450.451667 227.112666,455.697772 C222.896953,460.940136 216.94185,464.791209 209.982778,466.334125 L70.7607266,497.19603 C51.5482935,501.455033 35.1065938,512.082935 23.4684994,526.5551 C11.8336529,541.023225 5,559.333535 5,578.961061 L5,710.64046 C5,716.261639 7.28462675,721.349604 10.9768393,725.03267 C14.6737441,728.720416 19.7813835,731 25.422523,731 L635.577477,731 C641.218888,731 646.326286,728.720385 650.022993,725.032837 C653.715403,721.349574 656,716.261369 656,710.64046 L656,578.961061 C656,559.333346 649.166223,541.022532 637.531181,526.554164 C625.893148,512.082075 609.451638,501.45434 590.239412,497.196061 L451.017403,466.334165 C444.058506,464.791097 438.103564,460.940129 433.887998,455.69757 C429.669873,450.451827 427.192972,443.812905 427.192972,436.696511 L427.192972,424 Z" id="Shape" stroke="#66320F" stroke-width="10" fill="#7799FF"></path>
                <path d="M572.42912,590.217568 C559.338989,603.572257 552,621.569322 552,640.32449 L552,731 L635.665869,731 C641.278835,731.000579 646.358064,728.712593 650.035097,725.016831 C653.722057,721.311091 656,716.19078 656,710.536829 L656,578.310395 C656,572.224344 655.601562,566.093241 652.229487,562.233445 C649.869625,559.532264 645.943147,558.449334 640.170446,558.952406 C627.137969,560.088145 606.170067,568.934216 572.42912,590.217568 Z" id="Shape" stroke="#66320F" stroke-width="10" fill="#FFFFFF"></path>
                <path d="M25.0412088,525.343518 C13.1600487,539.92794 6,558.358176 6,578.310395 L6,710.536829 C6,716.190472 8.27839394,721.310463 11.9652745,725.016123 C15.642621,728.7122 20.7220096,731.000579 26.3336151,731 L110,731 L110,640.32449 C110,621.387862 102.518311,603.224076 89.1951877,589.831574 L25.0412088,525.343518 Z" id="Shape" stroke="#66320F" stroke-width="10" fill="#FFFFFF"></path>
                <path d="M427.846118,386 L235.155318,386 L235.155318,436.678397 C235.155318,443.788013 232.686623,450.419475 228.482976,455.659186 C224.279229,460.89902 218.340356,464.747107 211.399839,466.289354 L185.973834,471.939544 C198.283429,499.198464 218.006275,522.390306 242.576662,538.926208 C267.979312,556.022223 298.565689,566 331.5,566 C364.434507,566 395.021389,556.022108 420.424308,538.925912 C444.994668,522.390028 464.717382,499.198292 477.026306,471.939515 L451.601495,466.289331 C444.661486,464.747198 438.722823,460.898712 434.519096,455.658903 C430.314973,450.418599 427.846118,443.786712 427.846118,436.678397 L427.846118,386 Z" id="Shape" stroke="#66320F" stroke-width="10" fill="#FDDCCC"></path>
                <path d="M221.2792,468.922892 L192.820708,476.192256 L192,477.841673 C192.020484,477.896602 192.043698,477.94996 192.064182,478.006458 C336.631681,547.120342 433,394.85134 433,394.85134 L433,381 L240.155482,381 L240.155482,441.879352 C240.155482,454.864395 232.308914,466.105857 221.2792,468.922892 L221.2792,468.922892 Z" id="Shape" stroke="none" fill="#F0D0C0"></path>
                <path d="M656,665 L5.00073722,665 L5.00471791,691.999986 L656,691.995138 L656,665 Z M657,589 L6,589 L6,616 L657,616 L657,589 Z M39.3031276,514 C29.5490326,521.262958 21.5564565,530.453569 15.9046994,541 L227.757636,541 C217.25466,533.10017 207.730288,524.042457 199.39295,514 L39.3031276,514 Z M462.606637,514.000001 C454.268528,524.042466 444.744628,533.100174 434.242036,541 L646.094976,541 C640.442978,530.454164 632.449855,521.262995 622.696895,514 L462.606649,514 Z" id="形状结合" stroke="#66320F" stroke-width="10" fill="#FFFFFF"></path>
                <path d="M622.18397,541 L647.136267,541 C644.339282,535.731178 640.960063,530.810928 637.12402,526.254726 L622.18397,541 Z" id="Shape" stroke="#66320F" stroke-width="10" fill="#7799FF"></path>
                <path d="M656,589 L573.999352,589 L572.361418,590.588242 C564.890654,597.832361 559.308351,606.537581 555.815409,616 L656,616 L656,589 Z" id="Shape" stroke="#66320F" stroke-width="10" fill="#7799FF"></path>
                <polygon id="Rectangle-path" stroke="none" fill="#5B5D6E" points="547 660 661 660 661 697 547 697"></polygon>
                <path d="M24.8759797,526.254726 C21.0399365,530.810928 17.6607176,535.731178 14.8637333,541 L39.8160297,541 L24.8759797,526.254726 Z" id="Shape" stroke="#66320F" stroke-width="10" fill="#7799FF"></path>
                <path d="M88.0006485,589 L6,589 L6,616 L106.184591,616 C102.691649,606.537581 97.1093463,597.832361 89.638582,590.588242 L88.0006485,589 Z" id="Shape" stroke="#66320F" stroke-width="10" fill="#7799FF"></path>
                <polygon id="Rectangle-path" stroke="none" fill="#5B5D6E" points="1 660 115 660 115 697 1 697"></polygon>
                <path d="M489.333125,157 L169.688422,157 L169.688422,212.028069 C162.137438,216.778226 157,225.112767 157,234.731664 L157,260.184899 C157,266.612758 159.251182,272.512638 163.008124,277.131832 C167.63925,282.82584 174.554737,286.579109 182.356732,286.965201 L182.356732,314.769773 C182.356732,338.650163 193.270784,360.997756 211.560872,374.258211 L267.931132,415.125807 C278.596834,422.857538 291.125891,427 303.947906,427 L355.052093,427 C367.873964,427 380.402933,422.85904 391.068721,415.125914 L447.439188,374.258168 C465.729368,360.998996 476.643267,338.650063 476.643267,314.769773 L476.643267,286.964652 C484.445946,286.579535 491.361179,282.827049 495.991996,277.133421 C499.74905,272.51409 502,266.613628 502,260.184899 L502,234.731664 C502.001331,225.121914 496.874006,216.797567 489.333125,212.042282 L489.333125,157 Z" id="Shape" stroke="#66320F" stroke-width="10" fill="#FDDCCC"></path>
                <path d="M266.744495,234.003721 C264.579314,234.066898 262.613806,234.933957 261.191746,236.316144 C259.855881,237.614552 259,239.378677 259,241.333333 L259,253.666667 C259,255.654665 259.885177,257.445082 261.260218,258.749608 C262.749994,260.162985 264.817102,260.986064 267.253689,260.996322 C269.419718,260.933529 271.385844,260.066383 272.808254,258.683856 C274.144119,257.385448 275,255.621323 275,253.666667 L275,241.333333 C275,239.346738 274.111952,237.558306 272.709634,236.259711 C271.192351,234.854655 269.085709,234.015934 266.744495,234.003721 Z" id="Shape" stroke="#66320F" stroke-width="10" fill="#FDDCCC"></path>
                <path d="M394.744495,234.003721 C392.579314,234.066898 390.613806,234.933957 389.191746,236.316144 C387.855881,237.614552 387,239.378677 387,241.333333 L387,253.666667 C387,255.654665 387.885177,257.445082 389.260218,258.749608 C390.749994,260.162985 392.817102,260.986064 395.253689,260.996322 C397.419718,260.933529 399.385844,260.066383 400.808254,258.683856 C402.144119,257.385448 403,255.621323 403,253.666667 L403,241.333333 C403,239.346738 402.111952,237.558306 400.709634,236.259711 C399.192351,234.854655 397.085709,234.015934 394.744495,234.003721 Z" id="Shape" stroke="#66320F" stroke-width="10" fill="#FDDCCC"></path>
                <path d="M355.166909,347 L303.833091,347 C301.677049,347 299.727775,347.889439 298.315853,349.319724 C296.881354,350.772881 296,352.782313 296,355 C296,357.217687 296.881354,359.227119 298.315853,360.680276 C299.727775,362.110561 301.677049,363 303.833091,363 L355.166909,363 C357.322951,363 359.272225,362.110561 360.684147,360.680276 C362.118646,359.227119 363,357.217687 363,355 C363,352.782313 362.118646,350.772881 360.684147,349.319724 C359.272225,347.889439 357.322951,347 355.166909,347 Z" id="Shape" stroke="#66320F" stroke-width="10" fill="#F26D6D"></path>
                <path d="M330.999281,5 C268.780405,5 213.21352,13.5325019 175.813629,27.0177165 C174.369356,27.5384134 173.190034,28.5005661 172.363002,29.7076852 C171.485756,30.9880949 171,32.5416808 171,34.1625086 L171,185 L491,185 L491,34.1639428 C491,32.5433035 490.513688,30.9897637 489.63645,29.7093653 C488.809304,28.5020801 487.630209,27.5395753 486.186884,27.0193356 C448.786356,13.5324728 393.218097,5 330.999281,5 Z" id="Shape" stroke="#66320F" stroke-width="10" fill="#1C75BC"></path>
                <rect id="Rectangle-path" stroke="#66320F" stroke-width="10" fill="#FFFFFF" x="171" y="120" width="320" height="27"></rect>
                <path d="M491,44 L171,44 L171,71 L491,71 L491,44 Z" id="Rectangle-path" stroke="#66320F" stroke-width="10" fill="#FFFFFF"></path>
            </g>
        </g>
    </g>
</svg>