<?xml version="1.0" encoding="UTF-8"?>
<svg width="1024px" height="1024px" viewBox="0 0 1024 1024" version="1.1" xmlns="http://www.w3.org/2000/svg" xmlns:xlink="http://www.w3.org/1999/xlink">
    <!-- Generator: Sketch 64 (93537) - https://sketch.com -->
    <title>线性背带裤男孩</title>
    <desc>Created with Sketch.</desc>
    <defs>
        <circle id="path-1" cx="512.5" cy="512.5" r="403.5"></circle>
        <polygon id="path-3" points="0.0616766467 0.925250518 514.245489 0.925250518 514.245489 496 0.0616766467 496"></polygon>
    </defs>
    <g id="线性背带裤男孩" stroke="none" stroke-width="1" fill="none" fill-rule="evenodd">
        <mask id="mask-2" fill="white">
            <use xlink:href="#path-1"></use>
        </mask>
        <circle stroke="#66320F" stroke-width="10" cx="512.5" cy="512.5" r="398.5"></circle>
        <g id="BARISTA" mask="url(#mask-2)">
            <g transform="translate(255.000000, 240.000000)">
                <path d="M118.875367,291 L174.215909,291 L174.215909,93.8571429 C174.215909,75.7117857 159.500073,61 141.340543,61 L118.875367,61 C100.719945,61 86,75.7117857 86,93.8571429 L86,258.142857 C86,276.288214 100.719945,291 118.875367,291 Z M396.124633,61.0841964 L373.659457,61.0841964 C355.504036,61.0841964 340.784091,75.7959821 340.784091,93.9413393 L340.784091,122.55067 C376.364483,148.998616 399.41217,191.337098 399.41217,239.059018 L399.41217,290.915804 C416.026558,289.266786 429,275.261429 429,258.227054 L429,93.9413393 C429,75.7959821 414.280055,61.0841964 396.124633,61.0841964 Z" id="Fill-1" stroke="#66320F" stroke-width="10" fill="#8C4C17" stroke-linejoin="round"></path>
                <path d="M355,250.998458 C355,267.791186 363.956641,283.305849 378.499486,291.704269 C393.043359,300.098577 410.960753,300.098577 425.499486,291.704269 C440.043359,283.305849 449,267.791186 449,250.998458 C449,234.208814 440.043359,218.690038 425.499486,210.295731 C410.960753,201.901423 393.043359,201.901423 378.499486,210.295731 C363.956641,218.690038 355,234.208814 355,250.998458 Z" id="Fill-2" stroke="#66320F" stroke-width="10" fill="#ECCAB8" stroke-linejoin="round"></path>
                <g id="编组" stroke="none" stroke-width="1" fill="none" transform="translate(0.000000, 203.000000)">
                    <mask id="mask-4" fill="white">
                        <use xlink:href="#path-3"></use>
                    </mask>
                    <g id="Clip-4"></g>
                    <path d="M59.3678842,47.8645135 C59.3678842,73.7900124 80.4047605,94.808911 106.356238,94.808911 C132.307715,94.808911 153.344591,73.7900124 153.344591,47.8645135 C153.344591,31.0960166 144.39017,15.5967867 129.8499,7.21305176 C115.31477,-1.17068323 97.4018164,-1.17068323 82.8615469,7.21305176 C68.3223054,15.5967867 59.3678842,31.0960166 59.3678842,47.8645135 Z" id="Fill-3" stroke="#66320F" stroke-width="10" fill="#ECCAB8" stroke-linejoin="round" mask="url(#mask-4)"></path>
                    <path d="M514.245489,496 L0,496 L0,427.265491 C0,341.055967 69.9567365,271.174393 156.247505,271.174393 L357.997984,271.174393 C444.292864,271.174393 514.245489,341.055967 514.245489,427.265491 L514.245489,496 Z" id="Fill-5" stroke="#66320F" stroke-width="10" fill="#F7B500" stroke-linejoin="round" mask="url(#mask-4)"></path>
                </g>
                <path d="M257.497938,569 C218.008661,569 186,537.119373 186,497.797228 L186,328 L329,328 L329,497.797228 C328.995875,537.119373 296.987214,569 257.497938,569 Z" id="Fill-7" stroke="#66320F" stroke-width="10" fill="#ECCAB8" stroke-linejoin="round"></path>
                <path d="M370.87195,636.626772 C354.880614,634.064131 343.993268,619.040439 346.554513,603.067051 L368.961295,463.299391 C369.820524,457.925647 374.882375,454.263411 380.262839,455.125838 L418.691791,461.273714 C424.072255,462.136141 427.737343,467.189555 426.874002,472.563299 L404.468248,612.330959 C401.905975,628.309481 386.863287,639.186334 370.87195,636.626772 Z M144.128804,636.626772 C160.119112,634.064131 171.007486,619.040439 168.446242,603.067051 L146.03946,463.299391 C145.18023,457.925647 140.117352,454.263411 134.737915,455.125838 L96.3079362,461.273714 C90.9284997,462.136141 87.2634117,467.189555 88.1257249,472.563299 L110.532507,612.330959 C113.093752,628.309481 128.133357,639.186334 144.128804,636.626772 Z" id="Fill-8" stroke="#66320F" stroke-width="10" fill="#4B75F3" stroke-linejoin="round"></path>
                <path d="M442,699 L73,699 L73,627.842537 C73,609.701141 87.7187858,595 105.872777,595 L409.127223,595 C427.281214,595 442,609.701141 442,627.842537 L442,699 Z" id="Fill-10" stroke="#66320F" stroke-width="10" fill="#6DAEF2" stroke-linejoin="round"></path>
                <path d="M257.5,418 C177.143092,418 112,353.047694 112,272.924316 L112,199.071579 C112,118.947174 177.143092,54 257.5,54 C337.856908,54 403,118.947174 403,199.071579 L403,272.924316 C403,353.047694 337.856908,418 257.5,418 Z" id="Fill-13" stroke="#66320F" stroke-width="10" fill="#F2DED4" stroke-linejoin="round"></path>
                <path d="M149.734187,201.089797 C158.107206,205.078185 171.571538,187.53679 202.399472,202.797155 C208.011406,205.569904 211.364922,179 178.332428,179 C149.734187,179 144.657236,198.675593 149.734187,201.089797 L149.734187,201.089797 Z" id="Fill-8" stroke="#66320F" stroke-width="10" fill="#A56021" stroke-linejoin="round"></path>
                <path d="M360.271366,201.089797 C351.897396,205.078185 338.431535,187.53679 307.600098,202.797155 C301.987527,205.569904 298.637221,179 331.669877,179 C360.271366,179 365.33453,198.675593 360.271366,201.089797 L360.271366,201.089797 Z" id="Fill-11" stroke="#66320F" stroke-width="10" fill="#A56021" stroke-linejoin="round"></path>
                <path d="M177.5,265 L177.5,265 C170.625566,265 165,259.300861 165,252.333333 L165,239.666667 C165,232.700574 170.62415,227 177.5,227 L177.5,227 C184.374434,227 190,232.699139 190,239.666667 L190,252.333333 C190,259.300861 184.374434,265 177.5,265 L177.5,265 Z" id="Shape" stroke="#66320F" stroke-width="10" fill="#54200F" stroke-linejoin="round"></path>
                <path d="M336.5,263 L336.5,263 C329.625566,263 324,257.300861 324,250.333333 L324,237.666667 C324,230.700574 329.62415,225 336.5,225 L336.5,225 C343.374434,225 349,230.699139 349,237.666667 L349,250.333333 C349,257.300861 343.374434,263 336.5,263 L336.5,263 Z" id="Shape" stroke="#66320F" stroke-width="10" fill="#54200F" stroke-linejoin="round"></path>
                <path d="M258.944682,361 C241.08043,361 219.577751,350.023861 222.221956,341.823541 C227.73248,324.744839 236.024709,345.107907 256.998547,345.107907 C277.45412,345.107907 286.222306,324.744839 291.73283,341.823541 C294.387612,350.023861 276.808934,361 258.944682,361" id="Fill-28" stroke="#66320F" stroke-width="10" fill="#E7645B" stroke-linejoin="round"></path>
                <path d="M396,131 L111.648199,131 C79.8078634,131 54,105.324147 54,73.6489673 L54,18.0256344 C54,8.06806135 62.1108957,0 72.1149171,0 L325.17507,0 C364.29349,0 396,31.5471645 396,70.4598402 L396,131 Z" id="Fill-15" stroke="#66320F" stroke-width="10" fill="#A56021" stroke-linejoin="round"></path>
                <path d="M401.998437,690 C396.476275,690 392,685.56276 392,680.088752 L392,623.911248 C392,618.43724 396.476275,614 401.998437,614 C407.5206,614 412,618.43724 412,623.911248 L412,680.088752 C412,685.56276 407.5206,690 401.998437,690 Z" id="Fill-18" stroke="#66320F" stroke-width="10" fill="#FFFFFF" stroke-linejoin="round"></path>
                <path d="M144,646.998471 C144,660.806122 155.192174,672 169,672 C182.807826,672 194,660.806122 194,646.998471 C194,633.193878 182.807826,622 169,622 C155.192174,622 144,633.193878 144,646.998471 Z" id="Fill-20" stroke="#66320F" stroke-width="10" fill="#FFFFFF" stroke-linejoin="round"></path>
            </g>
        </g>
    </g>
</svg>