<?xml version="1.0" encoding="UTF-8"?>
<svg width="1024px" height="1024px" viewBox="0 0 1024 1024" version="1.1" xmlns="http://www.w3.org/2000/svg" xmlns:xlink="http://www.w3.org/1999/xlink">
    <!-- Generator: Sketch 64 (93537) - https://sketch.com -->
    <title>线性黑种人</title>
    <desc>Created with Sketch.</desc>
    <defs>
        <circle id="path-1" cx="512.5" cy="512.5" r="403.5"></circle>
    </defs>
    <g id="线性黑种人" stroke="none" stroke-width="1" fill="none" fill-rule="evenodd">
        <mask id="mask-2" fill="white">
            <use xlink:href="#path-1"></use>
        </mask>
        <circle stroke="#66320F" stroke-width="10" cx="512.5" cy="512.5" r="398.5"></circle>
        <g id="boy_2" mask="url(#mask-2)">
            <g transform="translate(266.000000, 218.000000)" id="boy">
                <g>
                    <path d="M302.823471,743.413211 L296.23486,750.005177 L276.476948,769.773151 C272.842125,773.417747 266.942468,773.417747 263.299726,769.773151 C259.664904,766.136477 259.664904,760.233816 263.299726,756.597142 L281.220431,738.667312 C282.241982,737.645241 282.241982,735.997249 281.220431,734.983101 L263.299726,717.053271 C259.664904,713.416598 259.664904,707.513936 263.299726,703.869339 C266.942468,700.232666 272.842125,700.232666 276.476948,703.869339 L296.23486,723.645237 L302.823471,730.229279 C306.458293,733.873876 306.458293,739.776537 302.823471,743.413211 M261.066568,618.363938 C261.019054,618.39563 260.987378,618.459014 260.939864,618.49863 C258.120698,620.392235 258.595839,620.051545 261.066568,618.363938 M220.964736,711.784452 L238.88544,729.714282 C242.520262,733.358878 242.520262,739.26154 238.88544,742.898213 C235.242698,746.534887 229.35096,746.534887 225.708219,742.898213 L205.950306,723.130239 L199.361695,716.538274 C195.726873,712.893677 195.726873,706.998939 199.361695,703.354342 L205.950306,696.762376 L225.708219,676.994402 C229.35096,673.357729 235.242698,673.357729 238.88544,676.994402 C242.520262,680.631076 242.520262,686.533737 238.88544,690.178334 L220.964736,708.108164 C219.951103,709.122312 219.951103,710.770304 220.964736,711.784452 M315.446362,509.469735 C323.618773,520.506524 328.370175,534.43522 328.370175,551.342979 C328.370175,577.75838 309.847627,595.664441 295.712206,605.489005 C291.127103,608.674065 285.441259,607.683686 281.901465,604.19755 C280.254312,602.573328 279.026867,600.4658 278.662593,597.898737 C277.387633,588.795169 274.774362,578.20207 269.579496,572.014179 C269.302331,571.681411 269.033085,571.324875 268.732163,571.015876 L268.75592,571.150568 L268.557945,570.84157 C257.027876,572.077563 246.709415,571.404105 228.741197,571.760642 C228.828306,571.396182 228.883739,571.150568 228.883739,571.150568 L228.456113,570.817801 C228.020568,571.776488 227.474156,572.687637 226.848555,573.551248 C222.889054,579.026066 220.505434,587.448253 219.064175,595.434673 C218.216842,600.117187 215.270973,603.635015 211.572798,605.63162 C206.900586,608.159068 201.000929,608.214529 196.281203,604.514471 C183.088144,594.182833 168.437988,577.417689 168.437988,553.917965 C168.437988,536.05152 173.74372,521.520672 182.795141,510.2145 C101.411546,532.969459 42.8742748,595.466365 42.8742748,669.182289 L42.8742748,709.946308 L108.578244,709.946308 L133.008368,709.946308 L133.008368,747.961033 L132.335253,747.961033 L232.122611,843.275153 C242.480667,853.163102 258.762138,853.202717 269.159789,843.362306 L370.024131,747.961033 L370.024131,709.946308 L457.97258,709.946308 L457.97258,669.182289 C457.97258,594.681984 398.192026,531.606697 315.446362,509.469735" id="Fill-112" stroke="#66320F" stroke-width="10" fill="#4B75F3" stroke-linejoin="round"></path>
                    <path d="M133.005993,709.946308 L108.575868,709.946308 L42.8798181,709.946308 L42.8798181,728.066291 C42.8798181,739.055541 51.7807776,747.961033 62.7644349,747.961033 L132.332877,747.961033 L133.005993,747.961033 L133.005993,709.946308 Z" id="Fill-114" fill="#A4633D"></path>
                    <path d="M238.884648,690.175165 C242.51947,686.538491 242.51947,680.63583 238.884648,676.991233 C235.249826,673.35456 229.350168,673.35456 225.707427,676.991233 L205.949514,696.76713 L199.360903,703.359096 C195.726081,706.995769 195.726081,712.898431 199.360903,716.535104 L205.949514,723.12707 L225.707427,742.895044 C229.350168,746.539641 235.249826,746.539641 238.884648,742.895044 C242.51947,739.258371 242.51947,733.355709 238.884648,729.719036 L220.963944,711.789206 C219.950312,710.767134 219.950312,709.119143 220.963944,708.104994 L238.884648,690.175165 Z" id="Fill-116" fill="#FFFFFF"></path>
                    <path d="M296.236444,723.64286 L276.478531,703.874886 C272.83579,700.230289 266.936133,700.230289 263.30131,703.874886 C259.666488,707.511559 259.666488,713.414221 263.30131,717.050894 L281.222014,734.980724 C282.235647,735.994872 282.235647,737.650787 281.222014,738.664935 L263.30131,756.594765 C259.666488,760.231439 259.666488,766.1341 263.30131,769.770774 C266.936133,773.41537 272.83579,773.41537 276.478531,769.770774 L296.236444,750.0028 L302.825055,743.410834 C306.459877,739.77416 306.459877,733.871499 302.825055,730.234825 L296.236444,723.64286 Z" id="Fill-118" fill="#33393D"></path>
                    <path d="M268.584869,570.836024 C268.640302,570.891485 268.679897,570.962792 268.73533,571.018253 L268.711573,570.820177 C268.671978,570.820177 268.624464,570.8281 268.584869,570.836024" id="Fill-120" fill="#AEE1F9"></path>
                    <path d="M250.427387,508.450833 C253.650421,508.450833 256.849698,508.347833 260.033138,508.205218 L259.067019,501.264639 C256.184502,501.169563 253.34158,500.908103 250.427387,500.908103 C246.293667,500.908103 242.254976,501.217101 238.176689,501.407254 L237.29768,507.983373 C241.645212,508.26068 246.008583,508.450833 250.427387,508.450833" id="Fill-122" fill="#AEE1F9"></path>
                    <path d="M260.935904,618.496253 C260.983418,618.46456 261.015094,618.401176 261.070527,618.361561 C258.591879,620.057091 258.116739,620.389858 260.935904,618.496253" id="Fill-124" fill="#AEE1F9"></path>
                    <path d="M268.479546,570.712424 L268.558736,570.839193 L268.756712,571.148191 L268.732955,571.0135 C268.68544,570.958038 268.637926,570.886731 268.582493,570.839193 C268.550817,570.799578 268.519141,570.752039 268.479546,570.712424" id="Fill-126" fill="#D6EEF8"></path>
                    <path d="M315.444778,509.472112 C310.827999,503.244606 305.078803,497.98371 298.490193,493.594348 L298.490193,500.90731 L298.490193,504.734136 L298.490193,526.173871 C298.490193,545.672462 286.865096,563.190294 268.778093,571.065792 C269.055258,571.358944 269.316585,571.691711 269.585831,572.008633 C274.772778,578.196524 277.386049,588.797546 278.668928,597.901114 C279.025283,600.468177 280.252728,602.575705 281.899881,604.192004 C285.439675,607.67814 291.12552,608.668519 295.710622,605.491382 C309.846043,595.666817 328.368591,577.760757 328.368591,551.337433 C328.368591,534.429674 323.625108,520.508901 315.444778,509.472112" id="Fill-128" stroke="#66320F" stroke-width="10" fill="#FFFFFF" stroke-linejoin="round"></path>
                    <path d="M202.364581,526.173079 L202.364581,504.733344 L202.364581,500.906518 L202.364581,493.744094 C194.762338,498.157225 188.094538,503.584504 182.788806,510.216085 C173.737385,521.522257 168.439572,536.053104 168.439572,553.91955 C168.439572,577.419274 183.089728,594.184418 196.282787,604.516056 C201.002513,608.216114 206.90217,608.160653 211.566463,605.633204 C215.272556,603.628676 218.218426,600.118771 219.05784,595.436257 C220.499098,587.449837 222.890637,579.02765 226.850139,573.552832 C227.412388,572.768452 227.887528,571.936533 228.299317,571.080845 C212.421715,563.213271 202.364581,545.687516 202.364581,526.173079" id="Fill-130" stroke="#66320F" stroke-width="10" fill="#FFFFFF" stroke-linejoin="round"></path>
                    <path d="M272.659988,472.311982 C268.367888,472.900609 264.028275,473.304239 259.641147,473.548099 C256.584412,473.724687 253.527677,473.901275 250.423427,473.901275 C243.478462,473.901275 236.668119,473.363102 229.936966,472.513797 C227.996811,472.269937 226.064574,472.034487 224.140256,471.723355 C216.728069,470.512465 209.450505,468.864309 202.362998,466.703207 L202.362998,485.522455 L202.362998,493.132562 L202.362998,497.194088 L202.362998,519.948728 C202.362998,540.659992 212.420131,559.260607 228.305652,567.610702 C228.503627,567.720018 228.725359,567.795699 228.931253,567.896606 L240.492998,620.082599 C242.77367,630.391981 256.655683,630.181757 258.659191,619.813512 L268.75592,567.677973 L268.550026,567.677973 C268.621297,567.644338 268.700487,567.62752 268.779677,567.593884 C286.858761,559.23538 298.491776,540.643174 298.491776,519.948728 L298.491776,497.194088 L298.491776,493.132562 L298.491776,485.371094 L298.491776,466.703207 C290.12139,469.251121 281.489677,471.101092 272.659988,472.311982" id="Fill-132" stroke="#66320F" stroke-width="10" fill="#7A4E34" stroke-linejoin="round"></path>
                    <path d="M457.97654,709.946308 L369.917225,709.946308 L369.917225,747.961033 L438.43244,747.961033 C449.226041,747.961033 457.97654,739.206079 457.97654,728.406981 L457.97654,709.946308 Z" id="Fill-134" fill="#A4633D"></path>
                    <polygon id="Fill-136" fill="#D6EEF8" points="42.8814019 709.947892 133.007576 709.947892 133.007576 692.105216 42.8814019 692.105216"></polygon>
                    <polygon id="Fill-138" fill="#D6EEF8" points="369.912474 709.947892 457.971788 709.947892 457.971788 692.105216 369.912474 692.105216"></polygon>
                    <path d="M98.5559533,124.105954 C57.27419,85.4019246 152.056738,109.448338 214.648539,133.415521 C226.883399,138.105958 237.91457,142.788472 246.427498,147.003527 C298.502863,172.753393 364.634458,160.86884 394.457424,124.105954 C395.415623,122.925422 396.326308,122.014273 397.197399,121.261584 C404.482882,115.010309 408.965037,123.163113 412.591941,137.281963 C420.962327,169.877331 424.803044,234.15692 448.156184,226.138808 L448.156184,226.138808 L448.156184,290.473858 L448.100751,290.473858 C448.10867,290.996779 448.156184,291.511776 448.156184,292.042619 C448.156184,362.93002 384.653698,443.396371 298.487025,467.537861 C281.904632,472.188683 264.482826,474.779515 246.506688,474.779515 C231.333879,474.779515 216.580776,472.901756 202.366165,469.534466 C112.239991,448.2215 44.8571931,365.061317 44.8571931,292.042619 C44.8571931,291.511776 44.9047072,290.996779 44.9126262,290.473858 L44.9126262,290.473858 L44.8571931,290.473858 L44.8571931,221.115604 C45.3244143,231.875086 119.335417,193.773207 113.784196,151.075968 C112.628022,142.154629 108.074595,133.027292 98.5559533,124.105954 Z M246.506688,308.61761 C234.707374,308.61761 224.618564,312.34936 220.484844,325.129217 C218.505093,331.261646 222.092402,337.996227 227.42981,337.996227 L227.42981,337.996227 L265.591486,337.996227 C270.928894,337.996227 274.516202,331.261646 272.536452,325.129217 C268.402732,312.34936 258.306003,308.61761 246.506688,308.61761 Z M340.061791,241.98488 C331.984408,241.98488 325.443312,248.53723 325.443312,256.610804 C325.443312,264.684377 331.984408,271.236728 340.061791,271.236728 C348.131255,271.236728 354.672352,264.684377 354.672352,256.610804 C354.672352,248.53723 348.131255,241.98488 340.061791,241.98488 Z M153.608863,241.98488 C145.53148,241.98488 138.990383,248.53723 138.990383,256.610804 C138.990383,264.684377 145.53148,271.236728 153.608863,271.236728 C161.678327,271.236728 168.219424,264.684377 168.219424,256.610804 C168.219424,248.53723 161.678327,241.98488 153.608863,241.98488 Z M390.236595,232.176161 C373.424551,211.734729 347.957037,206.291604 310.048769,215.125789 C305.796265,216.108245 303.143399,220.378761 304.133274,224.641354 C305.115231,228.903948 309.40733,231.581934 313.636078,230.559862 C354.37143,221.091834 369.441293,231.835471 378.001735,242.24634 C379.569698,244.155791 381.834533,245.138248 384.123125,245.138248 C385.896981,245.138248 387.670838,244.54402 389.151692,243.331796 C392.525187,240.542887 393.008246,235.559298 390.236595,232.176161 Z M184.461299,215.125789 C146.553031,206.30745 121.085517,211.750575 104.273474,232.176161 C101.501822,235.559298 101.984882,240.542887 105.358377,243.331796 C106.839231,244.54402 108.613087,245.138248 110.386944,245.138248 C112.675536,245.138248 114.940371,244.155791 116.508333,242.24634 C125.068776,231.835471 140.114882,221.099757 180.873991,230.559862 C185.118576,231.574011 189.394838,228.903948 190.376794,224.641354 C191.36667,220.378761 188.713804,216.108245 184.461299,215.125789 Z" id="形状结合" stroke="#66320F" stroke-width="10" fill="#926245" stroke-linejoin="round"></path>
                    <path d="M251.111369,420 C231.715895,420 208.370129,408.179543 211.240981,399.348429 C217.223836,380.955981 226.226827,402.885439 248.998422,402.885439 C271.207331,402.885439 280.727075,380.955981 286.70993,399.348429 C289.592265,408.179543 270.506843,420 251.111369,420" id="Fill-28" stroke="#66320F" stroke-width="10" fill="#E7645B" stroke-linejoin="round"></path>
                    <path d="M491.812856,234.690933 C491.812856,210.676212 472.577598,191.185544 448.685965,190.726008 C449.826302,202.990867 449.937168,215.334957 448.155392,226.141977 L448.155392,278.68755 C472.292513,278.50532 491.812856,258.887884 491.812856,234.690933" id="Fill-141" stroke="#66320F" stroke-width="10" fill="#7A4E34" stroke-linejoin="round"></path>
                    <path d="M45.1137688,192.143439 C45.1375259,191.660134 45.1771209,191.176828 45.2087969,190.693523 C45.1058498,190.693523 45.0108218,190.677677 44.9078748,190.677677 C20.6202922,190.677677 0.925731464,210.382267 0.925731464,234.690141 C0.925731464,258.982168 20.5886162,278.670912 44.8603607,278.694681 L44.8603607,221.11798 C44.4248156,211.071571 44.5277626,201.421314 45.1137688,192.143439" id="Fill-142" stroke="#66320F" stroke-width="10" fill="#7A4E34" stroke-linejoin="round"></path>
                    <path d="M110.386152,245.135079 C112.674744,245.135079 114.939579,244.152622 116.507541,242.251094 C125.067984,231.832302 140.11409,221.104511 180.873199,230.556693 C185.125703,231.570841 189.401965,228.900778 190.383921,224.638185 C191.373797,220.375592 188.720931,216.112999 184.460507,215.130542 C146.552239,206.312204 121.092644,211.747406 104.280601,232.172992 C101.501031,235.556128 101.98409,240.547641 105.357585,243.328626 C106.838439,244.548774 108.612295,245.135079 110.386152,245.135079" id="Fill-143" fill="#231F20"></path>
                    <path d="M313.635286,230.557485 C354.378557,221.097381 369.440501,231.833094 378.000943,242.251886 C379.568906,244.153414 381.833741,245.135871 384.122333,245.135871 C385.896189,245.135871 387.677965,244.549566 389.1509,243.329419 C392.524395,240.548433 393.007454,235.556921 390.235803,232.173784 C373.42376,211.732352 347.956245,206.289227 310.047978,215.131335 C305.795473,216.113791 303.142607,220.376384 304.132482,224.638978 C305.114439,228.901571 309.406538,231.579557 313.635286,230.557485" id="Fill-144" fill="#231F20"></path>
                    <path d="M168.221799,256.610804 C168.221799,248.53723 161.680703,241.98488 153.60332,241.98488 C145.533855,241.98488 138.992759,248.53723 138.992759,256.610804 C138.992759,264.684377 145.533855,271.236728 153.60332,271.236728 C161.680703,271.236728 168.221799,264.684377 168.221799,256.610804" id="Fill-145" fill="#0E0F0E"></path>
                    <path d="M354.676312,256.610804 C354.676312,248.53723 348.135215,241.98488 340.057832,241.98488 C331.988368,241.98488 325.447271,248.53723 325.447271,256.610804 C325.447271,264.684377 331.988368,271.236728 340.057832,271.236728 C348.135215,271.236728 354.676312,264.684377 354.676312,256.610804" id="Fill-146" fill="#0E0F0E"></path>
                    <path d="M227.427434,337.995434 L265.58911,337.995434 C270.926518,337.995434 274.513827,331.260854 272.534076,325.128424 C268.400356,312.356491 258.311546,308.624741 246.512232,308.624741 C234.712917,308.624741 224.616188,312.356491 220.482469,325.128424 C218.502718,331.260854 222.090026,337.995434 227.427434,337.995434" id="Fill-148" fill="#B8724E"></path>
                    <path d="M45.1137688,192.143439 C44.5277626,201.421314 44.4248156,211.071571 44.8603607,221.11798 C45.3196629,231.877463 119.330666,193.775584 113.787364,151.078345 C112.631189,142.149083 108.077763,133.029669 98.5591209,124.108331 C57.2773576,85.4043015 152.059906,109.450715 214.643788,133.417898 C226.886566,138.108335 237.909819,142.790849 246.430666,146.997981 C298.498112,172.747847 364.637626,160.863294 394.460591,124.108331 C395.418791,122.927799 396.321557,122.01665 397.200566,121.263961 C404.486049,115.004763 408.968205,123.16549 412.595108,137.284339 C420.965495,169.871785 424.806211,234.159297 448.151432,226.141185 C449.933208,215.334164 449.822342,202.990075 448.689925,190.725215 C446.116249,162.891591 438.228921,135.422426 434.918778,127.016085 C419.080772,86.7353715 389.978436,53.8389272 354.19246,31.6385811 C352.45028,30.5531252 350.723937,29.4439002 348.942161,28.4139055 C347.873096,27.7879857 346.804031,27.1620659 345.719127,26.5599152 C320.307046,12.4093734 291.933258,3.53557334 262.688379,1.12697048 C261.96775,1.07150923 261.25504,1.01604798 260.534411,0.968509768 C255.878037,0.635742267 251.197906,0.421820303 246.509856,0.421820303 C243.85699,0.421820303 241.148691,0.50105066 238.400797,0.627819231 C203.200828,2.32334888 160.84208,15.000206 124.69975,41.4156071 C90.4579807,66.444477 61.8387034,103.849129 50.2136069,156.061934 C47.6874449,167.399798 45.9135882,179.387351 45.1137688,192.143439" id="Fill-149" stroke="#66320F" stroke-width="10" fill="#231F20" stroke-linejoin="round"></path>
                </g>
            </g>
        </g>
    </g>
</svg>