<?xml version="1.0" encoding="UTF-8"?>
<svg width="1024px" height="1024px" viewBox="0 0 1024 1024" version="1.1" xmlns="http://www.w3.org/2000/svg" xmlns:xlink="http://www.w3.org/1999/xlink">
    <!-- Generator: Sketch 64 (93537) - https://sketch.com -->
    <title>线性精神小伙</title>
    <desc>Created with Sketch.</desc>
    <defs>
        <circle id="path-1" cx="512.5" cy="512.5" r="403.5"></circle>
    </defs>
    <g id="线性精神小伙" stroke="none" stroke-width="1" fill="none" fill-rule="evenodd">
        <mask id="mask-2" fill="white">
            <use xlink:href="#path-1"></use>
        </mask>
        <circle stroke="#66320F" stroke-width="10" cx="512.5" cy="512.5" r="398.5"></circle>
        <g id="boy_1" mask="url(#mask-2)">
            <g transform="translate(310.000000, 203.000000)" id="boy">
                <g>
                    <path d="M81.4001544,734.823962 C75.1295854,734.823962 70.0541309,739.899389 70.0541309,746.153039 L70.0541309,791.469345 L92.7461778,791.469345 L92.7461778,746.153039 C92.7461778,739.899389 87.6707233,734.823962 81.4001544,734.823962 L81.4001544,734.823962 Z" id="Fill-1" fill="#BBBDBF"></path>
                    <path d="M331.049734,734.904776 C324.832113,734.904776 319.779351,739.942439 319.779351,746.150773 L319.779351,791.46708 L342.312554,791.46708 L342.312554,746.150773 C342.312554,739.942439 337.267355,734.904776 331.049734,734.904776" id="Fill-3" fill="#BBBDBF"></path>
                    <path d="M147.795571,562.896916 C147.031605,563.085734 146.313024,563.334974 145.549058,563.531345 C146.290332,563.357632 147.054297,563.229236 147.795571,563.070629 L147.795571,562.896916 Z" id="Fill-5" fill="#D0D2D3"></path>
                    <path d="M269.711619,564.705792 L269.711619,589.093518 C269.711619,624.206103 240.900283,649.507707 205.720046,649.43218 C170.532246,649.507707 141.72091,624.206103 141.72091,589.093518 L141.72091,564.607607 C63.5846283,586.1253 7.3007879,645.867297 7.3007879,716.364365 L7.3007879,777.125979 C7.3007879,785.04878 13.7302012,791.46859 21.6648536,791.46859 L70.0518617,791.46859 L70.0518617,746.152284 C70.0518617,739.898633 75.1348802,734.823207 81.3978852,734.823207 C87.6684541,734.823207 92.7439086,739.898633 92.7439086,746.152284 L92.7439086,791.46859 L181.734553,876.285611 C195.168244,889.09502 216.302104,889.147889 229.803872,876.398901 L319.777838,791.46859 L319.777838,746.152284 C319.777838,739.94395 324.830601,734.906287 331.048222,734.906287 C337.265842,734.906287 342.311041,739.94395 342.311041,746.152284 L342.311041,791.46859 L395.463379,791.46859 C400.0623,791.46859 403.79136,787.7451 403.79136,783.145495 L403.79136,716.364365 C403.79136,645.973035 347.673928,586.299012 269.711619,564.705792" id="Fill-7" stroke="#66320F" stroke-width="10" fill="#F7B500" stroke-linejoin="round"></path>
                    <path d="M263.300359,562.896916 L263.300359,562.995102 C263.739072,563.093287 264.192913,563.176367 264.631626,563.274552 C264.177785,563.161261 263.7542,563.010207 263.300359,562.896916" id="Fill-9" fill="#D0D2D3"></path>
                    <path d="M205.716264,649.429914 C240.896501,649.512994 269.707837,624.203837 269.707837,589.091252 L269.707837,564.703526 L269.707837,564.318338 C268.051317,563.910491 266.311594,563.653699 264.632382,563.276063 C264.193669,563.170325 263.739828,563.094798 263.301115,562.996612 C258.876166,562.022312 254.481473,560.995142 249.950628,560.23987 C235.67733,563.01927 220.972884,564.597788 205.882673,564.597788 L205.549856,564.597788 C190.459645,564.597788 175.755198,563.01927 161.481901,560.23987 C156.837595,561.010247 152.329442,562.060075 147.798597,563.064587 C147.049759,563.230746 146.293357,563.359143 145.552084,563.532855 C144.288893,563.819858 142.972755,564.008676 141.717128,564.318338 L141.717128,564.612894 L141.717128,589.091252 C141.717128,624.203837 170.536028,649.512994 205.716264,649.429914" id="Fill-11" stroke="#66320F" stroke-width="10" fill="#FFFFFF" stroke-linejoin="round"></path>
                    <path d="M260.749017,729.151116 L150.677461,729.151116 C137.478254,729.151116 130.617691,744.860769 139.603742,754.520695 L187.809214,806.36255 C197.476026,816.755089 213.958016,816.755089 223.624828,806.36255 L271.830299,754.520695 C280.808786,744.860769 273.948224,729.151116 260.749017,729.151116" id="Fill-13" fill="#EC1D24"></path>
                    <path d="M174.790786,772.19632 L151.947459,749.387113 C148.430192,745.875099 150.918753,739.870688 155.895875,739.870688 L173.005679,739.870688 C179.253556,739.870688 184.321446,744.931009 184.321446,751.169554 L184.321446,768.253802 C184.321446,773.22349 178.308054,775.708334 174.790786,772.19632" id="Fill-15" fill="#EE5B48"></path>
                    <path d="M205.547587,434.734849 C180.298903,434.734849 159.641576,455.361321 159.641576,480.572293 L159.641576,484.220255 C159.641576,459.009284 180.298903,438.382811 205.547587,438.382811 C230.796271,438.382811 251.453598,459.009284 251.453598,484.220255 L251.453598,480.572293 C251.453598,455.361321 230.796271,434.734849 205.547587,434.734849" id="Fill-17" fill="#231F20"></path>
                    <path d="M251.459649,581.151064 C251.459649,608.109241 230.794758,630.165197 205.546074,630.165197 C180.29739,630.165197 159.640063,608.109241 159.640063,581.151064 L159.640063,581.151064 L159.640063,528.701231 C173.285547,532.318983 187.611793,534.275137 202.399443,534.275137 C219.471427,534.275137 235.945853,531.692108 251.459649,526.911237 L251.459649,526.911237 Z" id="形状结合" stroke="#66320F" stroke-width="10" fill="#ECCAB8" stroke-linejoin="round"></path>
                    <path d="M368.546073,259.328266 L368.546073,331.366088 C369.476447,331.366088 370.369,331.502037 371.306938,331.434062 C391.268376,329.908413 406.214871,312.514504 404.686939,292.590435 C403.227084,273.59535 387.312396,259.328266 368.546073,259.328266" id="Fill-23" stroke="#66320F" stroke-width="10" fill="#ECCAB8" stroke-linejoin="round"></path>
                    <path d="M33.4821153,259.261047 C13.520678,260.786696 -1.41825293,278.173052 0.109678227,298.104674 C1.56196923,317.099759 17.4842222,331.366843 36.242981,331.366843 L36.242981,259.329021 C35.3201711,259.329021 34.4200532,259.185519 33.4821153,259.261047" id="Fill-25" stroke="#66320F" stroke-width="10" fill="#ECCAB8" stroke-linejoin="round"></path>
                    <path d="M368.546073,257.259576 C401.283132,221.338851 408.673176,167.072574 383.053855,122.768331 C375.383943,109.505759 358.395164,104.959023 345.112752,112.617479 L324.523502,124.490351 C351.837162,154.051688 368.546073,193.544849 368.546073,236.942766 L368.546073,257.259576 Z" id="Fill-27" fill="#46142C"></path>
                    <path d="M92.8770353,112.238332 L87.7561967,109.28522 C74.4737852,101.626764 57.4850061,106.1735 49.8150942,119.436072 L49.8150942,119.436072 C33.6734849,147.350917 30.6856987,179.208281 38.8245795,207.953924 C45.5187334,170.046834 65.0868418,136.595847 92.8770353,112.238332" id="Fill-29" fill="#46142C"></path>
                    <path d="M368.546073,257.259576 L368.546073,236.942766 C368.546073,193.544849 351.837162,154.051688 324.523502,124.490351 C294.161543,91.6360287 250.691145,71.0397674 202.394905,71.0397674 C160.429746,71.0397674 122.125571,86.6134714 92.8755225,112.239843 C65.085329,136.597358 45.5172205,170.048344 38.8230667,207.955435 C37.1589833,217.373674 36.2437374,227.048705 36.2437374,236.942766 L36.2437374,259.329021 L36.2437374,331.366843 L36.2437374,366.668246 L36.2891215,366.668246 C36.2815574,367.242252 36.2437374,367.801153 36.2437374,368.367607 C36.2437374,445.231616 88.6018537,509.860222 159.643089,528.704253 C173.288573,532.322004 187.607254,534.270605 202.394905,534.270605 C219.474452,534.270605 235.948878,531.695129 251.455111,526.914258 C319.266511,506.015888 368.546073,442.943142 368.546073,368.367607 C368.546073,367.801153 368.508253,367.242252 368.500689,366.668246 L368.546073,366.668246 L368.546073,331.366843 L368.546073,259.329021 L368.546073,257.259576 Z" id="Fill-31" stroke="#66320F" stroke-width="10" fill="#F2DED4" stroke-linejoin="round"></path>
                    <path d="M97.2006266,297.846371 C93.0933662,297.846371 89.3189223,295.157604 88.1162439,291.026267 C86.6715169,286.011262 89.5685349,280.777229 94.5834772,279.33466 C111.799177,274.395182 130.610884,274.380077 147.811455,279.312002 C152.826398,280.747018 155.73098,285.981051 154.286253,290.996056 C152.841526,296.003508 147.584535,298.896199 142.584721,297.45363 C128.772828,293.496006 113.629669,293.503558 99.8253401,297.476288 C98.9479143,297.725528 98.0704884,297.846371 97.2006266,297.846371" id="Fill-33" stroke="#66320F" stroke-width="10" fill="#BC7455" stroke-linejoin="round"></path>
                    <path d="M262.135501,297.846371 C258.02824,297.846371 254.253796,295.157604 253.051118,291.026267 C251.606391,286.011262 254.503409,280.777229 259.518351,279.33466 C276.718923,274.38763 295.53063,274.364972 312.746329,279.312002 C317.768836,280.747018 320.665854,285.981051 319.221127,290.996056 C317.783964,296.003508 312.526973,298.896199 307.527158,297.45363 C293.700138,293.496006 278.556979,293.503558 264.760214,297.476288 C263.882788,297.725528 263.005362,297.846371 262.135501,297.846371" id="Fill-39" stroke="#66320F" stroke-width="10" fill="#BC7455" stroke-linejoin="round"></path>
                    <path d="M245.880431,419.629413 C257.165942,419.629413 264.745086,431.117097 260.554621,441.577611 C251.825747,463.367202 230.487659,478.759641 205.5491,478.759641 C180.61054,478.759641 159.272452,463.367202 150.543578,441.577611 C146.353113,431.117097 153.932257,419.629413 165.217768,419.629413 L245.880431,419.629413 Z" id="Fill-45" stroke="#66320F" stroke-width="10" fill="#473A4F" stroke-linejoin="round"></path>
                    <path d="M232.221332,439.864655 L179.21271,439.864655 C170.173711,439.864655 162.84418,432.546071 162.84418,423.528126 L162.84418,419.630924 L248.582297,419.630924 L248.582297,423.528126 C248.582297,432.546071 241.26033,439.864655 232.221332,439.864655" id="Fill-51" stroke="#66320F" stroke-width="10" fill="#FFFFFF" stroke-linejoin="round"></path>
                    <path d="M205.55742,456.85827 C194.02986,456.85827 183.863823,462.840022 177.933635,471.827756 C186.19354,476.193227 195.557791,478.761151 205.55742,478.761151 C215.557049,478.761151 224.9213,476.193227 233.181205,471.827756 C227.251017,462.840022 217.08498,456.85827 205.55742,456.85827" id="Fill-53" stroke="#66320F" stroke-width="10" fill="#F3795D" stroke-linejoin="round"></path>
                    <g id="Group-59" transform="translate(57.116037, 0.690949)" fill="#551735">
                        <path d="M316.731655,104.336803 C316.731655,175.24927 259.124112,218.888874 171.903447,218.888874 C57.0816897,218.888874 0.434776532,165.823479 0.434776532,94.9110117 C0.434776532,33.6886816 93.1847364,-49.4138719 190.147853,38.5979481 C269.101048,110.258134 316.731655,33.4243364 316.731655,104.336803" id="Fill-57"></path>
                    </g>
                </g>
            </g>
        </g>
        <path d="M448,533.492788 C448,544.266827 439.715747,553 429.501873,553 C419.284253,553 411,544.266827 411,533.492788 C411,522.733173 419.284253,514 429.501873,514 C439.715747,514 448,522.733173 448,533.492788 L448,533.492788 Z" id="Fill-6" stroke="#66320F" stroke-width="10" fill="#3B2519" stroke-linejoin="round" mask="url(#mask-2)"></path>
        <path d="M427,527.498476 C427,529.988486 424.541483,532 421.501863,532 C418.458517,532 416,529.988486 416,527.498476 C416,525.011514 418.458517,523 421.501863,523 C424.541483,523 427,525.011514 427,527.498476 L427,527.498476 Z" id="Fill-7" fill="#FFFFFF" mask="url(#mask-2)"></path>
        <path d="M614,533.492788 C614,544.266827 605.715747,553 595.501873,553 C585.284253,553 577,544.266827 577,533.492788 C577,522.733173 585.284253,514 595.501873,514 C605.715747,514 614,522.733173 614,533.492788 L614,533.492788 Z" id="Fill-9" stroke="#66320F" stroke-width="10" fill="#3B2519" stroke-linejoin="round" mask="url(#mask-2)"></path>
        <path d="M593,527.498476 C593,529.988486 590.541483,532 587.498137,532 C584.458517,532 582,529.988486 582,527.498476 C582,525.011514 584.458517,523 587.498137,523 C590.541483,523 593,525.011514 593,527.498476 L593,527.498476 Z" id="Fill-10" fill="#FFFFFF" mask="url(#mask-2)"></path>
    </g>
</svg>