<?xml version="1.0" encoding="UTF-8"?>
<svg width="1024px" height="1024px" viewBox="0 0 1024 1024" version="1.1" xmlns="http://www.w3.org/2000/svg" xmlns:xlink="http://www.w3.org/1999/xlink">
    <!-- Generator: Sketch 64 (93537) - https://sketch.com -->
    <title>线性女士</title>
    <desc>Created with Sketch.</desc>
    <defs>
        <circle id="path-1" cx="512.5" cy="512.5" r="403.5"></circle>
    </defs>
    <g id="线性女士" stroke="none" stroke-width="1" fill="none" fill-rule="evenodd">
        <mask id="mask-2" fill="white">
            <use xlink:href="#path-1"></use>
        </mask>
        <circle stroke="#66320F" stroke-width="10" cx="512.5" cy="512.5" r="398.5"></circle>
        <g id="gardener-2" mask="url(#mask-2)">
            <g transform="translate(200.000000, 199.000000)" id="gardener">
                <g>
                    <path d="M494.972519,217.054914 L129.441826,217.565866 C124.882551,235.380176 105.688776,313.305803 105.688776,362.651683 C105.688776,377.29396 119.513132,389.32967 136.561562,399.383937 C171.95321,420.256069 224.053824,432.19823 229.793194,433.473541 L394.649203,432.955044 C403.593948,431.130147 518.722789,406.774549 518.722789,362.129919 C518.722789,312.792813 499.536803,234.889743 494.972519,217.054914 Z" id="Shape" stroke="#66320F" stroke-width="10" fill="#7B351E"></path>
                    <path d="M396.262025,429.09901 L231.735986,429.09901 L231.735986,485.832377 C231.735986,495.631847 228.429598,504.801432 222.769791,512.116008 C217.0998,519.443745 209.068771,524.909967 199.630812,527.291257 L97.6215995,553.025176 C82.0865195,556.944498 68.8716481,565.949095 59.539009,578.010636 C50.1961914,590.085332 44.7431973,605.223501 44.7431973,621.398693 L44.7431973,700.841822 C44.7431973,706.413784 46.9777353,711.460063 50.5968744,715.112021 C54.1997515,718.747569 59.1760852,721 64.6752867,721 L563.321312,721 C568.820513,721 573.796847,718.747569 577.399724,715.112021 C581.018863,711.460063 583.253401,706.413784 583.253401,700.841822 L583.253401,621.398693 C583.253401,605.224134 577.800358,590.08628 568.457491,578.011756 C559.124854,565.950452 545.910022,556.945908 530.374918,553.026581 L428.367426,527.294165 C418.930163,524.913656 410.89894,519.447388 405.228663,512.11928 C399.568728,504.804539 396.262025,495.634611 396.262025,485.835227 L396.262025,429.09901 Z" id="Shape" stroke="#66320F" stroke-width="10" fill="#FADED0"></path>
                    <path d="M210.134893,527.850035 L201.831633,530.265891 L201.831633,530.265891 C350.18503,583.34858 395.831633,424.09901 395.831633,424.09901 L236.065938,424.09901 L236.065938,489.226403 C236.065938,507.496409 225.374989,523.421216 210.134893,527.850035 L210.134893,527.850035 Z" id="Shape" fill="#ECCAB8"></path>
                    <path d="M443.714361,217.049505 L180.69861,217.049505 L180.69861,267.323481 C173.054476,267.675708 166.280216,271.374679 161.748566,276.992508 C158.077032,281.544061 155.879252,287.358321 155.879252,293.692626 L155.879252,306.253763 C155.879252,312.587629 158.07719,318.401986 161.748875,322.953726 C166.280512,328.571539 173.054608,332.270847 180.69861,332.622854 L180.69861,365.98177 C180.69861,385.746655 190.664906,404.148557 207.142329,414.76347 L274.937968,458.429836 C286.307321,465.752827 299.256264,469.415842 312.205782,469.415842 C325.155301,469.415842 338.104243,465.752827 349.473564,458.429857 L417.269596,414.763237 C433.748255,404.149672 443.712955,385.747777 443.712955,365.98177 L443.712955,332.622909 C451.357089,332.270682 458.131348,328.571711 462.662999,322.953882 C466.334533,318.402328 468.532313,312.588069 468.532313,306.253763 L468.532313,293.692626 C468.532899,287.358078 466.335513,281.544016 462.664291,276.992591 C458.132847,271.3747 451.35851,267.67571 443.714361,267.32348 L443.714361,217.049505 Z" id="Shape" stroke="#66320F" stroke-width="10" fill="#F2DED4"></path>
                    <path d="M249.219982,292.528492 C247.181233,292.590105 245.331707,293.413785 243.993135,294.723614 C242.728471,295.961122 241.920068,297.64283 241.920068,299.50495 L241.920068,311.485149 C241.920068,313.379581 242.756487,315.086534 244.058613,316.329777 C245.463753,317.671375 247.41382,318.451063 249.71365,318.461656 C251.753025,318.400407 253.603331,317.576641 254.942396,316.266336 C256.206919,315.028973 257.015306,313.347426 257.015306,311.485149 L257.015306,299.50495 C257.015306,297.61254 256.176598,295.907989 254.848674,294.670881 C253.417034,293.33715 251.429332,292.541108 249.219982,292.528492 Z" id="Shape" stroke="#66320F" stroke-width="10" fill="#7B351E"></path>
                    <path d="M374.696173,292.528492 C372.657424,292.590105 370.807897,293.413785 369.469325,294.723614 C368.204661,295.961122 367.396259,297.64283 367.396259,299.50495 L367.396259,311.485149 C367.396259,313.379581 368.232677,315.086534 369.534803,316.329777 C370.939944,317.671375 372.89001,318.451063 375.18984,318.461656 C377.229215,318.400407 379.079521,317.576641 380.418586,316.266336 C381.683109,315.028973 382.491497,313.347426 382.491497,311.485149 L382.491497,299.50495 C382.491497,297.61254 381.652788,295.907989 380.324864,294.670881 C378.893224,293.33715 376.905523,292.541108 374.696173,292.528492 Z" id="Shape" stroke="#66320F" stroke-width="10" fill="#7B351E"></path>
                    <path d="M277.697273,386.637828 C275.785609,385.786119 273.701755,385.778068 271.880438,386.454965 C270.081125,387.123684 268.534706,388.463647 267.678981,390.328426 C266.835026,392.169961 266.824779,394.176808 267.495289,395.931461 C268.173323,397.705801 269.543844,399.21772 271.433713,400.061397 C283.559,405.477577 297.658537,408.316832 312.206798,408.316832 C326.754798,408.316832 340.854122,405.479094 352.97685,400.062118 C354.868083,399.217831 356.238197,397.706123 356.916123,395.932065 C357.5868,394.176975 357.576558,392.169586 356.731772,390.325324 C355.879306,388.460639 354.33453,387.124445 352.537845,386.456702 C350.714441,385.77903 348.627233,385.786248 346.70923,386.640358 C326.504636,395.667806 297.90754,395.667806 277.697273,386.637828 Z" id="Shape" stroke="#66320F" stroke-width="10" fill="#F26D6D"></path>
                    <path d="M257.705091,5 C235.466829,5 214.741258,12.8701711 198.409266,26.2425849 C182.057345,39.6313162 170.109339,58.5343222 165.444151,80.5823064 L146.292602,171.108911 L481.703997,171.108911 L462.552413,80.5821409 C457.529133,56.8383904 443.796015,36.9629823 408.581994,23.6074397 C377.348318,11.7615131 329.828353,5 257.705091,5 Z" id="Shape" stroke="#66320F" stroke-width="10" fill="#65429D"></path>
                    <path d="M455.794375,533.971932 C421.174046,577.528149 370.546593,605.055003 313.997593,605.055003 C257.448569,605.055003 206.823865,577.528168 172.203623,533.97192 L97.622979,552.808995 C82.0879445,556.733062 68.8733705,565.748892 59.5408044,577.824978 C50.1966887,589.916009 44.7431973,605.074716 44.7431973,621.271733 L44.7431973,700.811286 C44.7431973,706.391813 46.978656,711.446545 50.5995379,715.104697 C54.2019825,718.744221 59.1773316,721 64.6752867,721 L563.321312,721 C568.81968,721 573.794952,718.744417 577.397243,715.105047 C581.018165,711.446856 583.253401,706.391965 583.253401,700.811286 L583.253401,621.271733 C583.253401,605.074029 577.799925,589.914959 568.455794,577.823908 C559.123276,565.747883 545.908772,556.732426 530.373717,552.80902 L455.794375,533.971932 Z" id="Shape" stroke="#66320F" stroke-width="10" fill="#FFC400"></path>
                    <path d="M55.0677863,586.44633 C48.5328928,597.050257 44.7431973,609.40015 44.7431973,622.508173 L44.7431973,701.108329 C44.7431973,706.596875 46.9889063,711.563772 50.61423,715.159739 C54.2543267,718.770359 59.2841163,721 64.83808,721 L135.12415,721 L135.12415,694.701773 C135.12415,676.227499 127.722402,658.511293 114.552782,645.448317 L55.0677863,586.44633 Z" id="Shape" stroke="#66320F" stroke-width="10" fill="#F87884"></path>
                    <path d="M149.939827,528.280985 C148.514962,528.77694 147.330859,529.730485 146.49555,530.940247 C145.620862,532.207041 145.125503,533.755357 145.125503,535.392661 L145.125503,721 L170.97449,721 L170.97449,526.907971 C170.97449,526.422981 170.981572,525.897292 170.617234,525.53493 C170.10378,525.024263 169.246235,524.842502 168.176018,524.712999 C164.344282,524.249333 158.520917,525.294795 149.939827,528.280985 Z" id="Shape" stroke="#66320F" stroke-width="10" fill="#FFFFFF"></path>
                    <path d="M572.928812,586.44633 L513.443777,645.448356 C500.274196,658.511293 492.872449,676.227499 492.872449,694.701773 L492.872449,721 L563.158519,721 C568.712482,721 573.742272,718.770359 577.382369,715.159739 C581.007692,711.563772 583.253401,706.596875 583.253401,701.108329 L583.253401,622.508173 C583.253401,609.40015 579.463706,597.050257 572.928812,586.44633 Z" id="Shape" stroke="#66320F" stroke-width="10" fill="#F87884"></path>
                    <path d="M462.174995,522.754055 C460.941065,522.324678 459.692075,522.60442 458.750259,523.313095 C457.697087,524.105559 457.022109,525.407376 457.022109,526.907971 L457.022109,721 L482.871095,721 L482.871095,535.392661 C482.871095,533.755357 482.375737,532.207041 481.501049,530.940247 C480.66574,529.730485 479.481636,528.77694 478.056456,528.280876 L462.174995,522.754055 Z" id="Shape" stroke="#66320F" stroke-width="10" fill="#FFFFFF"></path>
                    <path d="M170.994219,217.049505 L181.510644,289.792291 C201.850432,277.627206 268.601251,246.176334 402.522928,256.355239 C411.178186,257.014111 432.001078,230.704342 442.194226,217.049505 L170.994219,217.049505 Z" id="Shape" stroke="#66320F" stroke-width="10" fill="#7B351E"></path>
                    <path d="M606.828503,192.240395 C602.720019,191.678846 597.367986,191.102074 590.451887,190.51373 C569.299803,188.714347 533.918317,186.879427 475.608656,185.311583 C385.469207,182.887892 240.659181,181.108911 9.18491923,181.108911 C8.22040354,181.108911 7.39191483,181.378382 6.76027211,181.874183 C6.06242117,182.421952 5.61131794,183.206414 5.41537236,184.036348 C5.23096598,184.817408 5.26579688,185.660433 5.63062621,186.397227 C5.95614381,187.054629 6.55299768,187.583247 7.36575008,187.949175 C66.1479617,214.397141 180.618752,232.207921 312.205978,232.207921 C436.542741,232.207921 545.597338,216.305823 606.828503,192.240395 Z" id="Shape" stroke="#66320F" stroke-width="10" fill="#7E41DF"></path>
                </g>
            </g>
        </g>
    </g>
</svg>