<?xml version="1.0" encoding="UTF-8"?>
<svg width="1024px" height="1024px" viewBox="0 0 1024 1024" version="1.1" xmlns="http://www.w3.org/2000/svg" xmlns:xlink="http://www.w3.org/1999/xlink">
    <!-- Generator: Sketch 64 (93537) - https://sketch.com -->
    <title>线性青年人士</title>
    <desc>Created with Sketch.</desc>
    <defs>
        <circle id="path-1" cx="403.5" cy="403.5" r="403.5"></circle>
    </defs>
    <g id="线性青年人士" stroke="none" stroke-width="1" fill="none" fill-rule="evenodd">
        <g id="编组" transform="translate(109.000000, 109.000000)">
            <g id="路径-2">
                <mask id="mask-2" fill="white">
                    <use xlink:href="#path-1"></use>
                </mask>
                <circle stroke="#66320F" stroke-width="10" cx="403.5" cy="403.5" r="398.5"></circle>
                <path d="M402.599935,584.413123 C317.598647,602.847631 253.139337,625.536256 209.222005,652.478998 C143.346008,692.893112 117.845621,720.544873 85.9701384,780.102514 C64.7198165,819.807608 53.3863115,846.750351 51.9696233,860.930741 L763.855407,854.549565 C729.854892,766.631143 700.812785,712.745658 676.729087,692.893112 C640.60354,663.114291 498.226383,601.429592 468.475933,592.921357 C448.642299,587.249201 426.683633,584.413123 402.599935,584.413123 Z" stroke="#66320F" stroke-width="10" fill="#BDE3FF" mask="url(#mask-2)"></path>
            </g>
            <polygon id="矩形" stroke="#66320F" stroke-width="10" fill="#F2DED4" points="351.184211 511 461.342105 511 491 638 330 638"></polygon>
            <ellipse id="椭圆形" stroke="#66320F" stroke-width="10" fill="#F2DED4" cx="553.5" cy="365" rx="35.5" ry="49"></ellipse>
            <ellipse id="椭圆形备份" stroke="#66320F" stroke-width="10" fill="#F2DED4" cx="252.5" cy="365" rx="35.5" ry="49"></ellipse>
            <ellipse id="椭圆形" stroke="#66320F" stroke-width="10" fill="#FBF0EA" cx="403" cy="365" rx="153" ry="192"></ellipse>
            <path d="M329.777539,588.078099 C324.08264,591.213963 319.214866,594.711382 315.356163,598.509754 C309.501453,604.272926 306,610.70661 306,617.617021 C306,623.455145 308.510866,628.966001 312.828412,634.018731 C317.816557,639.856247 325.163057,645.056993 334.227672,649.451021 C352.851735,658.478944 378.591477,664 407,664 C435.408523,664 461.148265,658.478944 479.772328,649.451021 C488.836943,645.056993 496.183443,639.856247 501.171588,634.018731 C505.489134,628.966001 508,623.455145 508,617.617021 C508,611.211579 504.984261,605.208639 499.876007,599.770413 C496.556332,596.2363 492.368615,592.949436 487.456021,589.95247 C487.534456,590.687694 487.574074,591.427362 487.574074,592.170213 C487.574074,597.897807 485.220155,603.432205 480.662318,608.446206 C476.520358,613.002709 470.487104,617.158816 462.943397,620.596254 C449.003008,626.948465 429.754171,630.93617 408.472222,630.93617 C387.190274,630.93617 367.941437,626.948465 354.001048,620.596254 C346.45734,617.158816 340.424086,613.002709 336.282126,608.446206 C331.724289,603.432205 329.37037,597.897807 329.37037,592.170213 C329.37037,590.79478 329.506753,589.429099 329.777539,588.078099 Z" id="形状结合" stroke="#66320F" stroke-width="10" fill="#749DBC"></path>
            <path d="M328.925825,220.789017 C368.428088,267.366376 414.278929,267.366376 466.478348,220.789017 C493.988852,212.320407 527.847935,292.772208 527.847935,349.935331 C527.847935,407.098453 601.914677,288.537903 582.868944,212.320407 C563.82321,136.10291 496.105045,78.9397879 390.295412,81.0569406 C282.369587,91.642704 221,153.040132 221,252.546308 C223.82159,292.066491 243.572722,325.235216 280.253394,352.052484 C285.896575,289.949338 299.299128,249.723437 320.461055,231.374781 C327.51503,227.140475 330.33662,223.611888 328.925825,220.789017 Z" id="路径" stroke="#66320F" stroke-width="10" fill="#855B5B" stroke-linejoin="round"></path>
            <ellipse id="椭圆形" stroke="#66320F" stroke-width="10" fill="#333333" cx="343.5" cy="381.5" rx="12.5" ry="14.5"></ellipse>
            <ellipse id="椭圆形备份-2" stroke="#66320F" stroke-width="10" fill="#333333" cx="461.5" cy="381.5" rx="12.5" ry="14.5"></ellipse>
            <ellipse id="椭圆形" fill="#66320F" cx="461.5" cy="328.5" rx="23.5" ry="5.5"></ellipse>
            <ellipse id="椭圆形备份-3" fill="#66320F" cx="343.5" cy="328.5" rx="23.5" ry="5.5"></ellipse>
            <ellipse id="椭圆形" stroke="#66320F" stroke-width="10" fill="#EB7480" cx="406.5" cy="481.5" rx="32.5" ry="7.5"></ellipse>
        </g>
    </g>
</svg>