<?xml version="1.0" encoding="utf-8"?>
<!-- Generator: Adobe Illustrator 23.0.1, SVG Export Plug-In . SVG Version: 6.00 Build 0)  -->
<svg version="1.1" id="图层_1" xmlns="http://www.w3.org/2000/svg" xmlns:xlink="http://www.w3.org/1999/xlink" x="0px" y="0px"
	 viewBox="0 0 1024 1024" style="enable-background:new 0 0 1024 1024;" xml:space="preserve">
<style type="text/css">
	.st0{clip-path:url(#SVGID_2_);}
	.st1{fill:none;stroke:#66320F;stroke-width:10;}
	.st2{fill-rule:evenodd;clip-rule:evenodd;fill:#DB8043;stroke:#66320F;stroke-width:10;stroke-linejoin:round;}
	.st3{fill-rule:evenodd;clip-rule:evenodd;fill:#FA6400;stroke:#66320F;stroke-width:10;stroke-linejoin:round;}
	.st4{fill-rule:evenodd;clip-rule:evenodd;fill:#F2DED4;stroke:#66320F;stroke-width:10;stroke-linejoin:round;}
	.st5{fill-rule:evenodd;clip-rule:evenodd;fill:#FFD561;stroke:#66320F;stroke-width:10;stroke-linejoin:round;}
	.st6{opacity:0.2;fill-rule:evenodd;clip-rule:evenodd;fill:#292929;enable-background:new    ;}
	.st7{fill-rule:evenodd;clip-rule:evenodd;fill:#F06168;}
	.st8{fill-rule:evenodd;clip-rule:evenodd;fill:#ECCAB8;}
	.st9{fill-rule:evenodd;clip-rule:evenodd;fill:#292929;}
	.st10{fill-rule:evenodd;clip-rule:evenodd;fill:#54200F;}
	.st11{fill-rule:evenodd;clip-rule:evenodd;fill:#E7645B;}
	.st12{fill-rule:evenodd;clip-rule:evenodd;fill:#BE7A5E;}
</style>
<title>线性黄发女郎</title>
<desc>Created with Sketch.</desc>
<g>
	<defs>
		<path id="SVGID_1_" d="M507.2,108.4c220.1,0,415.2,184.2,409.7,404.3c-5.4,220-166.7,402.1-407.6,402.1
			c-220.1,0-399.9-182-399.9-402.1S287.1,108.4,507.2,108.4z"/>
	</defs>
	<clipPath id="SVGID_2_">
		<use xlink:href="#SVGID_1_"  style="overflow:visible;"/>
	</clipPath>
	<g class="st0">
		<circle class="st1" cx="512.5" cy="512.5" r="398.5"/>
		<g id="Person-6" transform="translate(292.000000, 212.000000)">
			<g>
				<g id="Group-48" transform="translate(0.000000, 40.987079)">
					<path id="Fill-1" class="st2" d="M392.8,43.9l-76.3-62.1c-94.8-49-222.3-2.4-279,80.6L16.9,99.5c-4.2,6.8-12,66.1-12,74.1
						c0,0.1-1.1,16.3-2.2,64.3l-2.5,116c0,162.3,131.1,293.9,292.7,293.9l126.6,4.6c-57.2-195.7,19.1-389.3,19.1-389.3l6.6-58
						C445.8,179.1,457.1,142,392.8,43.9z"/>
					<path id="Fill-3" class="st3" d="M238,517.2h-31.7c-105,0-190.2,85.5-190.2,191v15.9c0,26.4,21.3,47.7,47.5,47.7h317
						c26.3,0,47.5-21.4,47.5-47.7v-15.9C428.1,602.7,343,517.2,238,517.2"/>
					<path id="Fill-5" class="st4" d="M222.1,580.8L222.1,580.8c-26.3,0-47.5-21.4-47.5-47.7V421.7h95.1v111.4
						C269.7,559.5,248.4,580.8,222.1,580.8"/>
					<path id="Fill-7" class="st5" d="M291.5,524.9c1.2,5.2,1.9,10.6,1.9,16.1c0,39.6-31.9,71.6-71.3,71.6s-71.3-32.1-71.3-71.6
						c0-5.6,0.7-10.9,1.9-16.1c-79,23.3-136.6,96.5-136.6,183.2V724c0,26.4,21.3,47.7,47.5,47.7h317c26.3,0,47.5-21.4,47.5-47.7
						v-15.9C428.1,621.4,370.5,548.2,291.5,524.9"/>
					<path id="Fill-9" class="st6" d="M91.4,712.1c-6.6,0-11.9,5.3-11.9,11.9v47.7h23.8V724C103.2,717.5,97.9,712.1,91.4,712.1"/>
					<path id="Fill-11" class="st6" d="M352.9,712.1c-6.6,0-11.9,5.3-11.9,11.9v47.7h23.8V724C364.8,717.5,359.4,712.1,352.9,712.1"
						/>
					<g id="Group-15" transform="translate(103.017968, 732.014519)">
						<g id="Clip-14">
						</g>
						<path id="Fill-13" class="st7" d="M238,37.3c0,49.7-53.2,90-118.9,90S0.2,87,0.2,37.3S238-12.4,238,37.3"/>
					</g>
					<path id="Fill-16" class="st8" d="M264,512.9c0,0-31.4,8-42,8s-42-8-42-8V497c0,0,31.4,8,42,8s42-8,42-8V512.9z"/>
					<path id="Fill-18" class="st9" d="M269.7,493.3c0,0-35.5,8-47.5,8s-47.5-8-47.5-8v-15.9c0,0,35.5,8,47.5,8s47.5-8,47.5-8V493.3
						z"/>
					<path id="Fill-20" class="st4" d="M222.1,501.3L222.1,501.3c-96.3,0-174.3-78.4-174.3-175V175c0-96.7,78.1-175,174.3-175l0,0
						c96.3,0,174.3,78.4,174.3,175v151.2C396.4,422.9,318.4,501.3,222.1,501.3"/>
					<path id="Shape" class="st10" d="M135,342L135,342c-7.1,0-13-6-13-13.3v-13.3c0-7.3,5.8-13.3,13-13.3l0,0c7.1,0,13,6,13,13.3
						v13.3C148,336,142.1,342,135,342L135,342z"/>
					<path class="st10" d="M305,339L305,339c-7.1,0-13-6-13-13.3v-13.3c0-7.3,5.8-13.3,13-13.3l0,0c7.1,0,13,6,13,13.3v13.3
						C318,333,312.1,339,305,339L305,339z"/>
					<path id="Fill-22" class="st4" d="M426.1,275.5c-1.3-17.2-13.9-30.8-29.9-34.2v74.2C414.5,311.6,427.6,294.8,426.1,275.5"/>
					<path id="Fill-24" class="st4" d="M54.9,240.5c-0.6,0-1.2-0.1-1.8,0c-20.9,1.6-36.6,19.9-35,40.9c1.3,17.2,13.9,30.7,29.9,34.2
						v-35.2C48,268.5,50.4,254.4,54.9,240.5"/>
					<path id="Fill-28" class="st11" d="M222.1,450c-19.4,0-42.7-11.8-39.9-20.7c6-18.4,15,3.5,37.8,3.5c22.2,0,31.7-21.9,37.7-3.5
						C260.6,438.2,241.5,450,222.1,450"/>
					<path id="Fill-46" class="st12" d="M341.2,267.1c-1.5,0-3.1-0.6-4.2-1.8c-9.9-10-34-16.7-54.2-10.6c-3.2,1-6.5-0.8-7.4-4
						c-1-3.2,0.8-6.5,4-7.4c25.4-7.7,53.5,0.9,66.1,13.6c2.3,2.3,2.3,6.1,0,8.4C344.2,266.5,342.7,267.1,341.2,267.1"/>
				</g>
				<g id="Clip-61">
				</g>
			</g>
		</g>
		<path class="st2" d="M731.2,393.3c0,0,50.1,6,61.6-7.6c11.4-13.6-8.7,45.2-33.8,50.1C733.9,440.7,736.1,424.9,731.2,393.3z"/>
		<path class="st2" d="M412.4,231.5c0,0-124.2,44.7-121,237.6s2.2,42,26.2,41.4c24-0.5,87.2-2.2,120.4-50.1s-32.7-64.8-33.8-133.5
			C402.9,241.1,412.4,231.5,412.4,231.5z"/>
		<path class="st2" d="M404.8,237c0,0-47.9,199.4,140.6,281.2s279-89.4,279-89.4s-52.3,18.5-88.3,4.4c0,0-0.8-223.4-210.3-223.4
			C440.7,209.7,404.8,237,404.8,237z"/>
	</g>
</g>
</svg>
