<?xml version="1.0" encoding="UTF-8"?>
<svg width="1024px" height="1024px" viewBox="0 0 1024 1024" version="1.1" xmlns="http://www.w3.org/2000/svg" xmlns:xlink="http://www.w3.org/1999/xlink">
    <!-- Generator: Sketch 64 (93537) - https://sketch.com -->
    <title>线性光头大叔</title>
    <desc>Created with Sketch.</desc>
    <defs>
        <circle id="path-1" cx="512.5" cy="512.5" r="403.5"></circle>
    </defs>
    <g id="线性光头大叔" stroke="none" stroke-width="1" fill="none" fill-rule="evenodd">
        <mask id="mask-2" fill="white">
            <use xlink:href="#path-1"></use>
        </mask>
        <circle stroke="#66320F" stroke-width="10" cx="512.5" cy="512.5" r="398.5"></circle>
        <g id="user" mask="url(#mask-2)">
            <g transform="translate(175.000000, 236.000000)">
                <path d="M501,174.572208 L501,447.339578 C501,537.726194 427.862171,611 337.64025,611 C247.419689,611 174.28186,537.726194 174.28186,447.339578 L174.28186,174.572208 C174.28186,174.572208 159.895184,19.3666128 336.688941,0 C336.68758,0.0013634619 493.556926,2.56467183 501,174.572208 L501,174.572208 Z" id="Shape" stroke="#66320F" stroke-width="10" fill="#F6DED2" stroke-linejoin="round"></path>
                <path d="M675.998634,688 L0,688 L0,676.577606 C0,538.739686 112.334213,427 250.908571,427 L425.091429,427 C563.664421,427 676,538.738327 676,676.577606 L676,688 L675.998634,688 Z" id="Shape" stroke="#66320F" stroke-width="10" fill="#F6DED2" stroke-linejoin="round"></path>
                <path d="M412.958626,427.001359 C557.680158,427.001359 675,543.854962 675,688 L675,688 L338,688 L338.372487,427 L412.958626,427 L412.958626,427.001359 L412.958626,427.001359 Z" id="Shape" stroke="none" fill="#ECCAB8"></path>
                <path d="M501,229 C521.986587,229 539,243.774499 539,261.999313 C539,280.225501 521.986587,295 501,295" id="Shape" stroke="#66320F" stroke-width="10" fill="#ECCAB8" stroke-linejoin="round"></path>
                <path d="M174,295 C153.012705,295 136,280.225501 136,261.999313 C136,243.774499 153.012705,229 174,229" id="Shape" stroke="#66320F" stroke-width="10" fill="#ECCAB8" stroke-linejoin="round"></path>
                <path d="M501.117909,434.405709 L501.269397,448.321 C501.269397,538.57366 427.92725,611.738871 337.453284,611.738871 C246.980683,611.738871 173.637171,538.57366 173.637171,448.321 L173.458388,434 C146.725489,441.903166 129,448.321 129,448.321 L129,688 L543.338092,688 L544,448.321 C543.998635,448.321 527.000562,442.12372 501.117909,434.405709 L501.117909,434.405709 Z" id="Shape" stroke="#66320F" stroke-width="10" fill="#567DF4" stroke-linejoin="round"></path>
                <path d="M504,448.652531 C504,539.41859 430.340607,613 339.478352,613 C248.616097,613 174.956704,539.41859 174.956704,448.652531 L174,371.956224 C174,371.956224 224.727268,387.021375 272.713263,361 L404.330033,361 C404.330033,361 456.427938,384.283003 503.043296,361 L504,448.652531 L504,448.652531 Z" id="Shape" stroke="#66320F" stroke-width="10" fill="#B8B5BB" stroke-linejoin="round"></path>
                <path d="M261,229.009758 C261,222.929237 265.923532,218 272,218 L272,218 C278.075132,218 283,222.933735 283,229.009758 L283,272.990242 C283,279.070763 278.076468,284 272,284 L272,284 C265.924868,284 261,279.066265 261,272.990242 L261,229.009758 Z" id="Rectangle-path" stroke="none" fill="#664545"></path>
                <path d="M392,229.009758 C392,222.929237 396.923532,218 403,218 L403,218 C409.075132,218 414,222.933735 414,229.009758 L414,272.990242 C414,279.070763 409.076468,284 403,284 L403,284 C396.924868,284 392,279.066265 392,272.990242 L392,229.009758 Z" id="Rectangle-path" stroke="none" fill="#664545"></path>
                <polygon id="Rectangle-path" stroke="#66320F" stroke-width="10" fill="#5F5C61" stroke-linejoin="round" transform="translate(266.491317, 142.301949) rotate(225.000000) translate(-266.491317, -142.301949) " points="255.808767 115.010368 277.207641 114.997131 277.173868 169.59353 255.774994 169.606767"></polygon>
                <polygon id="Rectangle-path" stroke="#66320F" stroke-width="10" fill="#5F5C61" stroke-linejoin="round" transform="translate(408.537624, 142.293718) rotate(225.000000) translate(-408.537624, -142.293718) " points="381.246043 131.611168 435.842442 131.577395 435.829205 152.976269 381.232806 153.010042"></polygon>
                <polygon id="Rectangle-path" stroke="none" fill="#FFFFFF" points="328 633 350 633 350 655 328 655"></polygon>
                <rect id="Rectangle-path" stroke="none" fill="#FFFFFF" x="328" y="666" width="22" height="22"></rect>
                <path d="M425,405 C412.987863,405 403.249321,395.150792 403.249321,383.000458 L403.249321,371.999313 C403.249321,353.774499 388.642866,339 370.623981,339 C352.605095,339 338,353.774499 338,371.999313 C338,390.225501 352.605095,405 370.623981,405 L425,405" id="Shape" stroke="#66320F" stroke-width="10" fill="#FFFFFF" stroke-linejoin="round"></path>
                <path d="M251,405 C263.012137,405 272.750679,395.150792 272.750679,383.000458 L272.750679,371.999313 C272.750679,353.774499 287.357134,339 305.376019,339 C323.393546,339 338,353.774499 338,371.999313 C338,390.225501 323.393546,405 305.376019,405 L251,405" id="Shape" stroke="#66320F" stroke-width="10" fill="#FFFFFF" stroke-linejoin="round"></path>
                <path d="M236.66994,126 L218,115.366213 C228.046918,98.0262376 242.030493,82.6834158 258.440322,71 L271,88.3399752 C257.069976,98.2576733 245.196844,111.280693 236.66994,126 L236.66994,126 Z" id="Shape" stroke="none" fill="#FFFFFF"></path>
                <path d="M281.789074,83 L271,64.080416 C278.579614,59.6566069 286.602576,55.9292413 294.844459,53 L302,73.607763 C295.013813,76.0898876 288.213502,79.2503482 281.789074,83 L281.789074,83 Z" id="Shape" stroke="none" fill="#FFFFFF"></path>
                <circle id="Oval" stroke="#66320F" stroke-width="10" fill="#FFFFFF" stroke-linejoin="round" cx="338.5" cy="469.5" r="21.5"></circle>
            </g>
        </g>
    </g>
</svg>