<?xml version="1.0" encoding="UTF-8"?>
<svg width="1024px" height="1024px" viewBox="0 0 1024 1024" version="1.1" xmlns="http://www.w3.org/2000/svg" xmlns:xlink="http://www.w3.org/1999/xlink">
    <!-- Generator: Sketch 64 (93537) - https://sketch.com -->
    <title>线性卷毛</title>
    <desc>Created with Sketch.</desc>
    <defs>
        <circle id="path-1" cx="512.5" cy="512.5" r="403.5"></circle>
    </defs>
    <g id="线性卷毛" stroke="none" stroke-width="1" fill="none" fill-rule="evenodd">
        <mask id="mask-2" fill="white">
            <use xlink:href="#path-1"></use>
        </mask>
        <circle stroke="#66320F" stroke-width="10" cx="512.5" cy="512.5" r="398.5"></circle>
        <g id="boy" mask="url(#mask-2)">
            <g transform="translate(239.000000, 223.000000)">
                <path d="M278,609 L278,536.028885 C278,536.028885 394,532.527429 394,602.62696 L278,609 Z" id="Fill-1" stroke="#66320F" stroke-width="10" fill="#469FC1" stroke-linejoin="round"></path>
                <path d="M268,609 L268,536.028885 C268,536.028885 152,532.527429 152,602.62696 L268,609 Z" id="Fill-2" stroke="#66320F" stroke-width="10" fill="#469FC1" stroke-linejoin="round"></path>
                <polygon id="Fill-3" stroke="#66320F" stroke-width="10" fill="#F6DED2" stroke-linejoin="round" points="228 639 320 639 320 536 228 536"></polygon>
                <path d="M228,548.159607 C228,548.159607 264.178579,572.86702 314,567.138163 L314,536 L228,536 L228,548.159607 Z" id="Fill-4" stroke="none" fill="#ECCAB8"></path>
                <path d="M140,375.992209 C140,404.156737 119.854024,427 95.0058826,427 C70.1459759,427 50,404.156737 50,375.992209 C50,347.827681 70.1459759,325 95.0058826,325 C119.854024,325 140,347.827681 140,375.992209 L140,375.992209 Z" id="Fill-5" stroke="none" fill="#FCBC85"></path>
                <path d="M497,375.992209 C497,404.156737 476.854024,427 451.994117,427 C427.145976,427 407,404.156737 407,375.992209 C407,347.827681 427.145976,325 451.994117,325 C476.854024,325 497,347.827681 497,375.992209 L497,375.992209 Z" id="Fill-6" stroke="none" fill="#FCBC85"></path>
                <path d="M451.818832,279.3848 C451.818832,204.103332 396.497441,149 272.998335,149 C149.48747,149 94.1817574,204.103332 94.1817574,279.3848 C94.1817574,354.681885 81.2744781,553 272.998335,553 C464.710433,553 451.818832,354.681885 451.818832,279.3848 L451.818832,279.3848 Z" id="Fill-7" stroke="#66320F" stroke-width="10" fill="#F6DED2" stroke-linejoin="round"></path>
                <path d="M200.205782,393 L200.205782,393 C191.956462,393 185.205782,386.700952 185.205782,379 L185.205782,365 C185.205782,357.300634 191.954763,351 200.205782,351 L200.205782,351 C208.455103,351 215.205782,357.299048 215.205782,365 L215.205782,379 C215.205782,386.700952 208.455103,393 200.205782,393 L200.205782,393 Z" id="Shape" stroke="#66320F" stroke-width="10" fill="#7B351E" stroke-linejoin="round"></path>
                <path d="M346.205782,393 L346.205782,393 C337.956462,393 331.205782,386.700952 331.205782,379 L331.205782,365 C331.205782,357.300634 337.954763,351 346.205782,351 L346.205782,351 C354.455103,351 361.205782,357.299048 361.205782,365 L361.205782,379 C361.205782,386.700952 354.455103,393 346.205782,393 L346.205782,393 Z" id="Shape" stroke="#66320F" stroke-width="10" fill="#7B351E" stroke-linejoin="round"></path>
                <path d="M278.000871,493 C264.910717,493 252.229707,490.400412 241.322869,485.477942 C235.906589,483.034912 233.512613,476.688858 235.95895,471.295502 C238.404069,465.911854 244.766493,463.516155 250.182772,465.954331 C266.474229,473.308908 289.526294,473.308908 305.817752,465.954331 C311.234031,463.517369 317.606196,465.913068 320.041573,471.295502 C322.486692,476.688858 320.093934,483.034912 314.677655,485.477942 C303.772035,490.401625 291.091024,493 278.000871,493 L278.000871,493 Z" id="Shape" stroke="#66320F" stroke-width="10" fill="#F26D6D" stroke-linejoin="round"></path>
                <path d="M166.877654,311.76808 C175.973518,316.423473 190.60023,295.948512 224.089548,313.760971 C230.185962,317.013369 233.825088,286 197.944789,286 C166.877654,286 161.37801,308.966075 166.877654,311.76808 L166.877654,311.76808 Z" id="Fill-10" stroke="#66320F" stroke-width="10" fill="#8C6239" stroke-linejoin="round"></path>
                <path d="M382.122838,311.76808 C373.01297,316.423473 358.388823,295.948512 324.920977,313.760971 C318.810033,317.013369 315.171546,286 351.045552,286 C382.122838,286 387.621517,308.966075 382.122838,311.76808 L382.122838,311.76808 Z" id="Fill-13" stroke="#66320F" stroke-width="10" fill="#8C6239" stroke-linejoin="round"></path>
                <path d="M49,693 C49,646.041002 166.99356,577 273,577 L276.169609,577.020621 C380.876217,578.378612 496,646.510592 496,693 L496,693 L49,693 Z" id="形状结合" stroke="#66320F" stroke-width="10" fill="#6236FF" stroke-linejoin="round"></path>
                <path d="M345,611 L274,691.861 L274,693 L273.5,692.431 L273,693 L273,691.861 L202,611 L227.582904,617.876261 L273.5,634.99 L319.402864,617.876261 L345,611 Z" id="形状结合" stroke="none" fill="#FFFFFF"></path>
                <path d="M271.501966,577 C247.099596,577 222.083924,580.658115 198,586.807027 C203.31529,607.60792 219.854805,640 271.501966,640 C323.133401,640 339.672916,607.623536 345,586.807027 C320.904282,580.658115 295.88861,577 271.501966,577 L271.501966,577 Z" id="Fill-21" stroke="none" fill="#FFFFFF"></path>
                <path d="M233,571.557871 C233,571.557871 233,619 274.00523,619 C315,619 315,571.557871 315,571.557871 C315,571.557871 272.467664,552.302662 233,571.557871 L233,571.557871 Z" id="Fill-22" stroke="none" fill="#F6DED2"></path>
                <path d="M534.006269,251.465896 C556.131778,232.565668 534.006269,203.5013 534.006269,203.5013 C547.832752,170.063035 517.404296,152.625975 517.404296,152.625975 C520.175865,116.288687 488.371426,110.467229 488.371426,110.467229 C482.843969,77.0445713 453.521006,78.4921321 453.521006,78.4921321 C440.792174,42.1548439 408.544754,47.9645961 408.544754,47.9645961 C396.462752,17.4370601 361.608411,27.6168072 361.608411,27.6168072 C341.317547,1.44756082 313.005991,23.2585177 313.005991,23.2585177 C310.508835,11.6273079 298.932536,0 274.50588,0 C250.067464,0 238.491165,11.6273079 235.994009,23.2585177 C235.994009,23.2585177 207.682453,1.44756082 187.391589,27.6168072 C187.391589,27.6168072 152.537248,17.4370601 140.455246,47.9645961 C140.455246,47.9645961 108.207826,42.1548439 95.4789945,78.4921321 C95.4789945,78.4921321 66.1560308,77.0289642 60.6285737,110.467229 C60.6285737,110.467229 28.8241346,116.288687 31.5957035,152.625975 C31.5957035,152.625975 1.16724844,170.063035 14.9937315,203.5013 C14.9937315,203.5013 -7.13177751,232.565668 14.9937315,251.465896 C14.9937315,251.465896 -16.8107076,280.49905 12.2221626,305.236342 C-8.51168169,348.323712 26.0525658,371.0789 26.0525658,371.0789 C12.2221626,419.457085 57.8570048,429.379314 57.8570048,429.379314 C59.3584347,461.108599 95.4789945,465.150844 95.4789945,465.150844 C95.4789945,465.150844 103.487927,488.409362 126.887495,474.643878 C150.287063,460.882296 117.31833,411.360889 117.31833,411.360889 C136.687951,389.553834 117.31833,354.406589 117.31833,354.406589 C139.169426,337.730376 117.31833,305.236342 117.31833,305.236342 C146.366881,302.310006 140.455246,264.556372 140.455246,264.556372 C169.13922,270.366124 184.741546,239.518642 184.741546,239.518642 C217.588753,253.736732 235.994009,231.118107 235.994009,231.118107 C263.392163,250.018335 274.50588,231.118107 274.50588,231.118107 C274.50588,231.118107 285.607837,250.018335 313.005991,231.118107 C313.005991,231.118107 331.411247,253.736732 364.258454,239.518642 C364.258454,239.518642 379.876461,270.366124 408.544754,264.556372 C408.544754,264.556372 402.633119,302.310006 431.68167,305.236342 C431.68167,305.236342 409.830574,337.730376 431.68167,354.406589 C431.68167,354.406589 412.32773,389.553834 431.68167,411.360889 C431.68167,411.360889 398.712937,460.882296 422.112505,474.643878 C445.512073,488.393755 453.521006,465.150844 453.521006,465.150844 C453.521006,465.150844 489.641565,461.108599 491.142995,429.379314 C491.142995,429.379314 536.777837,419.457085 522.947434,371.0789 C522.947434,371.0789 557.511682,348.323712 536.777837,305.236342 C565.810708,280.49905 534.006269,251.465896 534.006269,251.465896 L534.006269,251.465896 Z" id="Fill-24" stroke="#66320F" stroke-width="10" fill="#8C6239" stroke-linejoin="round"></path>
                <path d="M203.218468,585.792594 C204.594126,576.843657 149.544296,583.439051 150.002849,608.698589 C150.445725,633.942489 210.825739,653.368993 227.408099,662.564231 C244.002217,671.75556 273.502435,693 273.502435,693 C273.502435,693 279.032501,671.66564 253.2203,655.202567 C227.408099,638.755133 201.380339,597.747968 203.218468,585.792594 L203.218468,585.792594 Z" id="Fill-26" stroke="#66320F" stroke-width="10" fill="#6CBCDB" stroke-linejoin="round"></path>
                <path d="M343.93417,585.792594 C342.562857,576.843657 397.438827,583.439051 396.99735,608.698589 C396.540246,633.942489 336.366553,653.368993 319.820936,662.564231 C303.279226,671.75556 273.395537,693 273.395537,693 C273.395537,693 268.375202,671.66564 294.105883,655.202567 C319.820936,638.755133 345.782122,597.747968 343.93417,585.792594 L343.93417,585.792594 Z" id="Fill-27" stroke="#66320F" stroke-width="10" fill="#6CBCDB" stroke-linejoin="round"></path>
            </g>
        </g>
    </g>
</svg>