<?xml version="1.0" encoding="UTF-8"?>
<svg width="1024px" height="1024px" viewBox="0 0 1024 1024" version="1.1" xmlns="http://www.w3.org/2000/svg" xmlns:xlink="http://www.w3.org/1999/xlink">
    <!-- Generator: Sketch 64 (93537) - https://sketch.com -->
    <title>线性工人</title>
    <desc>Created with Sketch.</desc>
    <defs>
        <circle id="path-1" cx="512.5" cy="512.5" r="403.5"></circle>
    </defs>
    <g id="线性工人" stroke="none" stroke-width="1" fill="none" fill-rule="evenodd">
        <mask id="mask-2" fill="white">
            <use xlink:href="#path-1"></use>
        </mask>
        <circle stroke="#66320F" stroke-width="10" cx="512.5" cy="512.5" r="398.5"></circle>
        <g id="coach" mask="url(#mask-2)">
            <g transform="translate(227.000000, 231.000000)">
                <polygon id="Rectangle-path" stroke="none" fill="#FFFFFF" points="196 64 376 64 376 155 196 155"></polygon>
                <path d="M465.072036,160 L105.927964,160 C99.0795336,160 92.8596252,162.845285 88.3478842,167.410927 C83.8147194,171.998249 81,178.325285 81,185.285509 L81,203 L490,203 L490,185.285509 C490,178.350757 487.275275,172.037764 482.567269,167.398986 C478.100901,162.753182 471.893751,160 465.072036,160 Z" id="Shape" stroke="#66320F" stroke-width="10" fill="#7799FF"></path>
                <path d="M286,5 C234.568139,5 199.426317,13.9339115 175.468882,25.9852272 C131.551712,48.0768945 126.345248,80.7216377 126,83.2886573 L126,161 L191.000517,161 L191.000517,70.4550653 L380.999483,70.4550653 L380.999483,161 L446,161 L446,83.3149122 C445.429138,79.7068476 431.848158,5 286,5 Z" id="Shape" stroke="#66320F" stroke-width="10" fill="#6DAEF2"></path>
                <path d="M179.874257,504.54331 L285.014096,592.493093 L391.082585,504.544796 C379.758332,497.156721 368.200621,488.83811 360.507335,481.383163 C350.627638,491.870991 322.226477,518.073239 284.977494,518.062682 L283.619918,518.050656 C247.419844,517.419924 219.86442,491.804783 210.155012,481.413402 C202.524137,488.861271 191.083081,497.166493 179.874257,504.54331 Z" id="形状结合" stroke="#66320F" stroke-width="10" fill="#FFC400"></path>
                <path d="M399.387338,509.539602 L285.000008,606.343816 L170.612442,509.539885 C156.893304,518.200761 145.361034,524.578803 144.11288,525.186959 C97.9444158,540.913142 66.9798901,560.810167 46.2594196,580.421985 C6.48578784,618.06752 5.03188201,654.41834 5,655.388084 L5,690 L565,690 L565,655.353369 C564.985803,654.813843 562.561906,570.988785 425.536144,525.069376 C425.231285,524.912769 425.085276,524.832253 425.085276,524.832253 C425.085276,524.832253 413.40828,518.392992 399.387338,509.539602 Z" id="形状结合" stroke="#66320F" stroke-width="10" fill="#1C75BC"></path>
                <path d="M355,422.528287 C334.17268,433.406788 310.694231,439.359328 284.99929,439.359328 C259.304352,439.359328 235.827067,433.406803 215,422.528313 L215,479.205451 C220.288751,486.085705 247.546718,519 284.99929,519 C322.451886,519 349.710963,486.085719 355,479.205392 L355,422.528287 Z" id="Shape" stroke="#66320F" stroke-width="10" fill="#F0D0C0"></path>
                <path d="M450.117668,225.110786 L450.117668,264.667137 C450.117668,272.488178 449.725549,280.2203 448.869326,287.794642 C458.371485,285.348968 467.564313,280.269814 474.803874,273.992485 C483.050259,266.842151 489,258.091028 489,249.778561 C489,241.921997 484.94907,236.193622 478.514703,232.273879 C471.293495,227.874801 461.306979,225.616756 450.117668,225.110786 Z" id="Shape" stroke="#66320F" stroke-width="10" fill="#F0D0C0"></path>
                <path d="M122.757763,225.09819 C110.684728,225.581306 99.9096878,227.864804 92.1353888,232.337707 C88.5415514,234.405403 85.625796,236.939215 83.6791204,240.04643 C81.9319782,242.835158 81,246.077722 81,249.778561 C81,258.078314 87.3260874,266.77755 96.0248819,273.901128 C103.846267,280.306182 113.81043,285.463304 124.086572,287.88462 C123.175129,280.281184 122.756476,272.519223 122.757763,264.667728 L122.757763,225.09819 Z" id="Shape" stroke="#66320F" stroke-width="10" fill="#F0D0C0"></path>
                <path d="M445.999997,203 L126,203 L126,265.36325 C126,275.155547 126.582646,284.802739 127.90227,294.168457 C135.764658,350.979327 166.516065,398.751717 213.304938,422.898705 C234.530812,433.925854 258.959459,440 285.999288,440 C313.039182,440 337.467879,433.925817 358.707072,422.892484 C405.483932,398.751717 436.23534,350.979327 444.099413,294.15639 C445.41731,284.801653 446.001385,275.156052 445.999998,265.363958 L445.999997,203 Z" id="Shape" stroke="#66320F" stroke-width="10" fill="#FDDCCC"></path>
                <path d="M223.547619,290.940594 L223.547619,290.940594 C216.646997,290.940594 211,285.550319 211,278.960396 L211,266.980198 C211,260.391632 216.645576,255 223.547619,255 L223.547619,255 C230.448241,255 236.095238,260.390275 236.095238,266.980198 L236.095238,278.960396 C236.095238,285.550319 230.448241,290.940594 223.547619,290.940594 L223.547619,290.940594 Z" id="Shape" stroke="none" fill="#7B351E"></path>
                <path d="M349.02381,290.940594 L349.02381,290.940594 C342.123188,290.940594 336.47619,285.550319 336.47619,278.960396 L336.47619,266.980198 C336.47619,260.391632 342.121766,255 349.02381,255 L349.02381,255 C355.924431,255 361.571429,260.390275 361.571429,266.980198 L361.571429,278.960396 C361.571429,285.550319 355.924431,290.940594 349.02381,290.940594 L349.02381,290.940594 Z" id="Shape" stroke="none" fill="#7B351E"></path>
                <path d="M251.777205,354.113075 C249.865541,353.261367 247.781687,353.253316 245.96037,353.930213 C244.161057,354.598932 242.614638,355.938895 241.758913,357.803674 C240.914958,359.645208 240.904711,361.652056 241.575221,363.406709 C242.253255,365.181049 243.623776,366.692967 245.513645,367.536645 C257.638932,372.952824 271.738469,375.792079 286.28673,375.792079 C300.83473,375.792079 314.934054,372.954342 327.056782,367.537365 C328.948015,366.693079 330.318129,365.18137 330.996055,363.407312 C331.666732,361.652223 331.65649,359.644834 330.811704,357.800571 C329.959238,355.935887 328.414462,354.599692 326.617777,353.93195 C324.794373,353.254277 322.707165,353.261495 320.789162,354.115605 C300.584568,363.143053 271.987472,363.143053 251.777205,354.113075 Z" id="Shape" stroke="#66320F" stroke-width="10" fill="#F26D6D"></path>
                <rect id="Rectangle-path" stroke="#66320F" stroke-width="10" fill="#FFFFFF" x="357" y="617" width="91" height="22"></rect>
                <rect id="Rectangle-path" stroke="#66320F" stroke-width="10" fill="#FFFFFF" x="123" y="617" width="91" height="22"></rect>
                <polygon id="Rectangle-path" stroke="#66320F" stroke-width="10" fill="#FFC400" points="240 98 331 98 331 120 240 120"></polygon>
            </g>
        </g>
    </g>
</svg>