<?xml version="1.0" encoding="UTF-8"?>
<svg width="1024px" height="1024px" viewBox="0 0 1024 1024" version="1.1" xmlns="http://www.w3.org/2000/svg" xmlns:xlink="http://www.w3.org/1999/xlink">
    <!-- Generator: Sketch 64 (93537) - https://sketch.com -->
    <title>线性直发女士</title>
    <desc>Created with Sketch.</desc>
    <defs>
        <circle id="path-1" cx="512.5" cy="512.5" r="403.5"></circle>
    </defs>
    <g id="线性直发女士" stroke="none" stroke-width="1" fill="none" fill-rule="evenodd">
        <mask id="mask-2" fill="white">
            <use xlink:href="#path-1"></use>
        </mask>
        <circle stroke="#66320F" stroke-width="10" cx="512.5" cy="512.5" r="398.5"></circle>
        <g id="girl-1" mask="url(#mask-2)">
            <g transform="translate(268.000000, 245.000000)">
                <path d="M245,364 L245,668 L32.3104776,668 C32.3104776,668 32.3104776,537.627552 9,433.774825 L245,364 Z" id="Fill-1" stroke="none" fill="#662B18"></path>
                <path d="M244,364 L244,668 L456.701913,668 C456.701913,668 456.685392,537.627552 480,433.774825 L244,364 Z" id="Fill-2" stroke="none" fill="#662B18"></path>
                <polygon id="Fill-3" stroke="#66320F" stroke-width="10" fill="#F2DED4" stroke-linejoin="round" points="197 611 294 611 294 502 197 502"></polygon>
                <path d="M197,514.922166 C197,514.922166 235.709249,541.170575 289,535.08441 L289,502 L197,502 L197,514.922166 Z" id="Fill-4" stroke="none" fill="#ECCAB8"></path>
                <path d="M104,334.002063 C104,363.829023 82.7348033,388 56.4937906,388 C30.2651967,388 9,363.829023 9,334.002063 C9,304.170977 30.2651967,280 56.4937906,280 C82.7348033,280 104,304.170977 104,334.002063 L104,334.002063 Z" id="Fill-5" stroke="none" fill="#FCBC85"></path>
                <path d="M481,334.002063 C481,363.829023 459.734803,388 433.510349,388 C407.281755,388 386,363.829023 386,334.002063 C386,304.170977 407.281755,280 433.510349,280 C459.734803,280 481,304.170977 481,334.002063 L481,334.002063 Z" id="Fill-6" stroke="none" fill="#FCBC85"></path>
                <path d="M433.808596,230.810492 C433.808596,151.223334 375.567664,93 245.501753,93 C115.431715,93 57.1907828,151.223334 57.1907828,230.810492 C57.1907828,310.377016 43.6149908,520 245.501753,520 C447.400899,520 433.808596,310.377016 433.808596,230.810492 L433.808596,230.810492 Z" id="Fill-7" stroke="#66320F" stroke-width="10" fill="#F2DED4" stroke-linejoin="round"></path>
                <path d="M246.000195,459 C236.243147,459 226.802363,457.047038 218.69641,453.359524 C214.673792,451.523958 212.891298,446.761678 214.716383,442.721066 C216.541468,438.680454 221.281797,436.88402 225.306228,438.720496 C237.399457,444.227195 254.601839,444.227195 266.695068,438.720496 C270.729467,436.89312 275.464359,438.681364 277.284007,442.721066 C279.108186,446.760768 277.326598,451.523958 273.303979,453.359524 C265.195308,457.047038 255.753618,459 246.000195,459 L246.000195,459 Z" id="Shape" stroke="#66320F" stroke-width="10" fill="#EB7480" stroke-linejoin="round"></path>
                <path d="M121.966736,272.250398 C131.51048,275.905528 146.83113,259.825411 181.892949,273.81221 C188.294938,276.36753 192.106716,252 154.507797,252 C121.966736,252 116.206171,270.046691 121.966736,272.250398 L121.966736,272.250398 Z" id="Fill-10" stroke="none" fill="#7B351E"></path>
                <path d="M369.033264,272.250398 C359.48952,275.905528 344.16887,259.825411 309.107051,273.81221 C302.705062,276.36753 298.893284,252 336.492203,252 C369.033264,252 374.793829,270.046691 369.033264,272.250398 L369.033264,272.250398 Z" id="Fill-13" stroke="none" fill="#7B351E"></path>
                <path d="M33,687 C33,630.102058 133.543321,546.500398 244.999504,546.002237 L245,546.002 C245.043044,546 245.086086,546.000012 245.129127,546.000037 L245.250176,546.00042 L245.250176,546.00042 L246,546 L247.768595,546.017108 C248.041926,546.020482 248.315188,546.024354 248.58838,546.028722 L246,546 C247.687973,546.007581 249.373446,546.034224 251.056107,546.079548 C251.36354,546.089941 251.671148,546.098847 251.97866,546.108375 C252.769004,546.130783 253.558555,546.159394 254.34744,546.192075 C254.675194,546.207691 255.002794,546.221962 255.330277,546.236933 C256.103444,546.27027 256.876006,546.309534 257.647885,546.352659 C257.981038,546.373239 258.314558,546.392594 258.647948,546.412667 C259.431769,546.457927 260.214213,546.509066 260.995907,546.564131 C261.319705,546.588837 261.643915,546.612352 261.967994,546.636541 C262.753034,546.693271 263.536908,546.7558 264.319978,546.822235 C264.633328,546.850647 264.947192,546.877907 265.260925,546.905792 C266.009213,546.970504 266.756015,547.040516 267.502043,547.114045 C267.88305,547.153361 268.264261,547.191865 268.645267,547.231283 C269.335282,547.300936 270.02451,547.375325 270.713041,547.452685 C271.114521,547.499494 271.515985,547.54563 271.917207,547.592773 C272.621503,547.673856 273.32465,547.759672 274.027028,547.848555 C274.414285,547.899197 274.802035,547.949222 275.189546,548.000178 C275.928334,548.095718 276.665543,548.196164 277.401858,548.299952 C277.737698,548.348865 278.074176,548.397011 278.410465,548.445853 C279.169868,548.554601 279.927455,548.668326 280.684049,548.785552 C281.009487,548.837491 281.335654,548.8887 281.661634,548.940557 C282.41469,549.058867 283.165882,549.181995 283.916045,549.308539 C284.25117,549.366529 284.586352,549.423781 284.921326,549.481713 C285.611032,549.599558 286.299882,549.721735 286.987825,549.846764 C287.396089,549.922367 287.803851,549.99753 288.21129,550.073689 C288.91121,550.20314 289.610513,550.336992 290.308835,550.473758 C290.659484,550.543783 291.009577,550.613126 291.359419,550.683198 C292.09926,550.83006 292.838227,550.981575 293.576044,551.13632 C293.898271,551.205197 294.220653,551.273469 294.542814,551.342356 C295.320676,551.507413 296.096713,551.677218 296.87142,551.850558 C297.151674,551.914508 297.432153,551.977763 297.712456,552.041479 C298.452251,552.208422 299.19045,552.379729 299.927392,552.554211 C300.259065,552.633935 300.59077,552.713171 300.922217,552.793047 C301.655333,552.96855 302.387059,553.148341 303.117494,553.331229 C303.437009,553.412377 303.756736,553.493082 304.076212,553.574378 C304.720105,553.737102 305.362375,553.903206 306.003608,554.071682 C306.442767,554.188167 306.881775,554.304745 307.320291,554.42243 C307.904951,554.578254 308.488743,554.737137 309.071642,554.897966 C309.521902,555.023255 309.971881,555.148713 310.42132,555.275325 C311.078011,555.459287 311.733011,555.646603 312.386836,555.836349 C312.735728,555.938613 313.085007,556.040764 313.433947,556.143606 C314.14179,556.351236 314.847545,556.562501 315.551877,556.776569 C315.886366,556.879199 316.221393,556.981751 316.556095,557.084935 C317.194767,557.28088 317.831392,557.479811 318.466813,557.681008 C318.863884,557.807665 319.260556,557.934294 319.656752,558.061803 C320.269525,558.258101 320.881622,558.457573 321.49256,558.659126 C321.901585,558.794956 322.309801,558.930727 322.717492,559.067423 C323.339386,559.275069 323.960158,559.485779 324.579688,559.698614 C324.958583,559.829631 325.33743,559.960733 325.715806,560.092626 C326.358961,560.315985 327.000207,560.542273 327.640072,560.770814 C328.001999,560.900895 328.364265,561.031163 328.726084,561.162149 C329.362163,561.391632 329.995885,561.623779 330.628205,561.858112 C330.990644,561.993204 331.353531,562.128575 331.71595,562.264663 C332.332762,562.495516 332.947583,562.728968 333.561031,562.964465 C333.943669,563.112097 334.325951,563.259849 334.707693,563.40839 C335.317503,563.644951 335.925973,563.884275 336.533042,564.125588 C336.896175,564.270643 337.258679,564.415647 337.620679,564.561357 C338.261303,564.818525 338.900544,565.078684 339.538177,565.341025 C339.882754,565.483467 340.226939,565.625902 340.570652,565.768969 C341.103124,565.989945 341.634306,566.213041 342.164337,566.437635 C342.622967,566.632617 343.081009,566.82819 343.538179,567.024875 C344.055514,567.246817 344.571395,567.470668 345.086147,567.695925 C345.519042,567.885973 345.951474,568.076546 346.383098,568.268104 C346.892747,568.493691 347.401105,568.721182 347.908322,568.950028 C348.362421,569.155491 348.815872,569.361574 349.268398,569.568732 C349.737469,569.782896 350.205059,569.998563 350.671646,570.21537 C351.152662,570.439436 351.63305,570.664359 352.112357,570.890482 C352.585533,571.11317 353.057483,571.33749 353.52837,571.562963 C353.979211,571.779365 354.429244,571.996372 354.878291,572.214426 C355.407479,572.470881 355.935197,572.729257 356.46153,572.989064 C356.857042,573.184796 357.251801,573.380846 357.64577,573.577696 C358.130665,573.819489 358.614392,574.063001 359.096912,574.307708 C359.550111,574.53802 360.002435,574.769005 360.453681,575.001033 C360.938196,575.249706 361.421153,575.499883 361.902855,575.751243 C362.303148,575.960572 362.702762,576.170363 363.101501,576.380963 C363.635372,576.662496 364.167693,576.945932 364.698427,577.230795 C365.082577,577.437407 365.465586,577.64417 365.847759,577.851671 C366.341133,578.119132 366.833637,578.388532 367.324729,578.659145 C367.71573,578.875007 368.105939,579.09129 368.495245,579.308333 C369.026501,579.604124 369.555518,579.901414 370.082837,580.200094 C370.429651,580.396914 370.775949,580.594076 371.121506,580.791834 C371.664505,581.102214 372.205716,581.414463 372.745075,581.728155 C373.081549,581.924208 373.41782,582.120764 373.753362,582.317876 C374.229012,582.596947 374.702446,582.877042 375.174407,583.158235 C375.574146,583.396737 375.973091,583.635843 376.370969,583.875727 C376.808956,584.139461 377.245785,584.404554 377.681309,584.670575 C378.103384,584.928703 378.524201,585.187359 378.943782,585.446874 C379.370932,585.710758 379.796789,585.975841 380.221354,586.241799 C380.628922,586.497412 381.035658,586.753754 381.441188,587.010891 C381.900234,587.30167 382.357119,587.593367 382.81245,587.886063 C383.191102,588.129751 383.569007,588.374055 383.945826,588.619041 C384.41342,588.922769 384.879312,589.227802 385.343516,589.533865 C385.690213,589.762717 386.035997,589.991894 386.380834,590.221637 C386.846141,590.531383 387.309688,590.842398 387.771493,591.154422 C388.128309,591.395758 388.484339,591.637619 388.839321,591.880073 C389.275526,592.177763 389.709753,592.476323 390.142384,592.775761 C390.509586,593.030146 390.875994,593.285176 391.241241,593.540829 C391.709054,593.868047 392.174822,594.196415 392.638669,594.525783 C392.950697,594.747565 393.262159,594.969796 393.572744,595.192473 C394.026959,595.517916 394.478809,595.844172 394.928769,596.171358 C395.267423,596.417811 395.605398,596.664872 395.942293,596.912451 C396.365563,597.22331 396.786958,597.53506 397.206635,597.847611 C397.549193,598.102919 397.890883,598.358776 398.231419,598.615156 C398.706029,598.972296 399.178031,599.33036 399.647773,599.689415 C399.920986,599.898427 400.193713,600.10781 400.465669,600.317524 C400.92702,600.673113 401.385964,601.02968 401.842672,601.387172 C402.137319,601.617974 402.431271,601.84918 402.724285,602.080765 C403.150541,602.4175 403.574643,602.755061 403.996743,603.093401 C404.305565,603.341096 404.613242,603.588992 404.919841,603.837297 C405.321912,604.162771 405.722358,604.489286 406.120933,604.816486 C406.442878,605.080919 406.763706,605.345741 407.083304,605.611 C407.454481,605.918931 407.823664,606.227308 408.19118,606.536258 C408.538554,606.828409 408.884537,607.121021 409.229017,607.414131 C409.613819,607.741422 409.99692,608.069613 410.378131,608.398409 C410.675991,608.655437 410.972474,608.912516 411.267797,609.169955 C411.644548,609.498258 412.019726,609.827542 412.392999,610.157395 C412.717057,610.443871 413.039499,610.7305 413.360497,611.017546 C413.649524,611.275894 413.937399,611.534705 414.224096,611.793845 C414.614404,612.146739 415.002565,612.500172 415.388526,612.854192 C415.631803,613.077237 415.874236,613.300644 416.115791,613.524279 C416.52899,613.906923 416.939469,614.289997 417.347355,614.673712 C417.659504,614.967271 417.970503,615.261647 418.27997,615.556386 C418.600521,615.861769 418.919248,616.16728 419.236322,616.473166 C419.591703,616.815926 419.945,617.159234 420.296204,617.502994 C420.578771,617.779652 420.859807,618.056347 421.139482,618.333326 C421.477646,618.668153 421.813977,619.003626 422.148301,619.339495 C422.425685,619.618231 422.70196,619.897444 422.976844,620.17692 C423.330685,620.536608 423.681436,620.895991 424.029873,621.255787 C424.282593,621.516808 424.53453,621.778433 424.785239,622.040268 C425.062203,622.329462 425.337566,622.618866 425.611423,622.908514 C425.944056,623.260387 426.274271,623.612351 426.602249,623.964655 C426.783274,624.159047 426.964171,624.3542 427.14438,624.549453 C427.536313,624.974165 427.924436,625.398686 428.309287,625.823649 C428.529755,626.067043 428.749735,626.311288 428.96863,626.555673 C429.310901,626.93785 429.650236,627.319998 429.986902,627.70246 C430.252285,628.003899 430.515834,628.305378 430.777716,628.60704 C431.052496,628.9236 431.325544,629.240438 431.596744,629.557465 C431.879311,629.887738 432.159907,630.218298 432.438485,630.549046 C432.695831,630.854626 432.951312,631.160156 433.205061,631.465833 C433.468319,631.782928 433.72992,632.100471 433.989642,632.418158 C434.245633,632.731316 434.499872,633.044669 434.752275,633.35815 C435.003584,633.670243 435.252799,633.982151 435.500188,634.294172 C435.754886,634.615441 436.007757,634.936942 436.258679,635.258548 C436.532644,635.609662 436.804338,635.961 437.073691,636.312445 C437.28482,636.587947 437.494655,636.863679 437.703042,637.139467 C437.969863,637.492569 438.23402,637.845397 438.495793,638.198299 C438.709778,638.486798 438.922286,638.775483 439.133191,639.064208 C439.350766,639.362041 439.566715,639.66005 439.780947,639.958089 C440.024109,640.296395 440.265085,640.634756 440.503834,640.973139 C440.697501,641.247607 440.889562,641.521908 441.080154,641.796213 C441.331312,642.157707 441.579876,642.51913 441.825871,642.880543 C442.030964,643.181845 442.234577,643.483611 442.436389,643.785358 C442.65579,644.113419 442.872843,644.441107 443.08776,644.768757 C443.320748,645.123943 443.551338,645.479273 443.7794,645.834539 C443.958239,646.113139 444.135523,646.391688 444.311245,646.670188 C444.517084,646.99641 444.720731,647.322498 444.922223,647.648505 C445.114755,647.960024 445.305422,648.271627 445.494108,648.583143 C445.669997,648.873522 445.844031,649.163609 446.016339,649.45361 C446.220914,649.797928 446.422973,650.141974 446.622586,650.485881 C446.801945,650.794881 446.979655,651.10435 447.155372,651.413694 C447.337423,651.734201 447.517063,652.054075 447.694559,652.373799 C447.921307,652.782233 448.144772,653.190832 448.364706,653.599158 C448.481163,653.815372 448.596813,654.031851 448.711466,654.248248 C448.89426,654.593256 449.074144,654.937333 449.251491,655.281186 C449.404914,655.578657 449.556569,655.876218 449.706313,656.173599 C449.793452,656.346646 449.880046,656.519844 449.96599,656.692979 C450.504165,657.777152 451.016719,658.85863 451.503296,659.937059 C451.591587,660.132738 451.679448,660.329275 451.766442,660.525708 C451.957554,660.957255 452.144088,661.387362 452.326428,661.816929 C452.328455,661.821702 452.330856,661.827359 452.333255,661.833016 L452.326428,661.816929 C452.588108,662.433406 452.84115,663.048772 453.085469,663.66292 C453.494718,664.69163 453.879725,665.717587 454.239814,666.73962 C454.313541,666.948879 454.386222,667.157968 454.457855,667.366888 C454.811942,668.399586 455.140509,669.428458 455.443027,670.452681 C455.501343,670.650119 455.558717,670.847475 455.615119,671.044653 C455.687121,671.29637 455.757505,671.547675 455.826301,671.798685 C456.258066,673.374055 456.627216,674.937615 456.932233,676.487621 C457.140863,677.547825 457.319474,678.601594 457.467583,679.648408 C457.820293,682.141465 458,684.594595 458,687 L458,687 L33,687 Z" id="形状结合" stroke="#66320F" stroke-width="10" fill="#F7B500" stroke-linejoin="round"></path>
                <path d="M244.993827,546 C196.907746,546 150.850631,559.594025 114,578.978174 C141.86227,621.316911 183.322317,656 244.993827,656 C306.661221,656 348.13773,621.304556 376,578.978174 C339.137023,559.594025 293.075792,546 244.993827,546 L244.993827,546 Z" id="Fill-22" stroke="#66320F" stroke-width="10" fill="#FFFFFF" stroke-linejoin="round"></path>
                <path d="M244.993811,546 C207.226707,546 170.817124,554.381147 139,567.225143 C159.049203,601.978039 191.819479,634 244.993811,634 C298.164016,634 330.934292,601.978039 351,567.225143 C319.182876,554.381147 282.756788,546 244.993811,546 L244.993811,546 Z" id="Fill-23" stroke="#66320F" stroke-width="10" fill="#F7B500" stroke-linejoin="round"></path>
                <path d="M197,550.14052 C197,550.14052 211.194216,589 245.502063,589 C279.822284,589 294,550.14052 294,550.14052 C294,550.14052 243.678801,531.82435 197,550.14052 L197,550.14052 Z" id="Fill-24" stroke="none" fill="#FDCC9B"></path>
                <path d="M245.002062,546 C216.077976,546 187.929379,551.007557 162,559.17603 C175.748428,587.333138 200.592948,617 245.002062,617 C289.407052,617 314.255697,587.333138 328,559.17603 C302.087121,551.007557 273.922024,546 245.002062,546 L245.002062,546 Z" id="Fill-25" stroke="#66320F" stroke-width="10" fill="#FFFFFF" stroke-linejoin="round"></path>
                <path d="M183,553.421939 C191.109295,575.155836 208.553566,604 245.002063,604 C281.450561,604 298.907212,575.155836 307,553.421939 C287.141512,548.746865 266.280194,546 245.002063,546 C223.719806,546 202.879123,548.746865 183,553.421939 L183,553.421939 Z" id="Fill-26" stroke="#66320F" stroke-width="10" fill="#F7B500" stroke-linejoin="round"></path>
                <path d="M289,541.794442 C289,541.794442 283.350457,584 245.50185,584 C207.664342,584 202,541.794442 202,541.794442 C202,541.794442 218.967127,530 245.50185,530 C272.032873,530 289,541.794442 289,541.794442 L289,541.794442 Z" id="Fill-27" stroke="none" fill="#F2DED4"></path>
                <path d="M245.205371,0.0288524976 L245.205371,0 C244.962131,0 244.735383,0.0164871415 244.496266,0.0164871415 C244.253026,0.0164871415 244.026278,0 243.787161,0 L243.787161,0.0288524976 C25.494167,0.869696712 -10.7114096,190.871637 2.34931311,378.013058 C15.4430174,565.566657 127.415627,631 127.415627,631 C66.3501524,567.017526 81.3567908,419.309225 81.3567908,419.309225 C107.993574,459.142159 144.714488,462.332421 144.714488,462.332421 C74.7728343,417.248333 77.9761745,261.700397 127.415627,251.960618 C174.055765,242.781402 237.442321,196.250567 244.496266,190.987047 C251.55021,196.250567 314.936767,242.781402 361.572782,251.960618 C411.028725,261.700397 414.219697,417.248333 344.278043,462.332421 C344.278043,462.332421 380.994835,459.142159 407.648109,419.309225 C407.648109,419.309225 422.65887,567.017526 361.572782,631 C361.572782,631 473.561882,565.566657 486.655587,378.013058 C499.699819,190.871637 463.498365,0.869696712 245.205371,0.0288524976 L245.205371,0.0288524976 Z" id="Fill-29" stroke="#66320F" stroke-width="10" fill="#8E462F" stroke-linejoin="round"></path>
            </g>
        </g>
        <path d="M427,595 L427,595 C419.850589,595 414,589.000906 414,581.666667 L414,568.333333 C414,561.000604 419.849116,555 427,555 L427,555 C434.149411,555 440,560.999094 440,568.333333 L440,581.666667 C440,589.000906 434.149411,595 427,595 L427,595 Z" id="Shape" stroke="#66320F" stroke-width="10" fill="#452C24" stroke-linejoin="round" mask="url(#mask-2)"></path>
        <path d="M597,592 L597,592 C589.850589,592 584,586.000906 584,578.666667 L584,565.333333 C584,558.000604 589.849116,552 597,552 L597,552 C604.149411,552 610,557.999094 610,565.333333 L610,578.666667 C610,586.000906 604.149411,592 597,592 L597,592 Z" id="Shape" stroke="#66320F" stroke-width="10" fill="#452C24" stroke-linejoin="round" mask="url(#mask-2)"></path>
    </g>
</svg>