<?xml version="1.0" encoding="UTF-8"?>
<svg width="1024px" height="1024px" viewBox="0 0 1024 1024" version="1.1" xmlns="http://www.w3.org/2000/svg" xmlns:xlink="http://www.w3.org/1999/xlink">
    <!-- Generator: Sketch 64 (93537) - https://sketch.com -->
    <title>面性博士</title>
    <desc>Created with Sketch.</desc>
    <defs>
        <circle id="path-1" cx="512.5" cy="512.5" r="403.5"></circle>
    </defs>
    <g id="面性博士" stroke="none" stroke-width="1" fill="none" fill-rule="evenodd">
        <mask id="mask-2" fill="white">
            <use xlink:href="#path-1"></use>
        </mask>
        <use id="蒙版" fill="#DBDDE9" xlink:href="#path-1"></use>
        <g id="graduate" mask="url(#mask-2)">
            <g transform="translate(206.000000, 232.000000)">
                <polygon id="Rectangle-path" fill="#464655" points="518 48 542 48 542 262 518 262"></polygon>
                <circle id="Oval" fill="#464655" cx="305.5" cy="23.5" r="23.5"></circle>
                <path d="M550.494656,503.497936 L424.384924,472 L188.615076,472 L62.5053438,503.497936 C25.7708013,512.674605 0,545.650841 0,583.480918 L0,660.444593 C0,673.454436 10.5551049,684 23.5767176,684 L589.423282,684 C602.444895,684 613,673.454436 613,660.444593 L613,583.480918 C613,545.650841 587.229199,512.674605 550.494656,503.497936 L550.494656,503.497936 Z" id="Shape" fill="#3C6AB3"></path>
                <path d="M460,480.71665 L425.031513,472 L188.968487,472 L154,480.71665 C158.558084,561.134342 225.208531,625 307,625 C388.791469,625 455.441916,561.135676 460,480.71665 L460,480.71665 Z" id="Shape" fill="#E6EDFC"></path>
                <path d="M305.50199,625 C312.126008,625 318.601469,624.422241 325,623.592467 L321.762269,554 L289.236404,554 L286,623.592467 C292.399857,624.423582 298.877972,625 305.50199,625 L305.50199,625 Z" id="Shape" fill="#72CBEF"></path>
                <polygon id="Rectangle-path" fill="#F2DED4" points="211 401 400 401 400 541 211 541"></polygon>
                <path d="M211,401 L211,497.527307 C322.785402,512.167878 400,412.824974 400,412.824974 L400,401 L211,401 L211,401 Z" id="Shape" fill="#ECCAB8"></path>
                <path d="M447.426283,236.193612 L447.426283,153 L164.571047,153 L164.571047,236.193612 C151.122667,238.92721 141,250.830726 141,265.100241 L141,288.70008 C141,302.970932 151.122667,314.874448 164.571047,317.606709 L164.571047,339.308402 C164.571047,362.980425 175.478748,385.087145 193.637332,398.217773 L246.038354,436.108515 C256.760476,443.862843 269.359738,448 282.24738,448 L329.75262,448 C342.638926,448 355.238188,443.862843 365.961646,436.108515 L418.362668,398.217773 C436.521252,385.087145 447.428953,362.981762 447.428953,339.308402 L447.428953,317.606709 C460.877333,314.873111 471,302.969595 471,288.70008 L471,265.100241 C470.99733,250.829389 460.874663,238.92721 447.426283,236.193612 L447.426283,236.193612 Z" id="Shape" fill="#F2DED4"></path>
                <path d="M305.999905,388 C291.37598,388 277.210115,385.117537 265.046391,379.669602 C259.012782,376.965782 256.339182,369.938268 259.071229,363.973209 C261.81279,358.021582 268.914752,355.341939 274.960594,358.073966 C293.09948,366.201544 318.901689,366.201544 337.040575,358.073966 C343.09865,355.340596 350.188379,358.010837 352.92994,363.973209 C355.659268,369.935582 352.988387,376.965782 346.954778,379.669602 C334.789695,385.117537 320.62383,388 305.999905,388 L305.999905,388 Z" id="Shape" fill="#EB7480"></path>
                <path d="M246,284 L246,284 C239.400544,284 234,278.450838 234,271.666667 L234,259.333333 C234,252.550559 239.399184,247 246,247 L246,247 C252.599456,247 258,252.549162 258,259.333333 L258,271.666667 C258,278.449441 252.599456,284 246,284 L246,284 Z" id="Shape" fill="#B9835A"></path>
                <path d="M366,284 L366,284 C359.400544,284 354,278.450838 354,271.666667 L354,259.333333 C354,252.550559 359.399184,247 366,247 L366,247 C372.599456,247 378,252.549162 378,259.333333 L378,271.666667 C377.998641,278.449441 372.599456,284 366,284 L366,284 Z" id="Shape" fill="#B9835A"></path>
                <path d="M141.299257,142 C141.119434,145.885995 141,149.787895 141,153.700398 L141,247.299602 L164.692308,259 L197,142.001325 L141.299257,142.001325 L141.299257,142 Z" id="Shape" fill="#B9835A"></path>
                <path d="M415,142 L447.307692,259 L471,247.29947 L471,142 L415,142 L415,142 Z" id="Shape" fill="#B9835A"></path>
                <path d="M282,531 L282,554.332893 C282,560.775705 287.261562,566 293.750333,566 L317.249667,566 C323.738438,566 329,560.775705 329,554.332893 L329,531 L282,531 L282,531 Z" id="Shape" fill="#69B4ED"></path>
                <path d="M211.859056,437 L306,531.153431 C306,531.153431 258.930195,542.923277 223.627174,589.999992 C223.603179,590.030657 190.245071,498.217062 179.707353,469.209753 C177.855754,464.110109 179.732681,458.419839 184.245037,455.410716 L211.859056,437 L211.859056,437 Z" id="Shape" fill="#FFFFFF"></path>
                <path d="M400.140944,437 L306,531.153431 C306,531.153431 353.069805,542.923277 388.372826,589.999992 C388.396821,590.030657 421.754929,498.217062 432.292647,469.209753 C434.144246,464.110109 432.267319,458.419839 427.754963,455.410716 L400.140944,437 L400.140944,437 Z" id="Shape" fill="#FFFFFF"></path>
                <path d="M85.3037962,592.279179 L21.2725808,528 C8.05460175,542.799038 0,562.111857 0,583.089551 L0,660.352881 C0,673.412037 10.5468986,684 23.5554073,684 L106,684 L106,642.442414 C106.001334,623.627853 98.5564646,605.583446 85.3037962,592.279179 L85.3037962,592.279179 Z" id="Shape" fill="#69B4ED"></path>
                <path d="M526.697538,592.279179 L590.727419,528 C603.945398,542.799038 612,562.111857 612,583.089551 L612,660.352881 C612,673.412037 601.453101,684 588.444593,684 L506,684 L506,642.442414 C506,623.627853 513.44487,605.583446 526.697538,592.279179 L526.697538,592.279179 Z" id="Shape" fill="#69B4ED"></path>
                <path d="M565.216869,59 L46.783131,59 C40.2762479,59 35,53.6266425 35,47 C35,40.3733575 40.2762479,35 46.783131,35 L565.216869,35 C571.723752,35 577,40.3733575 577,47 C577,53.6266425 571.723752,59 565.216869,59 L565.216869,59 Z" id="Shape" fill="#464655"></path>
                <path d="M525.552831,247.320919 C513.998159,249.194633 506,260.012281 506,271.681859 L506,317.285305 C506,323.754396 511.261562,329 517.750333,329 L541.249667,329 C547.738438,329 553,323.754396 553,317.285305 L553,270.429177 C552.998669,256.198503 540.275353,244.932331 525.552831,247.320919 L525.552831,247.320919 Z" id="Shape" fill="#FFC400"></path>
                <path d="M165.124196,59 L133.501134,164.098757 C131.505925,170.72922 135.665836,177.63512 142.474904,178.991018 L299.567915,210.316396 C304.142883,211.227868 308.853978,211.227868 313.431615,210.316396 L470.524627,178.991018 C477.333694,177.632459 481.49494,170.72922 479.498396,164.098757 L447.871331,59 L165.124196,59 L165.124196,59 Z" id="Shape" fill="#5B5D6E"></path>
            </g>
        </g>
    </g>
</svg>