<?xml version="1.0" encoding="UTF-8"?>
<svg width="1024px" height="1024px" viewBox="0 0 1024 1024" version="1.1" xmlns="http://www.w3.org/2000/svg" xmlns:xlink="http://www.w3.org/1999/xlink">
    <!-- Generator: Sketch 64 (93537) - https://sketch.com -->
    <title>面性警察</title>
    <desc>Created with Sketch.</desc>
    <defs>
        <circle id="path-1" cx="512.5" cy="512.5" r="403.5"></circle>
    </defs>
    <g id="面性警察" stroke="none" stroke-width="1" fill="none" fill-rule="evenodd">
        <mask id="mask-2" fill="white">
            <use xlink:href="#path-1"></use>
        </mask>
        <use id="蒙版" fill="#DBDDE9" xlink:href="#path-1"></use>
        <g id="policeman" mask="url(#mask-2)">
            <g transform="translate(190.000000, 221.000000)">
                <path d="M322.5,457 L65.0557061,526.131773 C27.2629936,536.280582 1,570.461557 1,609.497586 L1,691.333533 C1,704.957023 12.0716679,716 25.7305537,716 L619.269446,716 C632.928332,716 644,704.957023 644,691.333533 L644,609.496189 C644,570.46016 617.737006,536.279185 579.944294,526.130376 L322.5,457 L322.5,457 Z" id="Shape" fill="#0E1C38"></path>
                <polygon id="Rectangle-path" fill="#FADED0" points="223 419 421 419 421 567 223 567"></polygon>
                <path d="M223,420 L223,520.467197 C340.108517,535.705343 421,432.307626 421,432.307626 L421,420 L223,420 L223,420 Z" id="Shape" fill="#ECCAB8"></path>
                <path d="M470.285914,247.141783 L470.285914,160 L173.714086,160 L173.714086,247.141783 C159.613548,250.005111 149,262.47354 149,277.420252 L149,302.140084 C149,317.088197 159.613548,329.556625 173.714086,332.418553 L173.714086,355.150157 C173.714086,379.945598 185.150737,403.10145 204.189892,416.855226 L259.132013,456.544173 C270.374088,464.666504 283.58433,469 297.096937,469 L346.905863,469 C360.41707,469 373.627312,464.666504 384.867987,456.544173 L439.810108,416.855226 C458.849263,403.10145 470.285914,379.946998 470.285914,355.150157 L470.285914,332.418553 C484.386452,329.555225 495,317.086796 495,302.140084 L495,277.420252 C495.0014,262.47214 484.387851,250.005111 470.285914,247.141783 L470.285914,247.141783 Z" id="Shape" fill="#F2DED4"></path>
                <polygon id="Shape" fill="#FFFFFF" points="303.638063 580 296 716 346 716 338.360521 580"></polygon>
                <path d="M298,556 L298,580.666201 C298,587.477174 303.597406,593 310.500354,593 L335.499646,593 C342.402594,593 348,587.477174 348,580.666201 L348,556 L298,556 L298,556 Z" id="Shape" fill="#D5E1F9"></path>
                <path d="M222.670185,457 L322,555.461105 C322,555.461105 272.335796,567.76944 235.08694,616.999992 C235.061622,617.032059 199.864878,521.017843 188.746341,490.683402 C186.792686,485.35044 188.773065,479.399832 193.534134,476.253036 L222.670185,457 L222.670185,457 Z" id="Shape" fill="#283659"></path>
                <path d="M421.329815,457 L322,555.461105 C322,555.461105 371.664204,567.76944 408.91306,616.999992 C408.938378,617.032059 444.135122,521.017843 455.253659,490.683402 C457.207314,485.35044 455.226935,479.399832 450.465866,476.253036 L421.329815,457 L421.329815,457 Z" id="Shape" fill="#283659"></path>
                <path d="M90.1309032,619.925059 L21.8803746,552 C8.26523009,567.430243 0,587.407624 0,609.050371 L0,691.229956 C0,704.90925 11.1438929,716 24.8887323,716 L112,716 L112,672.46898 C112,652.762379 104.133723,633.861103 90.1309032,619.925059 L90.1309032,619.925059 Z" id="Shape" fill="#4B5F91"></path>
                <path d="M553.869097,619.925059 L622.119625,552 C635.737589,567.42884 644,587.407624 644,609.048968 L644,691.229956 C644,704.90925 632.856107,716 619.111268,716 L532,716 L532,672.46898 C532,652.762379 539.866277,633.861103 553.869097,619.925059 L553.869097,619.925059 Z" id="Shape" fill="#4B5F91"></path>
                <path d="M149.309937,147.00141 C149.123697,151.134678 149,155.284862 149,159.446324 L149,244.711186 C149,252.602739 155.305768,259 163.087561,259 L163.087561,259 C169.294649,259 174.769284,254.87942 176.569145,248.854322 L207,147 L149.309937,147 L149.309937,147.00141 Z" id="Shape" fill="#855B5B"></path>
                <path d="M437,147 L467.431584,248.854322 C469.231488,254.87942 474.707644,259 480.913491,259 L480.913491,259 C488.694081,259 495,252.604149 495,244.711186 L495,147.00141 L437,147.00141 L437,147 Z" id="Shape" fill="#855B5B"></path>
                <path d="M346.666201,407 L297.333799,407 C290.517237,407 285,401.633439 285,395 C285,388.366561 290.51584,383 297.333799,383 L346.666201,383 C353.482763,383 359,388.366561 359,395 C358.998603,401.63072 353.482763,407 346.666201,407 L346.666201,407 Z" id="Shape" fill="#EB7480"></path>
                <path d="M149,173 C149,200.392768 246.929652,235 322,235 C397.070348,235 495,200.392768 495,173 L149,173 L149,173 Z" id="Shape" fill="#5D5D6A"></path>
                <polygon id="Shape" fill="#33334A" points="493.940847 148 531 74.0006986 481.598525 31.4397485 321 0 160.401475 31.4397485 111 74.0006986 148.059153 148"></polygon>
                <rect id="Rectangle-path" fill="#464655" x="149" y="147" width="346" height="26"></rect>
                <path d="M285,49 L285,86 C285,106.434316 301.565684,123 322,123 C342.434316,123 359,106.434316 359,86 L359,49 L285,49 L285,49 Z" id="Shape" fill="#F7B500"></path>
                <path d="M482.556339,654 L395.445071,654 C388.572651,654 383,659.552721 383,666.400562 L383,716 L495,716 L495,666.400562 C495,659.552721 489.428758,654 482.556339,654 L482.556339,654 Z" id="Shape" fill="#C9D8EE"></path>
            </g>
        </g>
        <path d="M449.467687,522.465347 L449.467687,522.465347 C442.567065,522.465347 436.920068,517.075072 436.920068,510.485149 L436.920068,498.50495 C436.920068,491.916384 442.565644,486.524752 449.467687,486.524752 L449.467687,486.524752 C456.368309,486.524752 462.015306,491.915027 462.015306,498.50495 L462.015306,510.485149 C462.015306,517.075072 456.368309,522.465347 449.467687,522.465347 L449.467687,522.465347 Z" id="Shape" fill="#553732" mask="url(#mask-2)"></path>
        <path d="M574.943878,522.465347 L574.943878,522.465347 C568.043256,522.465347 562.396259,517.075072 562.396259,510.485149 L562.396259,498.50495 C562.396259,491.916384 568.041834,486.524752 574.943878,486.524752 L574.943878,486.524752 C581.844499,486.524752 587.491497,491.915027 587.491497,498.50495 L587.491497,510.485149 C587.491497,517.075072 581.844499,522.465347 574.943878,522.465347 L574.943878,522.465347 Z" id="Shape" fill="#553732" mask="url(#mask-2)"></path>
    </g>
</svg>