<?xml version="1.0" encoding="UTF-8"?>
<svg width="1024px" height="1024px" viewBox="0 0 1024 1024" version="1.1" xmlns="http://www.w3.org/2000/svg" xmlns:xlink="http://www.w3.org/1999/xlink">
    <!-- Generator: Sketch 64 (93537) - https://sketch.com -->
    <title>面性江湖人士</title>
    <desc>Created with Sketch.</desc>
    <defs>
        <circle id="path-1" cx="512.5" cy="512.5" r="403.5"></circle>
    </defs>
    <g id="面性江湖人士" stroke="none" stroke-width="1" fill="none" fill-rule="evenodd">
        <mask id="mask-2" fill="white">
            <use xlink:href="#path-1"></use>
        </mask>
        <use id="蒙版" fill="#DBDDE9" xlink:href="#path-1"></use>
        <g id="detective" mask="url(#mask-2)">
            <g transform="translate(191.000000, 214.000000)">
                <path d="M577.435667,515.753403 L531.71601,504.30159 L522.528375,502 L120.103223,502.092625 L65.5643329,515.753403 C27.0320151,525.404643 0,560.091287 0,599.884934 L0,693.222824 C0,706.906056 11.0730687,718 24.7305537,718 L618.269446,718 C631.926931,718 643,706.906056 643,693.222824 L643,599.884934 C643,560.089883 615.967985,525.40324 577.435667,515.753403 L577.435667,515.753403 Z" id="Shape" fill="#567DF4"></path>
                <polygon id="Rectangle-path" fill="#F2DED4" points="222 409 420 409 420 545 222 545"></polygon>
                <path d="M222,409 L222,509.467197 C339.108517,524.705343 420,421.307626 420,421.307626 L420,409 L222,409 L222,409 Z" id="Shape" fill="#ECCAB8"></path>
                <rect id="Rectangle-path" fill="#D9E4F8" x="235" y="544" width="173" height="174"></rect>
                <path d="M221.755008,718 L160.199814,581.812596 L184.821613,557.050357 L135.578015,544.668537 L117.304471,507.911585 C113.954623,501.173675 117.315628,493.010762 124.423943,490.629211 L221.756403,458 L271,718" id="Shape" fill="#32C5FF"></path>
                <path d="M420.244992,718 L481.800186,581.812596 L457.178387,557.050357 L506.421985,544.668537 L524.695529,507.911585 C528.045377,501.173675 524.684372,493.010762 517.576057,490.629211 L420.243597,458 L371,718" id="Shape" fill="#32C5FF"></path>
                <polygon id="Shape" fill="#F7B500" points="303.639479 569 296 718 346 718 338.360521 569"></polygon>
                <path d="M296,544 L296,568.666201 C296,575.477174 301.597406,581 308.500354,581 L333.499646,581 C340.402594,581 346,575.477174 346,568.666201 L346,544 L296,544 L296,544 Z" id="Shape" fill="#567DF4"></path>
                <path d="M468.285914,235.129431 L468.285914,160 L171.714086,160 L171.714086,235.129431 C157.613548,238.005824 147,250.531147 147,265.546062 L147,290.378692 C147,305.395014 157.613548,317.920336 171.714086,320.795323 L171.714086,343.630653 C171.714086,368.539237 183.150737,391.800751 202.189892,405.617286 L257.132013,445.487336 C268.374088,453.64673 281.58433,458 295.096937,458 L344.905863,458 C358.41707,458 371.627312,453.64673 382.867987,445.487336 L437.810108,405.617286 C456.849263,391.800751 468.285914,368.540644 468.285914,343.630653 L468.285914,320.795323 C482.386452,317.91893 493,305.393607 493,290.378692 L493,265.546062 C493.0014,250.52974 482.387851,238.005824 468.285914,235.129431 L468.285914,235.129431 Z" id="Shape" fill="#F2DED4"></path>
                <path d="M221.670185,446 L321,545.076486 C321,545.076486 271.335796,557.461749 234.08694,606.999992 C234.061622,607.03226 198.864878,510.417955 187.746341,479.893923 C185.792686,474.527631 187.773065,468.539831 192.534134,465.373367 L221.670185,446 L221.670185,446 Z" id="Shape" fill="#FFFFFF"></path>
                <path d="M420.329815,446 L321,545.076486 C321,545.076486 370.664204,557.461749 407.91306,606.999992 C407.938378,607.03226 443.135122,510.417955 454.253659,479.893923 C456.207314,474.527631 454.226935,468.539831 449.465866,465.373367 L420.329815,446 L420.329815,446 Z" id="Shape" fill="#FFFFFF"></path>
                <path d="M161.299335,161 C161.146878,164.330658 161.034983,219.566962 161.000016,239.716535 C160.991624,243.741718 164.270144,247 168.315144,247 L168.324934,247 C171.340501,247 174.04556,245.158604 175.14213,242.363803 L207,161.001392 L161.299335,161.001392 L161.299335,161 Z" id="Shape" fill="#876E64"></path>
                <path d="M435,161 L466.836585,242.363728 C467.929626,245.158574 470.635673,247 473.649225,247 L473.68976,247 C477.727864,247 481,243.740273 481,239.720593 L481,161 L435,161 L435,161 Z" id="Shape" fill="#876E64"></path>
                <path d="M259.5,297 L259.5,297 C252.625566,297 247,291.450838 247,284.666667 L247,272.333333 C247,265.550559 252.62415,260 259.5,260 L259.5,260 C266.374434,260 272,265.549162 272,272.333333 L272,284.666667 C272,291.449441 266.37585,297 259.5,297 L259.5,297 Z" id="Shape" fill="#5A4137"></path>
                <path d="M382.5,297 L382.5,297 C375.625566,297 370,291.450838 370,284.666667 L370,272.333333 C370,265.550559 375.62415,260 382.5,260 L382.5,260 C389.374434,260 395,265.549162 395,272.333333 L395,284.666667 C395,291.449441 389.37585,297 382.5,297 L382.5,297 Z" id="Shape" fill="#5A4137"></path>
                <path d="M344.666201,396 L295.333799,396 C288.522826,396 283,390.409832 283,383.5 C283,376.591584 288.522826,371 295.333799,371 L344.666201,371 C351.477174,371 357,376.590168 357,383.5 C357,390.409832 351.478571,396 344.666201,396 L344.666201,396 Z" id="Shape" fill="#EB7480"></path>
                <path d="M489,161 L418.194119,7.20110523 C415.89629,2.23066389 410.684892,-0.67191673 405.225799,0.133342465 L320.5,12.2641373 L235.7756,0.133342465 C230.340297,-0.621412669 225.105109,2.23767834 222.80728,7.20110523 L152,161 L489,161 L489,161 Z" id="Shape" fill="#BE7548"></path>
                <path d="M321.999951,185 C225.638814,185 136.688136,176.394371 84.0566765,161.980634 C77.4842143,160.179263 73.6299927,153.446949 75.4514797,146.945687 C77.2785626,140.451342 84.0566765,136.664589 90.6543204,138.435522 C141.258641,152.294459 227.744297,160.572188 321.999951,160.572188 C416.255605,160.572188 502.74126,152.294459 553.345581,138.435522 C559.930634,136.664589 566.71994,140.451342 568.548422,146.945687 C570.369909,153.445565 566.517086,160.179263 559.943225,161.980634 C507.311765,176.394371 418.361087,185 321.999951,185 L321.999951,185 Z" id="Shape" fill="#B16232"></path>
            </g>
        </g>
    </g>
</svg>