<?xml version="1.0" encoding="UTF-8"?>
<svg width="1024px" height="1024px" viewBox="0 0 1024 1024" version="1.1" xmlns="http://www.w3.org/2000/svg" xmlns:xlink="http://www.w3.org/1999/xlink">
    <!-- Generator: Sketch 64 (93537) - https://sketch.com -->
    <title>面性红头男士</title>
    <desc>Created with Sketch.</desc>
    <defs>
        <circle id="path-1" cx="512.5" cy="512.5" r="403.5"></circle>
    </defs>
    <g id="面性红头男士" stroke="none" stroke-width="1" fill="none" fill-rule="evenodd">
        <mask id="mask-2" fill="white">
            <use xlink:href="#path-1"></use>
        </mask>
        <use id="蒙版" fill="#DBDDE9" xlink:href="#path-1"></use>
        <g id="boy-3" mask="url(#mask-2)">
            <g transform="translate(242.000000, 219.000000)">
                <path d="M81.1537102,447.05477 C81.1537102,447.05477 99.3791785,483.982736 81.1537102,528.923601 C70.1951815,555.965625 104.124935,538.890276 114.017272,528.923601 C114.017272,528.923601 123.913617,560.870247 104.124935,586.196663 C84.3322447,611.502895 141.357478,603.352746 158.797332,551.190179 C158.797332,551.190179 168.397067,595.844437 136.267013,628.598428 C104.124935,661.348382 271,648.527742 271,648.527742 L271,434 L81.1537102,447.05477 Z" id="Fill-1" fill="#612C1B"></path>
                <path d="M463.846245,447.05477 C463.846245,447.05477 445.620396,483.982736 463.846245,528.923601 C474.805002,555.965625 440.874541,538.890276 430.981997,528.923601 C430.981997,528.923601 421.085445,560.870247 440.874541,586.196663 C460.667644,611.502895 403.64122,603.352746 386.201003,551.190179 C386.201003,551.190179 376.601067,595.844437 408.731791,628.598428 C440.874541,661.348382 274,648.527742 274,648.527742 L274,434 L463.846245,447.05477 Z" id="Fill-2" fill="#612C1B"></path>
                <path d="M321,535 L321,641 L226,641 L226,535 L321,535 Z" id="形状结合" fill="#ECCAB8"></path>
                <path d="M135,370.5 C135,399.497326 114.394309,423 88.9939867,423 C63.5936642,423 43,399.497326 43,370.5 C43,341.502674 63.5936642,318 88.9939867,318 C114.394309,318 135,341.502674 135,370.5 L135,370.5 Z" id="Fill-5" fill="#FCBC85"></path>
                <path d="M503,370.5 C503,399.497326 482.410345,423 457.010022,423 C431.593664,423 411,399.497326 411,370.5 C411,341.502674 431.593664,318 457.010022,318 C482.410345,318 503,341.502674 503,370.5 L503,370.5 Z" id="Fill-6" fill="#FCBC85"></path>
                <path d="M457.813164,269.58035 C457.813164,191.860339 400.96207,135 274,135 C147.033901,135 90.1868362,191.860339 90.1868362,269.58035 C90.1868362,347.284241 76.9188949,552 274,552 C471.081105,552 457.813164,347.284241 457.813164,269.58035 L457.813164,269.58035 Z" id="Fill-7" fill="#F2DED4"></path>
                <path d="M274.502014,470.294098 C254.85001,470.294098 243,455.957724 243,462.896073 C243,469.818707 248.679304,483 274.502014,483 C300.304584,483 306,469.830494 306,462.896073 C306,455.973439 294.154018,470.294098 274.502014,470.294098 L274.502014,470.294098 Z" id="Fill-14" fill="#FCBC85"></path>
                <path d="M274,578 L274,697 L44,697 C44,648.836107 165.148387,578 274,578 L274,578 Z" id="Fill-17" fill="#6236FF"></path>
                <path d="M273,578 L273,697 L503,697 C503,648.836107 381.853518,578 273,578 L273,578 Z" id="Fill-18" fill="#6236FF"></path>
                <path d="M36.927967,370.657048 C13.1593497,253.336404 42.597693,164.009158 31.2542199,151.202037 C19.8986836,138.394917 1.4580003,155.472422 0.0466004238,145.516256 C-1.36882053,135.560091 29.8267357,119.902015 43.5547106,104.260069 C57.2666011,88.6221557 53.937145,40.2446289 66.7081022,54.4711784 C79.4790595,68.6936955 66.7081022,101.409114 66.7081022,101.409114 C214.213463,-101.992639 458.180566,51.6363529 485.133881,122.752971 C512.075132,193.873621 556.053709,243.650414 537.613025,243.650414 C515.999708,243.650414 503.088013,213.785951 503.088013,213.785951 C503.088013,213.785951 523.430668,270.680052 513.502616,354.337647 C503.574564,438.011372 414.218074,488.699504 427.551983,466.585445 C454.867195,421.345179 434.070157,336.207668 434.070157,336.207668 C432.642673,344.841183 418.472379,357.442648 418.001912,342.429767 C415.661642,266.208044 371.650897,243.650414 371.650897,243.650414 C371.650897,243.650414 387.264759,267.845226 365.116638,266.409667 C298.768781,262.159445 255.353156,235.129808 255.353156,235.129808 C255.353156,235.129808 270.950934,266.409667 255.353156,266.409667 C202.79761,266.409667 150.270213,235.129808 150.270213,235.129808 C150.270213,235.129808 123.867787,289.156823 124.603645,336.207668 C124.856973,353.188394 107.843774,334.695492 107.843774,321.888372 C107.843774,321.888372 89.2462684,422.119413 121.808993,471.767168 C136.120024,493.598953 51.9105195,444.660913 36.927967,370.657048 L36.927967,370.657048 Z" id="Fill-20" fill="#7B351E"></path>
                <path d="M194,588.721298 L273,697 L273,637.301023 L237.518551,580 C222.867627,581.902242 208.260929,584.876511 194,588.721298 L194,588.721298 Z" id="Fill-22" fill="#F7B500"></path>
                <path d="M352,588.721298 L273,697 L273,637.301023 L308.479235,580 C323.130904,581.902242 337.738345,584.876511 352,588.721298 L352,588.721298 Z" id="Fill-23" fill="#F7B500"></path>
                <path d="M226,581.939719 L273.50202,655 L321,581.923637 C321,581.923637 271.716351,564.084738 226,581.939719 L226,581.939719 Z" id="Fill-24" fill="#FADED0"></path>
            </g>
        </g>
        <path d="M427,595 L427,595 C419.850589,595 414,589.000906 414,581.666667 L414,568.333333 C414,561.000604 419.849116,555 427,555 L427,555 C434.149411,555 440,560.999094 440,568.333333 L440,581.666667 C440,589.000906 434.149411,595 427,595 L427,595 Z" id="Shape" fill="#7B351E" mask="url(#mask-2)"></path>
        <path d="M597,592 L597,592 C589.850589,592 584,586.000906 584,578.666667 L584,565.333333 C584,558.000604 589.849116,552 597,552 L597,552 C604.149411,552 610,557.999094 610,565.333333 L610,578.666667 C610,586.000906 604.149411,592 597,592 L597,592 Z" id="Shape" fill="#7B351E" mask="url(#mask-2)"></path>
    </g>
</svg>