<?xml version="1.0" encoding="UTF-8"?>
<svg width="1024px" height="1024px" viewBox="0 0 1024 1024" version="1.1" xmlns="http://www.w3.org/2000/svg" xmlns:xlink="http://www.w3.org/1999/xlink">
    <!-- Generator: Sketch 64 (93537) - https://sketch.com -->
    <title>面性犯人</title>
    <desc>Created with Sketch.</desc>
    <defs>
        <circle id="path-1" cx="512.5" cy="512.5" r="403.5"></circle>
    </defs>
    <g id="面性犯人" stroke="none" stroke-width="1" fill="none" fill-rule="evenodd">
        <mask id="mask-2" fill="white">
            <use xlink:href="#path-1"></use>
        </mask>
        <use id="蒙版" fill="#DBDDE9" xlink:href="#path-1"></use>
        <g id="prisoner" mask="url(#mask-2)">
            <g transform="translate(181.000000, 214.000000)">
                <path d="M432.192972,436.696511 L432.192972,419 L228.808468,419 L228.808468,436.696511 C228.808468,448.58182 220.531602,458.873898 208.900495,461.452663 L69.6786248,492.314529 C28.9668709,501.339491 0,537.358888 0,578.961061 L0,710.64046 C0,724.647684 11.381951,736 25.422523,736 L635.577477,736 C649.619489,736 661,724.646247 661,710.64046 L661,578.961061 C661,537.358888 632.033129,501.338054 591.321375,492.314529 L452.099505,461.452663 C440.469838,458.873898 432.192972,448.583257 432.192972,436.696511 L432.192972,436.696511 Z" id="Shape" fill="#7799FF"></path>
                <path d="M661,710.536829 L661,578.310395 C661,555.214516 651.957324,534.03584 637.211491,518 L569.260109,586.305234 C555.006521,600.633046 547,620.064745 547,640.32449 L547,736 L635.665869,736 C649.659701,736.001443 661,724.599205 661,710.536829 L661,710.536829 Z" id="Shape" fill="#BEDEFF"></path>
                <path d="M1,710.536829 L1,578.310395 C1,555.214516 10.0426759,534.03584 24.788509,518 L92.7398912,586.305234 C106.993479,600.633046 115,620.064745 115,640.32449 L115,736 L26.3341306,736 C12.3431693,736.001443 1,724.599205 1,710.536829 L1,710.536829 Z" id="Shape" fill="#BEDEFF"></path>
                <path d="M179,468.367308 C203.511953,528.54194 262.509718,571 331.5,571 C400.490282,571 459.489482,528.54194 484,468.367308 L452.686188,461.408405 C441.093318,458.832363 432.846118,448.551155 432.846118,436.678397 L432.846118,381 L230.155318,381 L230.155318,436.678397 C230.155318,448.554025 221.908118,458.832363 210.315247,461.408405 L179,468.367308 L179,468.367308 Z" id="Shape" fill="#F2DED4"></path>
                <path d="M207.223047,461.277423 L176.875195,467.914668 L176,469.420658 C176.021843,469.47081 176.046599,469.519529 176.068443,469.571114 C330.233785,532.675095 433,393.646875 433,393.646875 L433,381 L227.352527,381 L227.352527,436.585496 C227.352527,448.441404 218.985024,458.705347 207.223047,461.277423 L207.223047,461.277423 Z" id="Shape" fill="#ECCAB8"></path>
                <path d="M661,660 L661,693.916084 C661,695.620832 659.577079,697 657.821471,697 L657.821471,697 L3.17852855,697 C1.4214806,697 0,695.619434 0,693.916084 L0,693.916084 L0,660 L661,660 Z M662,584 L662,621 L1,621 L1,584 L662,584 Z M201.762493,509 C213.514098,523.581178 227.812196,536.094301 244,546 L244,546 L8,546 C14.1703489,531.200838 24.4614652,518.461347 37.6721187,509 L37.6721187,509 Z M624.328062,509 C637.537195,518.461347 647.829689,531.202236 654,546 L654,546 L418,546 C434.187705,536.094301 448.484276,523.581178 460.237249,509 L460.237249,509 Z" id="形状结合" fill="#BEDEFF"></path>
                <path d="M610,546 L655,546 C650.86546,535.914476 644.770059,526.882123 637.356654,519 L610,546 L610,546 Z" id="Shape" fill="#7799FF"></path>
                <path d="M568.880753,586.998678 C559.120508,596.46282 552.363415,608.250727 549,621 L661,621 L661,584 L571.97325,584 L568.880753,586.998678 L568.880753,586.998678 Z" id="Shape" fill="#7799FF"></path>
                <polygon id="Rectangle-path" fill="#5B5D6E" points="547 660 661 660 661 697 547 697"></polygon>
                <path d="M52,546 L7,546 C11.1345401,535.914476 17.2299413,526.882123 24.6433464,519 L52,546 L52,546 Z" id="Shape" fill="#7799FF"></path>
                <path d="M93.1192471,586.998678 C102.879492,596.46282 109.636585,608.250727 113,621 L1,621 L1,584 L90.0267495,584 L93.1192471,586.998678 L93.1192471,586.998678 Z" id="Shape" fill="#7799FF"></path>
                <polygon id="Rectangle-path" fill="#5B5D6E" points="1 660 115 660 115 697 1 697"></polygon>
                <path d="M494.333125,209.429834 L494.333125,152 L164.688422,152 L164.688422,209.412531 C157.027678,215.219248 152,224.351093 152,234.731664 L152,260.184899 C152,275.576233 162.889949,288.410996 177.356732,291.361218 L177.356732,314.769773 C177.356732,340.300872 189.091332,364.143453 208.626014,378.306249 L264.996334,419.173888 C276.531263,427.535735 290.084445,432 303.947906,432 L355.052093,432 C368.915555,432 382.468737,427.537176 394.003666,419.173888 L450.373986,378.306249 C469.908668,364.144895 481.643267,340.300872 481.643267,314.769773 L481.643267,291.361218 C496.111487,288.412438 507,275.577675 507,260.184899 L507,234.731664 C507.001436,224.361187 501.983814,215.239435 494.333125,209.429834 L494.333125,209.429834 Z" id="Shape" fill="#F2DED4"></path>
                <path d="M267,266 L267,266 C259.850442,266 254,260.449581 254,253.666667 L254,241.333333 C254,234.550419 259.850442,229 267,229 L267,229 C274.149558,229 280,234.550419 280,241.333333 L280,253.666667 C280,260.449581 274.149558,266 267,266 L267,266 Z" id="Shape" fill="#5A4137"></path>
                <path d="M395,266 L395,266 C387.850442,266 382,260.449581 382,253.666667 L382,241.333333 C382,234.550419 387.850442,229 395,229 L395,229 C402.149558,229 408,234.550419 408,241.333333 L408,253.666667 C408,260.449581 402.149558,266 395,266 L395,266 Z" id="Shape" fill="#5A4137"></path>
                <path d="M355.166909,368 L303.833091,368 C296.746247,368 291,362.184908 291,355 C291,347.815092 296.746247,342 303.833091,342 L355.166909,342 C362.253753,342 368,347.815092 368,355 C368,362.184908 362.253753,368 355.166909,368 L355.166909,368 Z" id="Shape" fill="#F26D6D"></path>
                <path d="M330.999281,0 C268.092766,0 211.926286,8.68154265 174.117666,22.3141319 C169.160785,24.1012131 166,28.9074 166,34.1625086 L166,190 L496,190 L496,34.1639428 C496,28.9088343 492.836339,24.1012131 487.882334,22.3155662 C450.073714,8.68154265 393.905796,0 330.999281,0 L330.999281,0 Z" id="Shape" fill="#1C75BC"></path>
                <rect id="Rectangle-path" fill="#FFFFFF" x="166" y="115" width="330" height="37"></rect>
                <polygon id="Rectangle-path" fill="#FFFFFF" points="166 39 496 39 496 76 166 76"></polygon>
            </g>
        </g>
    </g>
</svg>