<?xml version="1.0" encoding="UTF-8"?>
<svg width="1024px" height="1024px" viewBox="0 0 1024 1024" version="1.1" xmlns="http://www.w3.org/2000/svg" xmlns:xlink="http://www.w3.org/1999/xlink">
    <!-- Generator: Sketch 64 (93537) - https://sketch.com -->
    <title>面性马尾辫女孩</title>
    <desc>Created with Sketch.</desc>
    <defs>
        <circle id="path-1" cx="512.5" cy="512.5" r="403.5"></circle>
    </defs>
    <g id="面性马尾辫女孩" stroke="none" stroke-width="1" fill="none" fill-rule="evenodd">
        <mask id="mask-2" fill="white">
            <use xlink:href="#path-1"></use>
        </mask>
        <use id="蒙版" fill="#DBDDE9" xlink:href="#path-1"></use>
        <g id="woman-14" mask="url(#mask-2)">
            <g transform="translate(306.000000, 237.000000)">
                <path d="M253.39435,584 L120.604268,584 C59.5186469,584 10,633.248725 10,694 L10,694 L364,694 L364,694 C363.998618,633.248725 314.478589,584 253.39435,584 L253.39435,584 Z" id="Shape" fill="#F39200"></path>
                <path d="M188.000687,639 L188.000687,639 C175.851239,639 166,629.149982 166,616.998969 L166,551 L210,551 L210,616.998969 C210,629.151357 200.148761,639 188.000687,639 L188.000687,639 Z" id="Shape" fill="#ECCAB8"></path>
                <path d="M233.119534,54 L210.165051,55.0802476 L210.165051,137.5595 C210.165051,247.343967 144.412242,339.753669 55,367.254581 L55,400.657715 C55,483.68805 114.545376,551 188,551 L188,551 C261.451854,551 321,483.689616 321,400.657715 L321,130.282701 C284.068405,117.856723 252.905208,90.3166717 233.119534,54 L233.119534,54 Z" id="Shape" fill="#F2DED4"></path>
                <path d="M194.501677,468 C183.998992,468 173.824577,465.862077 165.06485,461.816361 C160.727974,459.806953 158.806227,454.593648 160.769985,450.170359 C162.740581,445.756036 167.836582,443.7805 172.191043,445.790904 C185.271038,451.846029 203.76651,451.837062 216.813287,445.79987 C221.158956,443.763563 226.271565,445.757032 228.225553,450.171355 C230.196149,454.593648 228.276356,459.807949 223.938503,461.808391 C215.195385,465.861081 205.012177,468 194.501677,468 L194.501677,468 Z" id="Shape" fill="#EB7480"></path>
                <path d="M119.5,316 L119.5,316 C111.525657,316 105,309.850929 105,302.333333 L105,288.666667 C105,281.150619 111.524014,275 119.5,275 L119.5,275 C127.474343,275 134,281.149071 134,288.666667 L134,302.333333 C134,309.849381 127.474343,316 119.5,316 L119.5,316 Z" id="Shape" fill="#7B351E"></path>
                <path d="M261.5,309 L261.5,309 C251.875793,309 244,300.751246 244,290.666667 L244,272.333333 C244,262.250831 251.873811,254 261.5,254 L261.5,254 C271.124207,254 279,262.248754 279,272.333333 L279,290.666667 C279,300.749169 271.124207,309 261.5,309 L261.5,309 Z" id="Shape备份" fill="#390B21"></path>
                <path d="M365,187 L365,187 C279.395407,187 210,118.051293 210,33.0008086 L210,0 L210,0 C295.60321,0 365,68.9473324 365,153.999191 L365,187 L365,187 Z" id="Shape" fill="#551735"></path>
                <path d="M360.374353,130 L358.640413,130.035861 C359.810684,137.689381 360.418671,145.524965 360.418671,153.502612 L360.418671,186.613157 L360.418671,186.613157 C345.009876,186.613157 330.131512,184.364961 316.082724,180.202351 C316.085494,180.202351 316.086878,180.20373 316.088263,180.20373 L316.088263,418.402148 C316.088263,446.063232 307.569524,471.73956 293.006925,492.981562 L293,495.596642 C315.291925,553.72009 371.802842,595 438,595 L438,595 L438,263.876614 C437.998615,206.663478 406.775239,156.712153 360.374353,130 L360.374353,130 Z" id="Shape" fill="#390B21"></path>
                <path d="M0,396 L0,396 L0,208.998664 C0,93.5714588 94.0199148,0 210,0 L210,0 L210,187.001336 C210,302.427167 115.980085,396 0,396 L0,396 Z" id="Shape" fill="#551735"></path>
                <path d="M316,221 L326.999656,221 C345.225655,221 360,235.775565 360,254 C360,272.225809 345.224281,287 326.999656,287 L316,287" id="Shape" fill="#ECCAB8"></path>
                <rect id="Rectangle-path" fill="#390B21" x="232" y="187" width="66" height="21"></rect>
                <rect id="Rectangle-path" fill="#FFFFFF" x="78" y="650" width="21" height="44"></rect>
                <polygon id="Rectangle-path" fill="#FFFFFF" points="277 650 298 650 298 694 277 694"></polygon>
                <polygon id="Rectangle-path" fill="#A3195B" points="11 649 55 649 55 683 11 683"></polygon>
                <polygon id="Rectangle-path" fill="#FFFFFF" points="132 662 243 662 243 683 132 683"></polygon>
            </g>
        </g>
    </g>
</svg>