<?xml version="1.0" encoding="UTF-8"?>
<svg width="1024px" height="1024px" viewBox="0 0 1024 1024" version="1.1" xmlns="http://www.w3.org/2000/svg" xmlns:xlink="http://www.w3.org/1999/xlink">
    <!-- Generator: Sketch 64 (93537) - https://sketch.com -->
    <title>面性商务人士</title>
    <desc>Created with Sketch.</desc>
    <defs>
        <circle id="path-1" cx="512.5" cy="512.5" r="403.5"></circle>
        <path d="M103.604078,224.850767 C103.908826,220.612347 104.063828,216.332504 104.063828,212.016486 C104.063828,211.404064 104.026892,210.8064 104.019505,210.201358 L104.063828,210.201358 L104.063828,161.38475 C104.063828,115.180155 86.2827059,73.1370726 57.2064706,41.6601001 C41.2456814,24.3804654 21.880026,10.285651 0.171691667,0.445488009 L0.171691667,224.850767 L103.604078,224.850767 L103.604078,224.850767 Z" id="path-3"></path>
    </defs>
    <g id="面性商务人士" stroke="none" stroke-width="1" fill="none" fill-rule="evenodd">
        <mask id="mask-2" fill="white">
            <use xlink:href="#path-1"></use>
        </mask>
        <use id="蒙版" fill="#DBDDE9" xlink:href="#path-1"></use>
        <g id="boy_5" mask="url(#mask-2)">
            <g transform="translate(303.000000, 207.000000)" id="Person-0">
                <g>
                    <g id="Group-47" transform="translate(0.000000, 0.465259)">
                        <path d="M307.043863,544.126379 L129.749745,544.126379 C72.6314902,544.126379 26.3281765,590.375245 26.3281765,647.426336 L26.3281765,750.726292 C26.3281765,767.02555 39.55875,780.240566 55.8771961,780.240566 L380.916412,780.240566 C397.234858,780.240566 410.465431,767.02555 410.465431,750.726292 L410.465431,647.426336 C410.465431,590.375245 364.162118,544.126379 307.043863,544.126379" id="Fill-1" fill="#162C46"></path>
                        <path d="M218.396804,603.154926 L218.396804,603.154926 C193.915441,603.154926 174.073275,583.336091 174.073275,558.883516 L174.073275,455.583559 L262.720333,455.583559 L262.720333,558.883516 C262.720333,583.336091 242.878167,603.154926 218.396804,603.154926" id="Fill-3" fill="#ECCAB8"></path>
                        <path d="M417.852686,175.197963 L18.9409216,175.197963 L18.9409216,263.740783 C18.9409216,304.492616 52.0136618,337.526466 92.8134706,337.526466 L343.980137,337.526466 C384.779946,337.526466 417.852686,304.492616 417.852686,263.740783 L417.852686,175.197963 Z" id="Fill-7" fill="#5F5C61"></path>
                        <path d="M417.852686,315.761165 C417.852686,336.133392 401.312623,352.654007 380.916412,352.654007 C360.520201,352.654007 343.980137,336.133392 343.980137,315.761165 C343.980137,295.388938 360.520201,278.868324 380.916412,278.868324 C401.312623,278.868324 417.852686,295.388938 417.852686,315.761165" id="Fill-9" fill="#ECCAB8"></path>
                        <path d="M92.8134706,315.761165 C92.8134706,336.133392 76.2734069,352.654007 55.8771961,352.654007 C35.4809853,352.654007 18.9409216,336.133392 18.9409216,315.761165 C18.9409216,295.388938 35.4809853,278.868324 55.8771961,278.868324 C76.2734069,278.868324 92.8134706,295.388938 92.8134706,315.761165" id="Fill-11" fill="#ECCAB8"></path>
                        <path d="M417.852686,175.197963 C417.852686,256.701629 351.707206,322.769329 270.107588,322.769329 C188.507971,322.769329 122.36249,256.701629 122.36249,175.197963 C122.36249,93.6942972 188.507971,27.6265964 270.107588,27.6265964 C366.341358,27.6265964 417.852686,93.6942972 417.852686,175.197963" id="Fill-13" fill="#5F5C61"></path>
                        <path d="M218.397543,514.612106 L218.397543,514.612106 C128.642396,514.612106 55.8779348,441.933208 55.8779348,352.283603 L55.8779348,212.090805 C55.8779348,122.441199 128.642396,49.7623014 218.397543,49.7623014 L218.397543,49.7623014 C308.15269,49.7623014 380.91715,122.441199 380.91715,212.090805 L380.91715,352.283603 C380.91715,441.933208 308.15269,514.612106 218.397543,514.612106" id="Fill-15" fill="#F2DED4"></path>
                        <path d="M135,328.534741 L135,328.534741 C128.950498,328.534741 124,323.735466 124,317.868074 L124,307.201408 C124,301.335224 128.949252,296.534741 135,296.534741 L135,296.534741 C141.049502,296.534741 146,301.334016 146,307.201408 L146,317.868074 C146,323.735466 141.049502,328.534741 135,328.534741 L135,328.534741 Z" id="Shape" fill="#39333D"></path>
                        <path d="M306,328.534741 L306,328.534741 C299.950498,328.534741 295,323.735466 295,317.868074 L295,307.201408 C295,301.335224 299.949252,296.534741 306,296.534741 L306,296.534741 C312.049502,296.534741 317,301.334016 317,307.201408 L317,317.868074 C317,323.735466 312.049502,328.534741 306,328.534741 L306,328.534741 Z" id="Shape备份" fill="#39333D"></path>
                        <path d="M220.000871,448.534741 C206.910717,448.534741 194.229707,445.935153 183.322869,441.012683 C177.906589,438.569653 175.512613,432.223599 177.95895,426.830243 C180.404069,421.446595 186.766493,419.050896 192.182772,421.489072 C208.474229,428.843649 231.526294,428.843649 247.817752,421.489072 C253.234031,419.05211 259.606196,421.447809 262.041573,426.830243 C264.486692,432.223599 262.093934,438.569653 256.677655,441.012683 C245.772035,445.936366 233.091024,448.534741 220.000871,448.534741 L220.000871,448.534741 Z" id="Shape" fill="#F87884"></path>
                        <polygon id="Fill-17" fill="#E3E3E3" points="247.945824 544.126379 218.389417 612.267458 188.847784 544.126379 144.524255 544.126379 218.396804 743.347724 292.269353 544.126379"></polygon>
                        <path d="M109.597043,289.490791 C107.861751,289.490791 106.119259,288.858866 104.736785,287.587751 C101.80623,284.878462 101.604619,280.28066 104.283161,277.324411 C114.421299,266.138605 132.249445,262.38337 147.723067,268.215969 C151.445664,269.62509 153.332164,273.808872 151.94249,277.564107 C150.545616,281.319342 146.434198,283.229645 142.675599,281.820524 C131.450203,277.585898 120.203206,281.283024 114.910925,287.13015 C113.49245,288.699069 111.548347,289.490791 109.597043,289.490791" id="Fill-23" fill="#5F5C61"></path>
                        <path d="M327.201736,289.490791 C325.250432,289.490791 323.306329,288.699069 321.887854,287.13015 C316.595573,281.283024 305.341376,277.585898 294.12318,281.820524 C290.400583,283.222382 286.253163,281.319342 284.856288,277.564107 C283.466615,273.808872 285.353115,269.62509 289.075712,268.215969 C304.506131,262.38337 322.370279,266.138605 332.515618,277.324411 C335.19416,280.28066 334.992549,284.878462 332.061994,287.587751 C330.67952,288.858866 328.937028,289.490791 327.201736,289.490791" id="Fill-25" fill="#5F5C61"></path>
                        <polygon id="Fill-31" fill="#567DF4" points="227.787482 573.973426 218.405669 573.973426 218.398281 573.973426 218.390894 573.973426 209.00908 573.973426 185.118698 587.431935 202.899821 628.124739 233.896742 628.124739 251.677865 587.431935"></polygon>
                        <polygon id="Fill-33" fill="#607AED" points="218.396804 743.347724 196.235039 684.319177 202.898343 628.124001 233.895265 628.124001 240.558569 684.319177"></polygon>
                        <polygon id="Fill-35" fill="#FFC400" points="234.761051 634.606073 233.881968 628.12769 202.92937 628.12769 202.028125 634.606073"></polygon>
                        <polygon id="Fill-37" fill="#FEFEFE" points="174.073275 521.990674 144.524255 544.126379 176.474132 601.738241 218.226897 573.972688"></polygon>
                        <polygon id="Fill-39" fill="#FEFEFE" points="262.550426 521.990674 292.099446 544.126379 260.149569 601.738241 218.396804 573.972688"></polygon>
                        <path d="M305.621077,36.7383904 C238.707323,-30.1704672 34.9742196,-15.5166305 0.00295490196,172.430262 C40.7658275,214.746351 100.632141,237.487099 163.209577,228.131074 C233.57318,217.601857 288.911107,169.375535 311.811597,107.056147" id="Fill-45" fill="#5F5C61"></path>
                        <path d="M192.279164,864.270704 L107.591674,779.870899 L329.209321,779.870899 L244.514444,864.270704 C230.087135,878.649003 206.706473,878.649003 192.279164,864.270704" id="Fill-51" fill="#4D4C4E"></path>
                    </g>
                    <g id="Group-50" transform="translate(291.176471, 38.892638)">
                        <mask id="mask-4" fill="white">
                            <use xlink:href="#path-3"></use>
                        </mask>
                        <g id="Clip-49"></g>
                        <path d="M321.421246,64.4111777 C321.421246,153.020405 249.506319,224.850767 160.792775,224.850767 C72.0866181,224.850767 0.171691667,153.020405 0.171691667,64.4111777 C0.171691667,-24.1980494 72.0866181,-96.028412 160.792775,-96.028412 C249.506319,-96.028412 321.421246,-24.1980494 321.421246,64.4111777" id="Fill-48" fill="#5F5C61" mask="url(#mask-4)"></path>
                    </g>
                </g>
            </g>
        </g>
    </g>
</svg>