<?xml version="1.0" encoding="UTF-8"?>
<svg width="1024px" height="1024px" viewBox="0 0 1024 1024" version="1.1" xmlns="http://www.w3.org/2000/svg" xmlns:xlink="http://www.w3.org/1999/xlink">
    <!-- Generator: Sketch 64 (93537) - https://sketch.com -->
    <title>面性直发女士</title>
    <desc>Created with Sketch.</desc>
    <defs>
        <circle id="path-1" cx="512.5" cy="512.5" r="403.5"></circle>
    </defs>
    <g id="面性直发女士" stroke="none" stroke-width="1" fill="none" fill-rule="evenodd">
        <mask id="mask-2" fill="white">
            <use xlink:href="#path-1"></use>
        </mask>
        <use id="蒙版" fill="#DBDDE9" xlink:href="#path-1"></use>
        <g id="girl-1" mask="url(#mask-2)">
            <g transform="translate(268.000000, 245.000000)">
                <path d="M245,364 L245,668 L32.3104776,668 C32.3104776,668 32.3104776,537.627552 9,433.774825 L245,364 Z" id="Fill-1" fill="#662B18"></path>
                <path d="M244,364 L244,668 L456.701913,668 C456.701913,668 456.685392,537.627552 480,433.774825 L244,364 Z" id="Fill-2" fill="#662B18"></path>
                <polygon id="Fill-3" fill="#F2DED4" points="197 611 294 611 294 502 197 502"></polygon>
                <path d="M197,514.922166 C197,514.922166 237.813013,541.170575 294,535.08441 L294,502 L197,502 L197,514.922166 Z" id="Fill-4" fill="#ECCAB8"></path>
                <path d="M104,334.002063 C104,363.829023 82.7348033,388 56.4937906,388 C30.2651967,388 9,363.829023 9,334.002063 C9,304.170977 30.2651967,280 56.4937906,280 C82.7348033,280 104,304.170977 104,334.002063 L104,334.002063 Z" id="Fill-5" fill="#FCBC85"></path>
                <path d="M481,334.002063 C481,363.829023 459.734803,388 433.510349,388 C407.281755,388 386,363.829023 386,334.002063 C386,304.170977 407.281755,280 433.510349,280 C459.734803,280 481,304.170977 481,334.002063 L481,334.002063 Z" id="Fill-6" fill="#FCBC85"></path>
                <path d="M433.808596,230.810492 C433.808596,151.223334 375.567664,93 245.501753,93 C115.431715,93 57.1907828,151.223334 57.1907828,230.810492 C57.1907828,310.377016 43.6149908,520 245.501753,520 C447.400899,520 433.808596,310.377016 433.808596,230.810492 L433.808596,230.810492 Z" id="Fill-7" fill="#F2DED4"></path>
                <path d="M246.000195,459 C236.243147,459 226.802363,457.047038 218.69641,453.359524 C214.673792,451.523958 212.891298,446.761678 214.716383,442.721066 C216.541468,438.680454 221.281797,436.88402 225.306228,438.720496 C237.399457,444.227195 254.601839,444.227195 266.695068,438.720496 C270.729467,436.89312 275.464359,438.681364 277.284007,442.721066 C279.108186,446.760768 277.326598,451.523958 273.303979,453.359524 C265.195308,457.047038 255.753618,459 246.000195,459 L246.000195,459 Z" id="Shape" fill="#EB7480"></path>
                <path d="M121.966736,272.250398 C131.51048,275.905528 146.83113,259.825411 181.892949,273.81221 C188.294938,276.36753 192.106716,252 154.507797,252 C121.966736,252 116.206171,270.046691 121.966736,272.250398 L121.966736,272.250398 Z" id="Fill-10" fill="#7B351E"></path>
                <path d="M369.033264,272.250398 C359.48952,275.905528 344.16887,259.825411 309.107051,273.81221 C302.705062,276.36753 298.893284,252 336.492203,252 C369.033264,252 374.793829,270.046691 369.033264,272.250398 L369.033264,272.250398 Z" id="Fill-13" fill="#7B351E"></path>
                <path d="M33,668 C33,618.769156 133.543321,546.432969 244.999504,546.001935 L245,546.001 C245.032366,546 245.064732,546.000006 245.097097,546.000018 L245.250176,546.000363 L245.250176,546.000363 L246,546 L247.60069,546.013063 C247.957396,546.016643 248.313987,546.020956 248.670458,546.026 L246,546 C247.679279,546.006526 249.356084,546.029376 251.030107,546.068224 C251.343885,546.077334 251.657818,546.085178 251.971652,546.093583 C252.770021,546.113166 253.567572,546.138188 254.364443,546.166802 C254.681176,546.17994 254.997774,546.191874 255.314262,546.204373 C256.08244,546.232974 256.849998,546.266658 257.616881,546.303641 C257.975091,546.322617 258.333619,546.340628 258.691996,546.359358 C259.411637,546.395294 260.130093,546.435782 260.847918,546.479134 C261.236849,546.504266 261.626043,546.528618 262.015047,546.553809 C262.773285,546.601297 263.530504,546.65358 264.286974,546.709017 C264.610688,546.734322 264.934875,546.758663 265.258922,546.783581 C266.031262,546.841417 266.802062,546.90404 267.572037,546.969904 C267.915627,547.00082 268.259504,547.03089 268.603213,547.061604 C269.379504,547.129474 270.154729,547.202123 270.92907,547.278021 C271.228927,547.308881 271.529084,547.338798 271.829105,547.369202 C272.608386,547.446728 273.38617,547.528933 274.163012,547.614383 C274.493104,547.652106 274.823887,547.689092 275.154496,547.726665 C275.863289,547.805826 276.570478,547.888987 277.276847,547.974812 C277.685578,548.025836 278.094732,548.076469 278.503607,548.127991 C279.168896,548.210485 279.832842,548.296605 280.496027,548.385053 C280.899057,548.440117 281.302529,548.494821 281.705714,548.550383 C282.447293,548.651291 283.187167,548.756296 283.926044,548.864167 C284.247129,548.912306 284.568297,548.959759 284.889273,549.007752 C285.678328,549.124492 286.466158,549.245735 287.252799,549.370202 C287.536321,549.416276 287.819783,549.461566 288.103089,549.507274 C288.87385,549.630433 289.643438,549.757882 290.411835,549.888385 C290.727698,549.943198 291.043159,549.99732 291.358417,550.051955 C292.081209,550.176069 292.803175,550.304081 293.524045,550.43476 C293.871706,550.498906 294.219415,550.562601 294.566866,550.626915 C295.296496,550.76087 296.024542,550.898579 296.75142,551.038979 C297.082852,551.104075 297.414309,551.168701 297.745521,551.233884 C298.46148,551.37373 299.176029,551.517197 299.889402,551.66324 C300.244493,551.736969 300.599536,551.810347 300.954284,551.88436 C301.615042,552.021203 302.274771,552.161273 302.933452,552.303524 C303.327649,552.38965 303.721662,552.475599 304.115294,552.562325 C304.793178,552.710705 305.469467,552.862264 306.144606,553.016099 C306.513463,553.101097 306.882475,553.185932 307.25114,553.271444 C307.874842,553.415177 308.497263,553.561721 309.118669,553.71018 C309.557188,553.81586 309.995523,553.921651 310.433346,554.02839 C311.097354,554.189377 311.759692,554.353324 312.420829,554.519422 C312.754324,554.604081 313.088276,554.688602 313.421917,554.773669 C314.085626,554.942036 314.747362,555.113237 315.407849,555.286571 C315.812034,555.393481 316.216387,555.500515 316.620266,555.608345 C317.255003,555.77699 317.888,555.948274 318.519805,556.121495 C318.881053,556.221342 319.242031,556.321048 319.602616,556.421384 C320.253763,556.601784 320.903824,556.785089 321.552576,556.970425 C321.945835,557.08354 322.338422,557.196573 322.730523,557.310346 C323.285098,557.470508 323.838861,557.632957 324.391638,557.796872 C324.858733,557.936116 325.325232,558.075697 325.791017,558.216315 C326.34579,558.383078 326.899397,558.551992 327.451977,558.72236 C327.886028,558.856887 328.319915,558.991751 328.753159,559.127505 C329.394477,559.327773 330.033549,559.53042 330.671194,559.734992 C331.008836,559.843985 331.347045,559.953157 331.684849,560.062868 C332.396929,560.29348 333.106383,560.526877 333.814005,560.762628 C334.084395,560.85335 334.355048,560.943952 334.625431,561.034896 C335.331421,561.271733 336.035138,561.511396 336.736979,561.753358 C337.020373,561.85167 337.303625,561.9498 337.586568,562.048303 C338.233395,562.27289 338.878604,562.50003 339.522176,562.729092 C339.876143,562.85566 340.229666,562.982242 340.582688,563.1094 C341.084624,563.289626 341.585465,563.471565 342.085284,563.654656 C342.584229,563.837985 343.082285,564.021949 343.579309,564.20705 C344.066291,564.387867 344.552208,564.570296 345.037124,564.753803 C345.479084,564.921586 345.920473,565.089829 346.36102,565.25896 C346.8976,565.464443 347.432619,565.671642 347.966374,565.88014 C348.4003,566.050147 348.833768,566.220653 349.266391,566.392009 C349.776344,566.593503 350.284623,566.796475 350.791715,567.000611 C351.211585,567.170113 351.63127,567.340187 352.050131,567.511053 C352.633922,567.748732 353.215493,567.988166 353.795446,568.229113 C354.139157,568.372365 354.482905,568.515945 354.826079,568.660054 C355.429691,568.913085 356.031027,569.167988 356.630563,569.424497 C356.956239,569.564268 357.281697,569.704213 357.606618,569.84463 C358.151769,570.079797 358.695153,570.316604 359.237012,570.554715 C359.631345,570.728407 360.025351,570.902592 360.41854,571.077461 C360.979362,571.326486 361.537934,571.577043 362.094826,571.828969 C362.419605,571.97628 362.744269,572.123873 363.068355,572.27193 C363.639356,572.532407 364.208303,572.794582 364.775436,573.058167 C365.128002,573.222396 365.479698,573.38672 365.830688,573.551583 C366.370807,573.80492 366.90964,574.06008 367.446781,574.316496 C367.786649,574.479087 368.126218,574.642013 368.465102,574.805438 C369.058973,575.091491 369.64993,575.37902 370.238764,575.668048 C370.523826,575.808298 370.808851,575.948797 371.093374,576.089644 C371.686941,576.383159 372.278111,576.678411 372.86707,576.975152 C373.150417,577.118223 373.434056,577.261734 373.717177,577.405589 C374.274322,577.688377 374.82838,577.972242 375.380417,578.257406 C375.698144,578.421826 376.015802,578.586694 376.332784,578.751989 C376.841892,579.017187 377.349028,579.283655 377.8544,579.551204 C378.20274,579.735895 378.550572,579.920996 378.897558,580.106606 C379.382806,580.365906 379.865948,580.626226 380.347424,580.88752 C380.714577,581.087031 381.081389,581.287191 381.447221,581.487911 C381.966991,581.772839 382.484228,582.058846 382.999469,582.345958 C383.291655,582.50902 383.583866,582.672565 383.875428,582.836462 C384.447104,583.157588 385.015516,583.479871 385.58141,583.803476 C385.840051,583.951607 386.098641,584.100058 386.356701,584.248783 C386.889418,584.555576 387.419585,584.863594 387.947468,585.172753 C388.231559,585.339347 388.515657,585.50645 388.799086,585.67388 C389.342508,585.994688 389.882633,586.31641 390.420281,586.639303 C390.674085,586.79193 390.92825,586.945167 391.181856,587.098664 C391.742404,587.437747 392.299367,587.777773 392.853575,588.119031 C393.085906,588.262278 393.318502,588.406016 393.550608,588.54997 C394.064532,588.868528 394.575316,589.187861 395.083682,589.508222 C395.359044,589.681923 395.634418,589.856207 395.909075,590.03079 C396.360271,590.317418 396.808937,590.604642 397.255656,590.89265 C397.585072,591.105196 397.913814,591.318253 398.241488,591.53173 C398.721703,591.844428 399.199385,592.158034 399.67475,592.472516 C399.934163,592.644286 400.193215,592.816382 400.451572,592.988736 C400.983736,593.343604 401.512579,593.699466 402.038443,594.056386 C402.25298,594.20214 402.467723,594.348407 402.681964,594.494848 C403.165946,594.825531 403.646607,595.156717 404.124693,595.488768 C404.387716,595.67158 404.650142,595.854647 404.911784,596.037973 C405.382277,596.367506 405.850351,596.698085 406.315861,597.029471 C406.559208,597.202825 406.802456,597.376708 407.044997,597.550808 C407.460092,597.848655 407.872209,598.146601 408.282245,598.445163 C408.598544,598.675585 408.913901,598.906476 409.228009,599.137726 C409.672059,599.464529 410.11377,599.792278 410.552962,600.120721 C410.780768,600.291187 411.007987,600.461803 411.234525,600.632601 C411.668339,600.959576 412.099442,601.287164 412.528026,601.615399 C412.804414,601.827171 413.079958,602.039272 413.354447,602.251636 C413.624345,602.460354 413.893144,602.669361 414.160917,602.878616 C414.579433,603.205761 414.995325,603.533327 415.408691,603.861477 C415.687403,604.082645 415.965336,604.304461 416.242111,604.526536 C416.592801,604.807999 416.941745,605.089887 417.288814,605.372175 C417.777204,605.769331 418.261198,606.166794 418.741453,606.565008 C418.891412,606.689422 419.041831,606.814524 419.191882,606.939698 C419.622878,607.299176 420.050004,607.658631 420.474064,608.018656 C420.690192,608.202215 420.905754,608.38605 421.120514,608.57003 C421.446732,608.849428 421.771112,609.129236 422.093629,609.409363 C422.40126,609.676623 422.707308,609.944209 423.011648,610.212073 C423.356698,610.51571 423.699441,610.819665 424.039974,611.123961 C424.279258,611.337837 424.517905,611.552235 424.75545,611.766795 C425.154523,612.127203 425.54977,612.487466 425.941894,612.848158 C426.143474,613.033628 426.344908,613.219792 426.545508,613.406066 C426.9013,613.736405 427.253842,614.066551 427.603748,614.397021 C427.826973,614.607892 428.04958,614.819283 428.271104,615.030801 C428.547154,615.294339 428.82125,615.557855 429.093656,615.821556 C429.396285,616.114554 429.696911,616.407819 429.995437,616.701299 C430.277474,616.978528 430.557653,617.256005 430.835946,617.533661 C431.08569,617.782869 431.334127,618.032397 431.581035,618.282061 C431.897917,618.602444 432.212718,618.923536 432.524972,619.244832 C432.75234,619.478815 432.978442,619.712961 433.203187,619.947207 C433.456225,620.210912 433.70769,620.474932 433.957422,620.739069 C434.225684,621.022835 434.491928,621.306686 434.75616,621.59066 C434.980982,621.832252 435.204187,622.073787 435.42593,622.3154 C435.710172,622.625141 435.991951,622.93492 436.271312,623.244812 C436.54702,623.550627 436.820748,623.857001 437.092098,624.163468 C437.293428,624.390875 437.493636,624.618527 437.692527,624.846223 C437.981721,625.177285 438.267536,625.507773 438.550556,625.838335 C438.745221,626.065717 438.938822,626.293421 439.131091,626.521153 C439.346588,626.776379 439.56044,627.031694 439.772609,627.287034 C440.019665,627.584377 440.264439,627.88174 440.506918,628.179122 C440.715463,628.434871 440.922273,628.690607 441.127376,628.946348 C441.358343,629.234351 441.587208,629.522427 441.813894,629.810496 C442.071385,630.137698 442.325971,630.464783 442.577728,630.791838 C442.746454,631.01104 442.914039,631.230386 443.080345,631.449713 C443.33932,631.791242 443.595047,632.132534 443.847656,632.473757 C444.002152,632.682458 444.155663,632.891372 444.308001,633.100254 C444.5188,633.389289 444.72719,633.678047 444.933323,633.966732 C445.122204,634.231263 445.309326,634.495917 445.494538,634.760497 C445.698055,635.051218 445.899155,635.341693 446.09794,635.632066 C446.27107,635.884971 446.442549,636.137947 446.612261,636.390835 C446.844275,636.736554 447.072889,637.081967 447.298181,637.427194 C447.429019,637.627688 447.558825,637.828253 447.687505,638.028749 C447.899335,638.358797 448.108042,638.688555 448.313679,639.018108 C448.450269,639.23701 448.585546,639.455886 448.719462,639.674665 C448.881467,639.939329 449.04147,640.203841 449.199472,640.468201 C449.370485,640.754337 449.539126,641.040243 449.705409,641.325957 C449.816275,641.516448 449.92614,641.706941 450.034953,641.897344 C450.237887,642.252442 450.437289,642.607463 450.633,642.962146 C450.736712,643.150105 450.838973,643.337204 450.940201,643.524205 C451.129581,643.874048 451.315567,644.223963 451.497908,644.573509 C451.61603,644.799943 451.732751,645.026477 451.847933,645.25285 C452.009626,645.570638 452.168131,645.887792 452.323589,646.204606 C452.427784,646.416943 452.530797,646.629522 452.632432,646.841942 C452.78629,647.163515 452.936802,647.484324 453.084143,647.80475 C453.985207,649.764279 454.767786,651.709881 455.42732,653.636515 C455.671727,654.35048 455.899199,655.061719 456.109558,655.770119 C456.163224,655.950853 456.215616,656.130839 456.266898,656.310638 C456.514871,657.180047 456.736923,658.045287 456.932578,658.905701 C457.211012,660.130113 457.436024,661.344994 457.606364,662.54883 C457.867356,664.393328 458,666.211904 458,668 L458,668 L33,668 Z" id="形状结合" fill="#F7B500"></path>
                <path d="M244.993827,546 C196.907746,546 150.850631,559.594025 114,578.978174 C141.86227,621.316911 183.322317,656 244.993827,656 C306.661221,656 348.13773,621.304556 376,578.978174 C339.137023,559.594025 293.075792,546 244.993827,546 L244.993827,546 Z" id="Fill-22" fill="#FFFFFF"></path>
                <path d="M244.993811,546 C207.226707,546 170.817124,554.381147 139,567.225143 C159.049203,601.978039 191.819479,634 244.993811,634 C298.164016,634 330.934292,601.978039 351,567.225143 C319.182876,554.381147 282.756788,546 244.993811,546 L244.993811,546 Z" id="Fill-23" fill="#F7B500"></path>
                <path d="M197,550.14052 C197,550.14052 211.194216,589 245.502063,589 C279.822284,589 294,550.14052 294,550.14052 C294,550.14052 243.678801,531.82435 197,550.14052 L197,550.14052 Z" id="Fill-24" fill="#FDCC9B"></path>
                <path d="M245.002062,546 C216.077976,546 187.929379,551.007557 162,559.17603 C175.748428,587.333138 200.592948,617 245.002062,617 C289.407052,617 314.255697,587.333138 328,559.17603 C302.087121,551.007557 273.922024,546 245.002062,546 L245.002062,546 Z" id="Fill-25" fill="#FFFFFF"></path>
                <path d="M183,553.421939 C191.109295,575.155836 208.553566,604 245.002063,604 C281.450561,604 298.907212,575.155836 307,553.421939 C287.141512,548.746865 266.280194,546 245.002063,546 C223.719806,546 202.879123,548.746865 183,553.421939 L183,553.421939 Z" id="Fill-26" fill="#F7B500"></path>
                <path d="M294,550.92078 C294,550.92078 287.701084,590 245.502063,590 C203.315416,590 197,550.92078 197,550.92078 C197,550.92078 215.917372,540 245.502063,540 C275.082628,540 294,550.92078 294,550.92078 L294,550.92078 Z" id="Fill-27" fill="#F2DED4"></path>
                <path d="M245.205371,0.0288524976 L245.205371,0 C244.962131,0 244.735383,0.0164871415 244.496266,0.0164871415 C244.253026,0.0164871415 244.026278,0 243.787161,0 L243.787161,0.0288524976 C25.494167,0.869696712 -10.7114096,190.871637 2.34931311,378.013058 C15.4430174,565.566657 127.415627,631 127.415627,631 C66.3501524,567.017526 81.3567908,419.309225 81.3567908,419.309225 C107.993574,459.142159 144.714488,462.332421 144.714488,462.332421 C74.7728343,417.248333 77.9761745,261.700397 127.415627,251.960618 C174.055765,242.781402 237.442321,196.250567 244.496266,190.987047 C251.55021,196.250567 314.936767,242.781402 361.572782,251.960618 C411.028725,261.700397 414.219697,417.248333 344.278043,462.332421 C344.278043,462.332421 380.994835,459.142159 407.648109,419.309225 C407.648109,419.309225 422.65887,567.017526 361.572782,631 C361.572782,631 473.561882,565.566657 486.655587,378.013058 C499.699819,190.871637 463.498365,0.869696712 245.205371,0.0288524976 L245.205371,0.0288524976 Z" id="Fill-29" fill="#7B351E"></path>
            </g>
        </g>
        <path d="M427,595 L427,595 C419.850589,595 414,589.000906 414,581.666667 L414,568.333333 C414,561.000604 419.849116,555 427,555 L427,555 C434.149411,555 440,560.999094 440,568.333333 L440,581.666667 C440,589.000906 434.149411,595 427,595 L427,595 Z" id="Shape" fill="#54200F" mask="url(#mask-2)"></path>
        <path d="M597,592 L597,592 C589.850589,592 584,586.000906 584,578.666667 L584,565.333333 C584,558.000604 589.849116,552 597,552 L597,552 C604.149411,552 610,557.999094 610,565.333333 L610,578.666667 C610,586.000906 604.149411,592 597,592 L597,592 Z" id="Shape" fill="#54200F" mask="url(#mask-2)"></path>
    </g>
</svg>