<?xml version="1.0" encoding="UTF-8"?>
<svg width="1024px" height="1024px" viewBox="0 0 1024 1024" version="1.1" xmlns="http://www.w3.org/2000/svg" xmlns:xlink="http://www.w3.org/1999/xlink">
    <!-- Generator: Sketch 64 (93537) - https://sketch.com -->
    <title>面性胡子男士</title>
    <desc>Created with Sketch.</desc>
    <defs>
        <circle id="path-1" cx="512.5" cy="512.5" r="403.5"></circle>
        <polygon id="path-3" points="403.740032 403.34571 403.740032 0.484155968 0.88757375 0.484155968 0.88757375 403.34571 403.740032 403.34571"></polygon>
    </defs>
    <g id="面性胡子男士" stroke="none" stroke-width="1" fill="none" fill-rule="evenodd">
        <mask id="mask-2" fill="white">
            <use xlink:href="#path-1"></use>
        </mask>
        <use id="蒙版" fill="#DBDDE9" xlink:href="#path-1"></use>
        <g id="boy_4" mask="url(#mask-2)">
            <g transform="translate(309.000000, 193.000000)" id="Person-8">
                <g>
                    <path d="M258.192349,564.128925 L153.748925,564.128925 C75.4685796,564.128925 12.0042795,627.594541 12.0042795,705.876509 L12.0042795,773.020101 C12.0042795,789.500123 25.3655774,802.861698 41.8452576,802.861698 L370.096017,802.861698 C386.575697,802.861698 399.936995,789.500123 399.936995,773.020101 L399.936995,705.876509 C399.936995,627.594541 336.472695,564.128925 258.192349,564.128925" id="Fill-1" fill="#ECCAB8"></path>
                    <path d="M399.936995,773.020101 L399.936995,705.876509 C399.936995,632.62285 344.358173,572.357745 273.075537,564.919727 C272.642842,601.632352 242.786944,631.272517 205.970637,631.272517 C169.15433,631.272517 139.298432,601.632352 138.865738,564.919727 C67.5831012,572.357745 12.0042795,632.62285 12.0042795,705.876509 L12.0042795,773.020101 L94.0669692,773.020101 L94.0669692,802.861698 L317.874305,802.861698 L317.874305,773.020101 L399.936995,773.020101 Z" id="Fill-3" fill="#567DF4"></path>
                    <path d="M179.594197,886.254531 L94.0699533,802.241739 L317.877289,802.241739 L232.345586,886.254531 C217.775728,900.566898 194.164054,900.566898 179.594197,886.254531" id="Fill-5" fill="#3BABE1"></path>
                    <path d="M205.970637,642.463116 C248.329905,642.463116 282.848457,608.652587 284.17638,566.613238 C280.5134,565.926881 276.82804,565.315128 273.075537,564.919727 C272.642842,601.632352 242.786944,631.272517 205.970637,631.272517 C169.15433,631.272517 139.298432,601.632352 138.865738,564.919727 C135.113235,565.315128 131.427874,565.926881 127.764894,566.613238 C129.092817,608.652587 163.611369,642.463116 205.970637,642.463116" id="Fill-8" fill="#77C2FF"></path>
                    <path d="M205.970637,631.272517 L205.970637,631.272517 C181.247387,631.272517 161.20917,611.233885 161.20917,586.510122 L161.20917,482.064534 L250.732104,482.064534 L250.732104,586.510122 C250.732104,611.233885 230.693887,631.272517 205.970637,631.272517" id="Fill-10" fill="#ECCAB8"></path>
                    <g id="Group-16" transform="translate(3.656461, 36.343757)">
                        <mask id="mask-4" fill="white">
                            <use xlink:href="#path-3"></use>
                        </mask>
                        <g id="Clip-15"></g>
                        <path d="M403.740778,201.914933 C403.740778,313.164405 313.561342,403.34571 202.314176,403.34571 C91.0670096,403.34571 0.88757375,313.164405 0.88757375,201.914933 C0.88757375,90.6654609 91.0670096,0.484155968 202.314176,0.484155968 C313.561342,0.484155968 403.740778,90.6654609 403.740778,201.914933" id="Fill-14" fill="#3C3742" mask="url(#mask-4)"></path>
                    </g>
                    <path d="M406.646739,333.231063 C406.646739,353.627795 390.114837,370.160039 369.718528,370.160039 C349.32968,370.160039 332.797778,353.627795 332.797778,333.231063 C332.797778,312.834332 349.32968,296.302088 369.718528,296.302088 C390.114837,296.302088 406.646739,312.834332 406.646739,333.231063" id="Fill-17" fill="#ECCAB8"></path>
                    <path d="M79.1464802,333.231063 C79.1464802,353.627795 62.6145783,370.160039 42.2182698,370.160039 C21.8294215,370.160039 5.29751964,353.627795 5.29751964,333.231063 C5.29751964,312.834332 21.8294215,296.302088 42.2182698,296.302088 C62.6145783,296.302088 79.1464802,312.834332 79.1464802,333.231063" id="Fill-19" fill="#ECCAB8"></path>
                    <path d="M205.970637,534.287328 L205.970637,534.287328 C115.328666,534.287328 41.8452576,460.802397 41.8452576,370.158547 L41.8452576,228.410963 C41.8452576,137.767114 115.328666,64.2821819 205.970637,64.2821819 L205.970637,64.2821819 C296.612608,64.2821819 370.096017,137.767114 370.096017,228.410963 L370.096017,370.158547 C370.096017,460.802397 296.612608,534.287328 205.970637,534.287328" id="Fill-21" fill="#F2DED4"></path>
                    <path d="M133,354 L133,354 C124.75068,354 118,347.700952 118,340 L118,326 C118,318.300634 124.748981,312 133,312 L133,312 C141.24932,312 148,318.299048 148,326 L148,340 C148,347.700952 141.24932,354 133,354 L133,354 Z" id="Shape" fill="#3C3742"></path>
                    <path d="M279,354 L279,354 C270.75068,354 264,347.700952 264,340 L264,326 C264,318.300634 270.748981,312 279,312 L279,312 C287.24932,312 294,318.299048 294,326 L294,340 C294,347.700952 287.24932,354 279,354 L279,354 Z" id="Shape" fill="#3C3742"></path>
                    <path d="M74.6986824,0.246591809 C79.6518068,18.5926748 106.754284,36.1704985 141.288104,51.5855279 C150.235241,46.9141069 155.601304,43.3109999 155.601304,43.3109999 L155.601304,43.3109999 L316.399415,86.7529041 L392.874381,169.548414 C392.874381,169.548414 367.173839,234.52103 264.237385,245.129718 C182.182155,253.58981 126.334765,240.974275 118.150877,238.25869 C109.743181,235.468501 58.1555902,216.601151 28.008742,166.86267 C-6.70377573,109.604107 0.652025371,41.9009844 0.652025371,41.9009844 C18.5998064,63.5680596 40.9119291,71.5232516 62.9624391,72.3200501 C60.4592965,36.9082338 74.6986824,0.246591809 74.6986824,0.246591809 Z" id="形状结合" fill="#3C3742"></path>
                    <polygon id="Fill-34" fill="#FFFFFF" points="12.0035334 773.019355 94.0662232 773.019355 94.0662232 758.098557 12.0035334 758.098557"></polygon>
                    <polygon id="Fill-36" fill="#FFFFFF" opacity="0.200000003" points="71.6854896 802.860952 94.0662232 802.860952 94.0662232 758.098557 71.6854896 758.098557"></polygon>
                    <polygon id="Fill-38" fill="#FFFFFF" points="317.873559 773.019355 399.936249 773.019355 399.936249 758.098557 317.873559 758.098557"></polygon>
                    <polygon id="Fill-40" fill="#FFFFFF" opacity="0.200000003" points="317.873559 802.860952 340.254292 802.860952 340.254292 758.098557 317.873559 758.098557"></polygon>
                    <path d="M370.136302,259.294032 L370.113921,340.336348 C370.106461,381.532672 336.706946,414.917958 295.511476,414.917958 L205.973621,414.917958 L116.428306,414.917958 C75.2328359,414.917958 41.8333212,381.532672 41.8258609,340.336348 L41.8034802,259.294032 L34.3879971,259.294032 L34.3879971,400.474625 C34.3879971,406.7339 35.0668794,413.015556 36.8722586,419.013717 C54.6201803,477.7569 101.448135,523.660736 160.443749,539.506624 C167.724948,541.461248 200.162091,549.205143 205.973621,549.205143 C211.777691,549.205143 244.214835,541.461248 251.496033,539.506624 C310.491647,523.660736 357.319602,477.7569 375.067524,419.013717 C376.880363,413.015556 377.559245,406.7339 377.559245,400.474625 L377.559245,259.294032 L370.136302,259.294032 Z" id="Fill-42" fill="#6E6775"></path>
                    <path d="M285.486399,440.504143 C272.871126,472.054171 242.023015,494.338383 205.967653,494.338383 C169.919751,494.338383 139.07164,472.054171 126.456367,440.504143 L285.486399,440.504143 Z" id="Fill-44" fill="#FEFEFE"></path>
                    <path d="M279.623393,452.352003 C281.861467,448.577041 283.838431,444.623029 285.487145,440.504889 L126.457113,440.504889 C128.105827,444.623029 130.075331,448.577041 132.320865,452.352003 L279.623393,452.352003 Z" id="Fill-46" fill="#A0A0A0" opacity="0.200000003"></path>
                </g>
            </g>
        </g>
    </g>
</svg>