<?xml version="1.0" encoding="UTF-8"?>
<svg width="1024px" height="1024px" viewBox="0 0 1024 1024" version="1.1" xmlns="http://www.w3.org/2000/svg" xmlns:xlink="http://www.w3.org/1999/xlink">
    <!-- Generator: Sketch 64 (93537) - https://sketch.com -->
    <title>面性大伯</title>
    <desc>Created with Sketch.</desc>
    <defs>
        <circle id="path-1" cx="512.5" cy="512.5" r="403.5"></circle>
    </defs>
    <g id="面性大伯" stroke="none" stroke-width="1" fill="none" fill-rule="evenodd">
        <mask id="mask-2" fill="white">
            <use xlink:href="#path-1"></use>
        </mask>
        <use id="蒙版" fill="#DBDDE9" xlink:href="#path-1"></use>
        <g id="gardener-1" mask="url(#mask-2)">
            <g transform="translate(198.000000, 214.000000)">
                <path d="M563.965162,528.406962 L434.769546,496 L193.230454,496 L64.0348384,528.406962 C26.4014082,537.848469 0,571.776395 0,610.698243 L0,677.764787 C0,691.150092 10.8133864,702 24.1536357,702 L603.846364,702 C617.186614,702 628,691.150092 628,677.764787 L628,610.698243 C628,571.776395 601.598592,537.848469 563.965162,528.406962 L563.965162,528.406962 Z" id="Shape" fill="#6DAEF2"></path>
                <path d="M86.9119424,620.538331 L21.6739503,555 C8.20657537,570.088934 0,589.780067 0,611.168689 L0,677.889662 C0,691.204632 10.7458967,702 23.999849,702 L108,702 L108,671.684203 C108,652.501087 100.414661,634.103213 86.9119424,620.538331 L86.9119424,620.538331 Z" id="Shape" fill="#F7F8FF"></path>
                <path d="M541.088058,620.538331 L606.32605,555 C619.793425,570.088934 628,589.780067 628,611.168689 L628,677.889662 C628,691.204632 617.254103,702 604.000151,702 L520,702 L520,671.684203 C520,652.501087 527.585339,634.103213 541.088058,620.538331 L541.088058,620.538331 Z" id="Shape" fill="#F7F8FF"></path>
                <rect id="Rectangle-path" fill="#FADED0" x="216" y="435" width="194" height="133"></rect>
                <path d="M216,435 L216,533.497252 C330.742688,548.436611 410,447.0663 410,447.0663 L410,435 L216,435 L216,435 Z" id="Shape" fill="#ECCAB8"></path>
                <path d="M458.854799,267.610529 L458.854799,267 L169.142466,267 L169.142466,267.610529 C155.368065,270.41759 145,282.629542 145,297.278121 L145,321.500343 C145,336.14755 155.368065,348.360874 169.142466,351.167935 L169.142466,373.443324 C169.142466,397.739633 180.314596,420.429359 198.913389,433.904899 L252.584738,472.794909 C263.566791,480.752365 276.47149,485 289.671559,485 L338.328441,485 C351.52851,485 364.431842,480.753737 375.415262,472.794909 L429.086611,433.904899 C447.685404,420.427987 458.857534,397.738261 458.857534,373.441952 L458.857534,351.166563 C472.631935,348.359502 483,336.14755 483,321.498971 L483,297.276749 C482.997265,282.630913 472.6292,270.41759 458.854799,267.610529 L458.854799,267.610529 Z" id="Shape" fill="#F2DED4"></path>
                <path d="M312.999905,431 C298.37598,431 284.210115,428.117537 272.046391,422.669602 C266.012782,419.965782 263.339182,412.938268 266.071229,406.973209 C268.81279,401.021582 275.914752,398.341939 281.960594,401.073966 C300.09948,409.201544 325.901689,409.201544 344.040575,401.073966 C350.09865,398.340596 357.188379,401.010837 359.92994,406.973209 C362.659268,412.935582 359.988387,419.965782 353.954778,422.669602 C341.789695,428.117537 327.62383,431 312.999905,431 L312.999905,431 Z" id="Shape" fill="#EB7480"></path>
                <path d="M253,327 L253,327 C246.400544,327 241,321.450838 241,314.666667 L241,302.333333 C241,295.550559 246.399184,290 253,290 L253,290 C259.599456,290 265,295.549162 265,302.333333 L265,314.666667 C265,321.449441 259.599456,327 253,327 L253,327 Z" id="Shape" fill="#333333"></path>
                <path d="M373,327 L373,327 C366.400544,327 361,321.450838 361,314.666667 L361,302.333333 C361,295.550559 366.399184,290 373,290 L373,290 C379.599456,290 385,295.549162 385,302.333333 L385,314.666667 C384.998641,321.449441 379.599456,327 373,327 L373,327 Z" id="Shape" fill="#333333"></path>
                <path d="M215.635254,473 L312,569.614959 C312,569.614959 263.818309,581.692513 227.681359,629.999992 C227.656798,630.031458 193.510702,535.817508 182.724062,506.051838 C180.828725,500.81887 182.749988,494.979835 187.368936,491.892041 L215.635254,473 L215.635254,473 Z" id="Shape" fill="#3C6AB3"></path>
                <path d="M410.364746,473 L314,569.614959 C314,569.614959 362.181691,581.692513 398.318641,629.999992 C398.343202,630.031458 432.489298,535.817508 443.275938,506.051838 C445.171275,500.81887 443.250012,494.979835 438.631064,491.892041 L410.364746,473 L410.364746,473 Z" id="Shape" fill="#3C6AB3"></path>
                <path d="M438.201074,34.8041585 C436.444317,23.7489345 430.427423,14.0873868 421.246993,7.60904462 C412.077542,1.13616253 400.92076,-1.31676221 389.851816,0.673423807 L313.998324,14.3876892 L238.146205,0.673423807 C227.107455,-1.3153972 215.932831,1.13889255 206.752401,7.60904462 C197.570598,14.0873868 191.555076,23.7475695 189.798319,34.8041585 L165.147444,190.074158 C164.597085,193.552206 165.603103,197.098504 167.903357,199.775291 C170.204984,202.457538 173.570272,204 177.113981,204 L450.885412,204 C454.429121,204 457.795782,202.458903 460.096036,199.775291 C462.397663,197.098504 463.403681,193.549476 462.851949,190.074158 L438.201074,34.8041585 L438.201074,34.8041585 Z" id="Shape" fill="#7799FF"></path>
                <path d="M458.922551,218 L169.077449,218 C162.408038,218 157,212.477383 157,205.666667 L157,193.333333 C157,186.522617 162.408038,181 169.077449,181 L458.922551,181 C465.591962,181 471,186.522617 471,193.333333 L471,205.666667 C471,212.47878 465.591962,218 458.922551,218 L458.922551,218 Z" id="Shape" fill="#F7B500"></path>
                <path d="M592.451001,228.869405 L471.854738,218 L157.145262,218 L36.5489989,228.869405 C29.4408247,229.509661 24,235.418779 24,242.494223 L24,242.564909 C24,247.62443 26.819137,252.19866 31.2836847,254.652296 C82.2831891,282.676765 189.927328,302 314.5,302 C439.072672,302 546.716811,282.676765 597.716315,254.652296 C602.180863,252.200019 605,247.62443 605,242.564909 L605,242.494223 C605,235.418779 599.557804,229.509661 592.451001,228.869405 L592.451001,228.869405 Z" id="Shape" fill="#7799FF"></path>
                <path d="M192,702 L131,702 L131,505.211557 C131,499.643694 134.808872,494.79054 140.241629,493.440838 L169.059699,486.275873 C174.63204,484.889062 180.096583,488.895559 180.41445,494.599493 L192,702 L192,702 Z" id="Shape" fill="#FFFFFF"></path>
                <path d="M434,702 L495,702 L495,505.211557 C495,499.643694 491.191128,494.79054 485.758371,493.440838 L456.940301,486.275873 C451.36796,484.889062 445.903417,488.895559 445.58555,494.599493 L434,702 L434,702 Z" id="Shape" fill="#FFFFFF"></path>
            </g>
        </g>
    </g>
</svg>