<?xml version="1.0" encoding="UTF-8"?>
<svg width="1024px" height="1024px" viewBox="0 0 1024 1024" version="1.1" xmlns="http://www.w3.org/2000/svg" xmlns:xlink="http://www.w3.org/1999/xlink">
    <!-- Generator: Sketch 64 (93537) - https://sketch.com -->
    <title>面性戴帽子男士</title>
    <desc>Created with Sketch.</desc>
    <defs>
        <circle id="path-1" cx="512.5" cy="512.5" r="403.5"></circle>
    </defs>
    <g id="面性戴帽子男士" stroke="none" stroke-width="1" fill="none" fill-rule="evenodd">
        <mask id="mask-2" fill="white">
            <use xlink:href="#path-1"></use>
        </mask>
        <use id="蒙版" fill="#DBDDE9" xlink:href="#path-1"></use>
        <g id="pitcher" mask="url(#mask-2)">
            <g transform="translate(232.000000, 227.000000)">
                <polygon id="Rectangle-path" fill="#FFFFFF" points="199 82 362 82 362 162 199 162"></polygon>
                <path d="M488,192.720519 L488,215 L443.641106,215 L118.358894,215 L74,215 L74,192.720519 C74,176.364874 87.3006648,163 103.562324,163 L118.358894,163 L199.671393,163 L362.311799,163 L443.639706,163 L458.420868,163 C466.551698,163 473.942979,166.273662 479.275291,171.765421 C484.740665,177.107993 488,184.534955 488,192.720519 L488,192.720519 Z" id="Shape" fill="#7E41DF"></path>
                <path d="M444,80.9923267 L444,162 L362.742303,162 L362.742303,80.9923267 L200.242303,80.9923267 L200.242303,162 L119,162 L119,80.9923267 C119,80.9923267 126.384901,0 281.5,0 C436.615099,0 444,80.9923267 444,80.9923267 L444,80.9923267 Z" id="Shape" fill="#65429D"></path>
                <path d="M355,440 L355,487.021899 C355,487.021899 324.519268,524 281.00701,524 C237.494752,524 207,487.021899 207,487.021899 L207,440 C228.614528,451.229047 253.477473,457.452307 281.00701,457.452307 C308.522527,457.452307 333.399492,451.229047 355,440 L355,440 Z" id="Shape" fill="#F0D0C0"></path>
                <path d="M443.914057,237 C468.305402,237 488,246.232018 488,266.781933 C488,285.841128 464.772401,307.867658 442,311 C443.325223,301.470402 443.914057,291.641814 443.914057,281.665142 L443.914057,237 L443.914057,237 Z" id="Shape" fill="#F0D0C0"></path>
                <path d="M120,311 C97.2200157,307.867658 74,285.841128 74,266.781933 C74,246.232018 93.6872313,237 118.100624,237 L118.100624,281.665142 C118.100624,291.643225 118.689653,301.470402 120,311 L120,311 Z" id="Shape" fill="#F0D0C0"></path>
                <path d="M442.077155,309.285364 C434.100287,366.863952 402.787581,415.162331 355.358802,439.621233 C333.797467,450.802964 308.965617,457 281.5,457 C254.018989,457 229.202533,450.804359 207.627204,439.621233 C160.213819,415.162331 128.885719,366.862557 120.908851,309.285364 C119.591968,299.85867 119,290.136215 119,280.267274 L119,236.084441 L119,214 L444,214 L444,236.084441 L444,280.267274 C444,290.13761 443.408032,299.85867 442.077155,309.285364 L442.077155,309.285364 Z" id="Shape" fill="#FDDCCC"></path>
                <path d="M218.547619,294.940594 L218.547619,294.940594 C211.646997,294.940594 206,289.550319 206,282.960396 L206,270.980198 C206,264.391632 211.645576,259 218.547619,259 L218.547619,259 C225.448241,259 231.095238,264.390275 231.095238,270.980198 L231.095238,282.960396 C231.095238,289.550319 225.448241,294.940594 218.547619,294.940594 L218.547619,294.940594 Z" id="Shape" fill="#7B351E"></path>
                <path d="M344.02381,294.940594 L344.02381,294.940594 C337.123188,294.940594 331.47619,289.550319 331.47619,282.960396 L331.47619,270.980198 C331.47619,264.391632 337.121766,259 344.02381,259 L344.02381,259 C350.924431,259 356.571429,264.390275 356.571429,270.980198 L356.571429,282.960396 C356.571429,289.550319 350.924431,294.940594 344.02381,294.940594 L344.02381,294.940594 Z" id="Shape" fill="#7B351E"></path>
                <path d="M281.28673,384.792079 C266.007636,384.792079 251.206103,381.788948 238.475419,376.102347 C232.153428,373.280077 229.35913,365.948904 232.214544,359.718318 C235.068537,353.498949 242.494887,350.731358 248.816879,353.54802 C267.8326,362.044273 294.73944,362.044273 313.755161,353.54802 C320.077152,350.73276 327.514873,353.500351 330.357495,359.718318 C333.211488,365.948904 330.418612,373.280077 324.09662,376.102347 C311.367358,381.79035 296.565825,384.792079 281.28673,384.792079 L281.28673,384.792079 Z" id="Shape" fill="#F26D6D"></path>
                <path d="M355.645204,487 C364.646805,497.105286 384.328675,509.784746 400,519.027282 C398.811586,531.543481 387.627014,591 281.507024,591 C175.372986,591 164.188414,531.543481 163,519.027282 C178.671325,509.784746 198.353195,497.105286 207.354796,487 C207.354796,487 237.909385,524.147482 281.507024,524.147482 C325.104662,524.147482 355.645204,487 355.645204,487 L355.645204,487 Z" id="Shape" fill="#FFC400"></path>
                <path d="M562,657.057857 L562,694 L281,694 L281,590.574877 C386.839448,590.574877 397.996001,531.447014 399.181289,519 C411.595984,526.325725 421.492995,531.476406 421.492995,531.476406 C561.555867,575.803058 562,657.057857 562,657.057857 L562,657.057857 Z" id="Shape" fill="#7799FF"></path>
                <path d="M281,590.57405 L281,694 L0,694 L0,657.057562 C0,657.057562 1.33373219,576.247203 140.5,531.476506 C140.5,531.476506 150.396517,526.325783 162.810594,519 C163.995822,531.445713 175.150418,590.57405 281,590.57405 L281,590.57405 Z" id="Shape" fill="#6DAEF2"></path>
                <rect id="Rectangle-path" fill="#FFFFFF" x="221" y="631" width="30" height="22"></rect>
                <polygon id="Rectangle-path" fill="#FFFFFF" points="309 631 339 631 339 653 309 653"></polygon>
            </g>
        </g>
    </g>
</svg>