<?xml version="1.0" encoding="UTF-8"?>
<svg width="1024px" height="1024px" viewBox="0 0 1024 1024" version="1.1" xmlns="http://www.w3.org/2000/svg" xmlns:xlink="http://www.w3.org/1999/xlink">
    <!-- Generator: Sketch 64 (93537) - https://sketch.com -->
    <title>面性卷发大姐</title>
    <desc>Created with Sketch.</desc>
    <defs>
        <circle id="path-1" cx="512.5" cy="512.5" r="403.5"></circle>
        <polygon id="path-3" points="0.706737053 103.396122 193.980316 103.396122 193.980316 0.00193867729 0.706737053 0.00193867729"></polygon>
    </defs>
    <g id="面性卷发大姐" stroke="none" stroke-width="1" fill="none" fill-rule="evenodd">
        <mask id="mask-2" fill="white">
            <use xlink:href="#path-1"></use>
        </mask>
        <use id="蒙版" fill="#DBDDE9" xlink:href="#path-1"></use>
        <g id="girl_4" mask="url(#mask-2)">
            <g transform="translate(259.000000, 236.000000)" id="Person-9">
                <g>
                    <path d="M258.404842,37.0199066 C375.818541,37.0199066 471.005779,132.499763 471.005779,250.274408 C471.005779,259.407453 470.43337,268.406428 469.322576,277.237205 C474.748826,279.717848 478.526698,285.210891 478.526698,291.591499 C478.526698,297.545036 475.237627,302.725846 470.38499,305.40931 C472.807647,308.895798 474.227649,313.134962 474.227649,317.706128 C474.227649,326.941092 468.431956,334.820998 460.290802,337.885009 C465.164298,340.560961 468.470029,345.752916 468.470029,351.721513 C468.470029,360.432637 461.428428,367.489422 452.750445,367.489422 C447.554767,367.489422 442.949417,364.963563 440.087744,361.06874 C437.971167,364.554135 435.757708,367.973826 433.45112,371.324051 C433.460332,371.558052 433.465607,371.795247 433.465607,372.033682 C433.465607,379.410948 428.415344,385.601717 421.597865,387.324624 C422.812186,389.560966 423.502354,392.126013 423.502354,394.853206 C423.502354,398.674354 422.147443,402.177182 419.893838,404.905707 C421.775256,406.45976 422.974073,408.814933 422.974073,411.452807 C422.974073,416.137944 419.192353,419.931289 414.521575,419.931289 C412.195285,419.931289 410.089531,418.990328 408.561686,417.466877 C405.907539,422.405283 400.702386,425.759599 394.719409,425.759599 C390.819183,425.759599 387.251609,424.336274 384.504554,421.978993 C349.227501,448.094054 305.612688,463.52891 258.404842,463.52891 C216.955223,463.52891 178.275567,451.629778 145.575797,431.051305 C142.833546,442.284723 132.724597,450.619904 120.679378,450.619904 C106.518867,450.619904 95.0384169,439.110623 95.0384169,424.906581 C95.0384169,421.727229 95.6141317,418.682365 96.6667346,415.871191 C95.6473405,415.992142 94.6098369,416.053934 93.5579412,416.053934 C78.9979983,416.053934 67.2018676,404.215078 67.2018676,389.610376 C67.2018676,384.336456 68.7400976,379.423205 71.3912317,375.297867 C70.0397894,375.58611 68.6367966,375.737201 67.1986463,375.737201 C56.0660882,375.737201 47.0402121,366.683578 47.0402121,355.516797 C47.0402121,350.34493 48.9763134,345.626347 52.1611097,342.050568 C51.6904313,342.069005 51.2163054,342.077886 50.7401126,342.077886 C29.9696454,342.077886 13.1355167,325.192007 13.1355167,304.364151 C13.1355167,284.992526 27.6979381,269.030922 46.4455919,266.893629 C46.0185999,261.410846 45.8039054,255.86777 45.8039054,250.274408 C45.8039054,132.499763 140.991143,37.0199066 258.404842,37.0199066 Z" id="形状结合" fill="#753622"></path>
                    <path d="M297.059558,431.217622 L297.059074,508.764622 L303.50201,508.764713 C370.426659,508.764713 424.811212,562.645148 425.89221,629.517247 L425.90861,631.547608 L425.90861,689.707927 C425.90861,703.983054 414.370178,715.556957 400.1388,715.556957 L400.1388,715.556957 L116.670884,715.556957 C102.439506,715.556957 90.9010738,703.983054 90.9010738,689.707927 L90.9010738,689.707927 L90.9010738,631.547608 C90.9010738,563.739139 145.707018,508.764713 213.307674,508.764713 L213.307674,508.764713 L219.750074,508.764622 L219.750126,431.217622 L297.059558,431.217622 Z" id="形状结合" fill="#ECCAB8"></path>
                    <path d="M161.768053,321.359242 C161.768053,339.201535 147.343401,353.67053 129.55579,353.67053 C111.768178,353.67053 97.3435264,339.201535 97.3435264,321.359242 C97.3435264,303.516949 111.768178,289.047954 129.55579,289.047954 C147.343401,289.047954 161.768053,303.516949 161.768053,321.359242" id="Fill-39" fill="#ECCAB8"></path>
                    <path d="M116.67475,344.208919 C107.733849,344.208919 100.79095,352.909413 100.783403,363.355933 C100.783403,373.810664 107.725366,382.520207 116.668307,382.520207 C121.866904,382.520207 126.567016,379.526938 129.503853,374.676349 C131.478748,371.413583 132.553219,367.479827 132.553219,363.364563 C132.560759,352.919768 125.618234,344.208919 116.67475,344.208919 Z M116.67475,350.208919 C121.96663,350.208919 126.558553,355.970448 126.553218,363.362396 C126.553218,366.395674 125.772562,369.25374 124.371098,371.569128 C122.464867,374.717531 119.634255,376.520207 116.668307,376.520207 C111.376284,376.520207 106.783402,370.757876 106.783402,363.358101 C106.788743,355.965342 111.382306,350.208919 116.67475,350.208919 Z" id="Stroke-41" fill="#FEC94B" fill-rule="nonzero"></path>
                    <path d="M419.466158,321.359242 C419.466158,339.201535 405.041506,353.67053 387.253894,353.67053 C369.466283,353.67053 355.041631,339.201535 355.041631,321.359242 C355.041631,303.516949 369.466283,289.047954 387.253894,289.047954 C405.041506,289.047954 419.466158,303.516949 419.466158,321.359242" id="Fill-43" fill="#ECCAB8"></path>
                    <path d="M400.142665,344.208919 C391.201765,344.208919 384.258865,352.909413 384.251318,363.355933 C384.251318,373.810664 391.193282,382.520207 400.136223,382.520207 C405.33482,382.520207 410.034932,379.526938 412.971769,374.676349 C414.946663,371.413583 416.021134,367.479827 416.021134,363.364563 C416.028674,352.919768 409.08615,344.208919 400.142665,344.208919 Z M400.142665,350.208919 C405.434545,350.208919 410.026469,355.970448 410.021133,363.362396 C410.021133,366.395674 409.240477,369.25374 407.839014,371.569128 C405.932782,374.717531 403.102171,376.520207 400.136223,376.520207 C394.844199,376.520207 390.251317,370.757876 390.251317,363.358101 C390.256659,355.965342 394.850222,350.208919 400.142665,350.208919 Z" id="Stroke-45" fill="#FEC94B" fill-rule="nonzero"></path>
                    <g id="Group-49" transform="translate(161.061316, 683.245669)">
                        <mask id="mask-4" fill="white">
                            <use xlink:href="#path-3"></use>
                        </mask>
                        <g id="Clip-48"></g>
                        <path d="M193.980316,30.2840779 C193.980316,70.6602636 150.712804,103.398061 97.3435264,103.398061 C43.9742489,103.398061 0.706737053,70.6602636 0.706737053,30.2840779 C0.706737053,-10.0921077 193.980316,-10.0921077 193.980316,30.2840779" id="Fill-47" fill="#EAC463" mask="url(#mask-4)"></path>
                    </g>
                    <path d="M258.404842,482.915683 L258.404842,482.915683 C180.129043,482.915683 116.670884,419.262445 116.670884,340.746015 L116.670884,217.96312 C116.670884,139.44669 180.129043,75.7934523 258.404842,75.7934523 L258.404842,75.7934523 C336.680641,75.7934523 400.1388,139.44669 400.1388,217.96312 L400.1388,340.746015 C400.1388,419.262445 336.680641,482.915683 258.404842,482.915683" id="Fill-50" fill="#F2DED4"></path>
                    <path d="M186,340 L186,340 C179.950498,340 175,335.050748 175,329 L175,318 C175,311.950498 179.949252,307 186,307 L186,307 C192.049502,307 197,311.949252 197,318 L197,329 C197,335.050748 192.049502,340 186,340 L186,340 Z" id="Shape" fill="#54200F"></path>
                    <path d="M330,337 L330,337 C323.950498,337 319,332.050748 319,326 L319,315 C319,308.950498 323.949252,304 330,304 L330,304 C336.049502,304 341,308.949252 341,315 L341,326 C341,332.050748 336.049502,337 330,337 L330,337 Z" id="Shape" fill="#54200F"></path>
                    <path d="M259.777995,431 C243.444964,431 223.785372,421.290339 226.202931,414.03621 C231.241125,398.928127 238.822591,416.94161 257.998671,416.94161 C276.70091,416.94161 284.717537,398.928127 289.75573,414.03621 C292.18296,421.290339 276.111025,431 259.777995,431" id="Fill-28" fill="#E7645B"></path>
                    <path d="M341.018345,0.556617923 L341.449291,0.560119898 L367.078066,0.559849052 L367.078292,17.1208899 C371.360855,12.3840673 377.544863,9.40861842 384.41986,9.40861842 C397.343419,9.40861842 407.82529,19.9227116 407.82529,32.8860004 C407.82529,34.0037972 407.747355,35.1033836 407.596639,36.179589 C407.910039,36.3448429 408.222776,36.514056 408.534536,36.6848375 C412.936483,31.9642634 419.203485,29.0125232 426.157933,29.0125232 C439.49381,29.0125232 450.297803,39.8561915 450.297803,53.2266025 C450.297803,57.684372 449.096839,61.8612707 447.001485,65.4490639 C453.219139,59.9466635 461.386524,56.6083019 470.33061,56.6083019 C489.812586,56.6083019 505.603038,72.4472953 505.603038,91.9891624 C505.603038,101.214001 502.084356,109.613706 496.319689,115.911668 L506.035326,115.911148 L506.03597,143.647157 L506.034448,143.761638 L506.035326,171.383167 L504.391802,171.382969 C505.413821,174.430515 505.96768,177.693649 505.96768,181.086247 C505.96768,191.859483 500.382631,201.327219 491.956769,206.731664 C492.948259,209.455202 493.489294,212.39663 493.489294,215.464811 C493.489294,221.886082 491.119528,227.752169 487.209391,232.231126 C487.963815,234.829214 488.368188,237.576991 488.368188,240.419465 C488.368188,253.143518 480.265287,263.970012 468.953298,267.990088 C470.004989,270.15771 470.59475,272.592257 470.59475,275.16444 C470.59475,284.230987 463.256797,291.591499 454.218035,291.591499 C447.660263,291.591499 441.999864,287.72263 439.382576,282.139689 C428.518091,290.524879 414.909044,295.510212 400.1388,295.510212 C371.309239,295.510212 346.90359,276.517156 338.679141,250.324476 C334.216895,258.022848 325.904074,263.198924 316.386916,263.198924 C302.155538,263.198924 290.617105,251.62502 290.617105,237.349893 C290.617105,234.595737 291.046606,231.942129 291.842082,229.452791 C285.123148,225.695957 280.57912,218.498645 280.57912,210.233614 C280.57912,206.176166 281.67423,202.376038 283.584148,199.113914 L283.530407,199.114653 C274.646265,199.114653 267.450045,191.896312 267.450045,182.991321 C267.450045,180.839858 267.870099,178.786848 268.632525,176.910302 C268.571623,176.802265 268.511804,176.691716 268.45218,176.581046 L268.740976,176.649958 C261.629735,174.985345 255.2564,171.393429 250.197721,166.453359 C248.371843,171.699232 245.422811,176.646516 241.343295,180.923398 C238.265378,184.150224 234.778974,186.749425 231.043188,188.717344 C230.067263,191.891318 228.384492,194.901495 225.985776,197.502966 C217.417314,206.795693 202.96045,207.364371 193.689761,198.769569 C193.507086,198.600094 193.327792,198.42832 193.151883,198.254332 C191.971963,214.588626 182.199186,228.532004 168.346276,235.560269 C169.621307,238.348478 170.332649,241.451919 170.332649,244.722037 C170.332649,254.846483 163.51406,263.373239 154.231816,265.933983 C150.115586,282.90965 134.861757,295.510212 116.670884,295.510212 C95.3205963,295.510212 78.0161685,278.152588 78.0161685,256.736666 C78.0161685,253.599001 78.3876155,250.548449 79.0888123,247.626836 C76.0832756,249.565228 72.5069743,250.688639 68.6694583,250.688639 C65.5535633,250.688639 62.6104302,249.948004 60.0051878,248.632694 C57.4956255,261.921617 45.8547125,271.973377 31.8772556,271.973377 C16.0674768,271.973377 3.24699612,259.113484 3.24699612,243.255104 C3.24699612,237.705089 4.81726823,232.522334 7.53639581,228.12955 L2.87059395e-12,228.128898 L-0.00179116018,175.681816 L-0.00257698105,175.390413 L2.87059352e-12,175.098895 L2.87059352e-12,122.651929 L37.3797821,122.651933 C34.7953996,118.790018 33.2875085,114.142873 33.2875085,109.143225 C33.2875085,95.740503 44.1237138,84.8709856 57.4853605,84.8709856 C59.9858973,84.8709856 62.3979869,85.2516627 64.6671589,85.9583791 C62.6565359,83.1826393 61.4713059,79.7657865 61.4713059,76.070037 C61.4713059,66.7579237 68.9960906,59.2164691 78.2796648,59.2164691 C84.0026824,59.2164691 89.0588273,62.0864422 92.0929313,66.4716052 L92.3240266,66.3368165 C90.7298682,62.2766476 89.8548195,57.8540043 89.8548195,53.2266025 C89.8548195,33.4456319 105.844987,17.4063085 125.565334,17.4063085 C131.318566,17.4063085 136.754312,18.7714593 141.568146,21.1963991 C146.866525,18.0933349 153.031769,16.3154794 159.611119,16.3154794 C170.152047,16.3154794 179.630046,20.8788745 186.188798,28.1436405 C190.656334,23.2377773 197.086593,20.1605227 204.234123,20.1605227 C213.645828,20.1605227 221.813854,25.4961806 225.896181,33.3167367 C228.525959,24.2538947 236.865669,17.6299026 246.749157,17.6299026 C255.191431,17.6299026 262.505352,22.4577329 266.101399,29.5091655 C270.598596,20.5722262 279.83359,14.4433633 290.494698,14.4433633 C301.217371,14.4433633 310.497412,20.643215 314.966095,29.6638382 L314.965066,0.559849052 L340.587589,0.560119898 C340.730897,0.557788238 340.874485,0.556617923 341.018345,0.556617923 Z M105.150798,213.979347 L105.150079,219.714167 C106.466052,219.302543 107.81224,218.959659 109.184468,218.689595 C108.325521,217.289105 107.541227,215.836753 106.835911,214.339618 C106.263366,214.249914 105.701076,214.129236 105.150798,213.979347 Z" id="形状结合" fill="#8E462F"></path>
                    <path d="M425.90861,689.707927 L425.90861,631.547608 C425.90861,581.096763 395.545331,537.793175 352.17474,518.910458 C341.841046,561.283481 303.837018,592.774062 258.404842,592.774062 C212.972666,592.774062 174.968638,561.283481 164.634944,518.910458 C121.264353,537.793175 90.9010738,581.096763 90.9010738,631.547608 L90.9010738,689.707927 L161.768053,689.707927 L161.768053,715.556957 L355.041631,715.556957 L355.041631,689.707927 L425.90861,689.707927 Z" id="Fill-165" fill="#F7B500"></path>
                    <path d="M152.104374,667.09261 C146.76358,667.09261 142.440695,671.435247 142.440695,676.785997 L142.440695,715.559542 L161.768053,715.559542 L161.768053,676.785997 C161.768053,671.435247 157.445167,667.09261 152.104374,667.09261" id="Fill-167" fill="#292929" opacity="0.200000003"></path>
                    <path d="M364.70531,667.09261 C359.364517,667.09261 355.041631,671.435247 355.041631,676.785997 L355.041631,715.559542 L374.368989,715.559542 L374.368989,676.785997 C374.368989,671.435247 370.046103,667.09261 364.70531,667.09261" id="Fill-169" fill="#292929" opacity="0.200000003"></path>
                    <path d="M352.172807,518.908519 C341.839113,561.288005 303.835085,592.772124 258.402909,592.772124 C212.977176,592.772124 174.973148,561.288005 164.639454,518.908519 C159.588571,521.105687 154.743847,523.664741 150.073068,526.49521 C163.724625,575.201245 207.662152,608.927768 258.402909,608.927768 C309.143666,608.927768 353.087635,575.201245 366.73275,526.49521 C362.068414,523.664741 357.217248,521.105687 352.172807,518.908519" id="Fill-171" fill="#F1DCA0"></path>
                </g>
            </g>
        </g>
    </g>
</svg>