<?xml version="1.0" encoding="UTF-8"?>
<svg width="1024px" height="1024px" viewBox="0 0 1024 1024" version="1.1" xmlns="http://www.w3.org/2000/svg" xmlns:xlink="http://www.w3.org/1999/xlink">
    <!-- Generator: Sketch 64 (93537) - https://sketch.com -->
    <title>面性女士</title>
    <desc>Created with Sketch.</desc>
    <defs>
        <circle id="path-1" cx="512.5" cy="512.5" r="403.5"></circle>
    </defs>
    <g id="面性女士" stroke="none" stroke-width="1" fill="none" fill-rule="evenodd">
        <mask id="mask-2" fill="white">
            <use xlink:href="#path-1"></use>
        </mask>
        <use id="蒙版" fill="#DBDDE9" xlink:href="#path-1"></use>
        <g id="gardener-2" mask="url(#mask-2)">
            <g transform="translate(200.000000, 199.000000)" id="gardener">
                <g>
                    <path d="M498.838767,212.049505 C498.838767,212.049505 523.722789,305.652858 523.722789,362.129919 C523.722789,410.23885 395.153227,437.953483 395.153227,437.953483 L229.258337,438.475248 C229.258337,438.475248 100.688776,410.759192 100.688776,362.651683 C100.688776,306.176044 125.572798,212.571269 125.572798,212.571269 L498.838767,212.049505 L498.838767,212.049505 Z" id="Shape" fill="#7B351E"></path>
                    <path d="M531.598035,548.17849 L429.590414,522.446041 C412.942189,518.246599 401.262025,503.151692 401.262025,485.835227 L401.262025,424.09901 L226.735986,424.09901 L226.735986,485.832377 C226.735986,503.148842 215.057234,518.242324 198.407597,522.443191 L96.3985638,548.177065 C63.1021149,556.577374 39.7431973,586.765763 39.7431973,621.398693 L39.7431973,700.841822 C39.7431973,714.736888 50.9050911,726 64.6752867,726 L563.321312,726 C577.091508,726 588.253401,714.736888 588.253401,700.841822 L588.253401,621.398693 C588.253401,586.767188 564.894484,556.578799 531.598035,548.17849 L531.598035,548.17849 Z" id="Shape" fill="#FADED0"></path>
                    <path d="M199.36762,522.898222 L190.314626,525.198774 L190.314626,525.198774 C352.063423,575.747941 401.831633,424.09901 401.831633,424.09901 L227.640079,424.09901 L227.640079,486.118013 C227.640079,503.516031 215.983803,518.680781 199.36762,522.898222 L199.36762,522.898222 Z" id="Shape" fill="#ECCAB8"></path>
                    <path d="M448.714361,262.924386 L448.714361,212.049505 L175.69861,212.049505 L175.69861,262.924386 C161.53801,265.835588 150.879252,278.500594 150.879252,293.692626 L150.879252,306.253763 C150.879252,321.444372 161.53801,334.110802 175.69861,337.022004 L175.69861,365.98177 C175.69861,387.454371 186.53731,407.437221 204.43452,418.966774 L272.230519,462.633373 C296.621109,478.343331 327.790455,478.343331 352.181045,462.633373 L419.977044,418.966774 C437.87566,407.438644 448.712955,387.455794 448.712955,365.98177 L448.712955,337.022004 C462.873555,334.110802 473.532313,321.445795 473.532313,306.253763 L473.532313,293.692626 C473.533719,278.500594 462.874961,265.835588 448.714361,262.924386 L448.714361,262.924386 Z" id="Shape" fill="#F2DED4"></path>
                    <path d="M249.467687,323.465347 L249.467687,323.465347 C242.567065,323.465347 236.920068,318.075072 236.920068,311.485149 L236.920068,299.50495 C236.920068,292.916384 242.565644,287.524752 249.467687,287.524752 L249.467687,287.524752 C256.368309,287.524752 262.015306,292.915027 262.015306,299.50495 L262.015306,311.485149 C262.015306,318.075072 256.368309,323.465347 249.467687,323.465347 L249.467687,323.465347 Z" id="Shape" fill="#333333"></path>
                    <path d="M374.943878,323.465347 L374.943878,323.465347 C368.043256,323.465347 362.396259,318.075072 362.396259,311.485149 L362.396259,299.50495 C362.396259,292.916384 368.041834,287.524752 374.943878,287.524752 L374.943878,287.524752 C381.844499,287.524752 387.491497,292.915027 387.491497,299.50495 L387.491497,311.485149 C387.491497,318.075072 381.844499,323.465347 374.943878,323.465347 L374.943878,323.465347 Z" id="Shape" fill="#333333"></path>
                    <path d="M312.206798,413.316832 C296.927704,413.316832 282.126171,410.313701 269.395487,404.6271 C263.073496,401.804829 260.279198,394.473656 263.134612,388.243071 C265.988605,382.023701 273.414955,379.25611 279.736947,382.072772 C298.752668,390.569025 325.659508,390.569025 344.675229,382.072772 C350.99722,379.257512 358.434941,382.025103 361.277563,388.243071 C364.131556,394.473656 361.33868,401.804829 355.016688,404.6271 C342.287426,410.315103 327.485893,413.316832 312.206798,413.316832 L312.206798,413.316832 Z" id="Shape" fill="#F26D6D"></path>
                    <path d="M467.444143,79.5472605 C457.628145,33.1495606 417.142956,0 370.291508,0 L257.705091,0 C210.853643,0 170.369861,33.1495606 160.552456,79.5472605 L140.12415,176.108911 L487.872449,176.108911 L467.444143,79.5472605 L467.444143,79.5472605 Z" id="Shape" fill="#65429D"></path>
                    <path d="M588.253401,700.811286 L588.253401,621.271733 C588.253401,586.595341 564.894484,556.37031 531.598035,547.961232 L453.861602,528.326733 C420.161269,572.141256 370.097972,600.055003 313.997593,600.055003 C257.897215,600.055003 207.836742,572.141256 174.136409,528.326733 L96.3985638,547.961232 C63.1021149,556.371737 39.7431973,586.596767 39.7431973,621.271733 L39.7431973,700.811286 C39.7431973,714.721791 50.9065033,726 64.6752867,726 L563.321312,726 C577.091508,726 588.253401,714.721791 588.253401,700.811286 L588.253401,700.811286 Z" id="Shape" fill="#FFC400"></path>
                    <path d="M54.3012142,578.643564 C45.1644311,591.085875 39.7431973,606.25633 39.7431973,622.508173 L39.7431973,701.108329 C39.7431973,714.856201 50.9779723,726 64.83808,726 L140.12415,726 L140.12415,694.701773 C140.12415,674.896998 132.192717,655.902912 118.073914,641.898439 L54.3012142,578.643564 L54.3012142,578.643564 Z" id="Shape" fill="#F87884"></path>
                    <path d="M140.12415,726 L175.97449,726 L175.97449,526.907971 C175.97449,520.521843 169.981609,516.012408 164.178248,518.031832 L148.296506,523.558751 C143.416376,525.257385 140.125503,530.024017 140.125503,535.392661 L140.125503,726 L140.12415,726 L140.12415,726 Z" id="Shape" fill="#FFFFFF"></path>
                    <path d="M573.695384,578.643564 C582.832168,591.085875 588.253401,606.25633 588.253401,622.508173 L588.253401,701.108329 C588.253401,714.856201 577.018626,726 563.158519,726 L487.872449,726 L487.872449,694.701773 C487.872449,674.896998 495.803882,655.902912 509.922685,641.898439 L573.695384,578.643564 L573.695384,578.643564 Z" id="Shape" fill="#F87884"></path>
                    <path d="M487.872449,726 L452.022109,726 L452.022109,526.907971 C452.022109,520.521843 458.014989,516.012408 463.81835,518.031832 L479.700093,523.558751 C484.580223,525.257385 487.871095,530.024017 487.871095,535.392661 L487.871095,726 L487.872449,726 L487.872449,726 Z" id="Shape" fill="#FFFFFF"></path>
                    <path d="M177.689624,298.306931 C177.689624,298.306931 240.03798,249.019765 402.143989,261.340858 C414.576086,262.287239 452.022109,212.049505 452.022109,212.049505 L165.219388,212.049505 L177.689624,298.306931 L177.689624,298.306931 Z" id="Shape" fill="#7B351E"></path>
                    <path d="M9.18491923,176.108911 C-0.171176367,176.108911 -3.18813213,188.680872 5.31304158,192.508385 C64.4920066,219.134862 179.707216,237.207921 312.205978,237.207921 C444.70474,237.207921 559.919949,219.134862 619.097501,192.508385 C627.600087,188.68364 624.583132,176.108911 615.225623,176.108911 L9.18491923,176.108911 L9.18491923,176.108911 Z" id="Shape" fill="#7E41DF"></path>
                </g>
            </g>
        </g>
    </g>
</svg>