<?xml version="1.0" encoding="UTF-8"?>
<svg width="1024px" height="1024px" viewBox="0 0 1024 1024" version="1.1" xmlns="http://www.w3.org/2000/svg" xmlns:xlink="http://www.w3.org/1999/xlink">
    <!-- Generator: Sketch 64 (93537) - https://sketch.com -->
    <title>面性妇女</title>
    <desc>Created with Sketch.</desc>
    <defs>
        <circle id="path-1" cx="512.5" cy="512.5" r="403.5"></circle>
    </defs>
    <g id="面性妇女" stroke="none" stroke-width="1" fill="none" fill-rule="evenodd">
        <mask id="mask-2" fill="white">
            <use xlink:href="#path-1"></use>
        </mask>
        <use id="蒙版" fill="#DBDDE9" xlink:href="#path-1"></use>
        <g id="user-13" mask="url(#mask-2)">
            <g transform="translate(220.000000, 217.000000)" id="Shape">
                <path d="M542,609.664286 L468.893198,646.214286 L468.893198,723 L115.646045,723 L115.646045,646.214286 L43,609.971429 C64.6555863,590.160714 97.2157587,569.889286 146.363189,554.071429 C146.363189,554.071429 198.735919,526.735714 215.476762,508 C215.476762,508 247.11542,546.392857 292.269621,546.392857 C337.423823,546.392857 369.062481,508 369.062481,508 C385.803324,526.735714 438.176054,554.071429 438.176054,554.071429 C487.784241,569.735714 520.497999,589.853571 542,609.664286 L542,609.664286 Z" fill="#F7B500"></path>
                <path d="M131.332174,354 C140.82087,385.790123 157.502609,413.567901 180,434.709877 C170.664348,443.969136 158.726957,454 145.565217,454 C116.027826,454 92,429.771605 92,399.987654 C92,372.518519 105.926957,356.314815 131.332174,354 L131.332174,354 Z" fill="#D8B233"></path>
                <path d="M452.667826,354 C478.073043,356.314815 492,372.518519 492,399.987654 C492,429.771605 467.972174,454 438.434783,454 C425.273043,454 413.335652,443.969136 404,434.709877 C426.497391,413.567901 443.17913,385.790123 452.667826,354 L452.667826,354 Z" fill="#D8B233"></path>
                <path d="M462,130.143219 L462,206.698053 C462,206.698053 397.165455,225.377433 362.136364,206.698053 C327.107273,188.018674 307.441818,149.281928 254.590909,183.731603 C194.519091,222.927678 124,206.698053 124,206.698053 L124,130.143219 C124,130.143219 147.045455,0 293,0 C438.954545,0 462,130.143219 462,130.143219 L462,130.143219 Z" fill="#D8B233"></path>
                <path d="M115,646.233696 L115,723 L0,723 L0,684.616848 C0,684.616848 0.613333333,648.076087 42.4733333,610 L115,646.233696 L115,646.233696 Z" fill="#F6DED2"></path>
                <path d="M584,684.720867 L584,723 L469,723 L469,646.441734 L541.986667,610 C583.846667,648.126016 584,684.720867 584,684.720867 L584,684.720867 Z" fill="#F6DED2"></path>
                <path d="M216,508.267606 L216,459 C238.484,470.774648 264.356,477.28169 293,477.28169 C321.644,477.28169 347.516,470.774648 370,459 L370,508.267606 C370,508.267606 338.276,547 293,547 C247.724,547 216,508.267606 216,508.267606 L216,508.267606 Z" fill="#ECCAB8"></path>
                <path d="M122.047923,291.875252 C122.047923,302.120724 122.648562,312.21328 124,322 C100.72524,318.788732 77,296.156942 77,276.583501 C77,255.480885 97.1214058,246 122.047923,246 L122.047923,291.875252 L122.047923,291.875252 Z" fill="#ECCAB8"></path>
                <path d="M461.952077,246 C486.878594,246 507,255.480885 507,276.583501 C507,296.156942 483.27476,318.788732 460,322 C461.351438,312.21328 461.952077,302.120724 461.952077,291.875252 L461.952077,246 L461.952077,246 Z" fill="#ECCAB8"></path>
                <path d="M460.002727,323.266304 C458.466364,334.219536 456.161818,344.709957 453.242727,354.891835 C443.717273,386.671637 426.970909,414.440396 404.386364,435.575507 C394.092727,445.140302 382.416364,453.316659 369.818182,459.796036 C347.387273,471.520623 321.576364,478 293,478 C264.423636,478 238.612727,471.520623 216.181818,459.796036 C203.583636,453.316659 191.907273,445.140302 181.613636,435.575507 C159.029091,414.440396 142.282727,386.671637 132.757273,354.891835 C129.838182,344.709957 127.533636,334.219536 125.997273,323.266304 C124.614545,313.392967 124,303.211089 124,292.87494 L124,246.593674 L124,208.025954 C124,208.025954 194.519091,224.378667 254.590909,184.885321 C307.441818,150.174372 327.107273,189.204906 362.136364,208.025954 C397.165455,226.847001 462,208.025954 462,208.025954 L462,246.593674 L462,292.87494 C462,303.211089 461.385455,313.392967 460.002727,323.266304 L460.002727,323.266304 Z" fill="#F6DED2"></path>
                <path d="M219.205782,301.420792 L219.205782,301.420792 C210.956462,301.420792 204.205782,295.121744 204.205782,287.420792 L204.205782,273.420792 C204.205782,265.721426 210.954763,259.420792 219.205782,259.420792 L219.205782,259.420792 C227.455103,259.420792 234.205782,265.719841 234.205782,273.420792 L234.205782,287.420792 C234.205782,295.121744 227.455103,301.420792 219.205782,301.420792 L219.205782,301.420792 Z" fill="#7B351E"></path>
                <path d="M365.205782,301.420792 L365.205782,301.420792 C356.956462,301.420792 350.205782,295.121744 350.205782,287.420792 L350.205782,273.420792 C350.205782,265.721426 356.954763,259.420792 365.205782,259.420792 L365.205782,259.420792 C373.455103,259.420792 380.205782,265.719841 380.205782,273.420792 L380.205782,287.420792 C380.205782,295.121744 373.455103,301.420792 365.205782,301.420792 L365.205782,301.420792 Z" fill="#7B351E"></path>
                <path d="M292.000871,404 C278.910717,404 266.229707,401.400412 255.322869,396.477942 C249.906589,394.034912 247.512613,387.688858 249.95895,382.295502 C252.404069,376.911854 258.766493,374.516155 264.182772,376.954331 C280.474229,384.308908 303.526294,384.308908 319.817752,376.954331 C325.234031,374.517369 331.606196,376.913068 334.041573,382.295502 C336.486692,387.688858 334.093934,394.034912 328.677655,396.477942 C317.772035,401.401625 305.091024,404 292.000871,404 L292.000871,404 Z" fill="#F26D6D"></path>
            </g>
        </g>
    </g>
</svg>