<?xml version="1.0" encoding="UTF-8"?>
<svg width="1024px" height="1024px" viewBox="0 0 1024 1024" version="1.1" xmlns="http://www.w3.org/2000/svg" xmlns:xlink="http://www.w3.org/1999/xlink">
    <!-- Generator: Sketch 64 (93537) - https://sketch.com -->
    <title>面性文静女生</title>
    <desc>Created with Sketch.</desc>
    <defs>
        <circle id="path-1" cx="512.5" cy="512.5" r="403.5"></circle>
    </defs>
    <g id="面性文静女生" stroke="none" stroke-width="1" fill="none" fill-rule="evenodd">
        <mask id="mask-2" fill="white">
            <use xlink:href="#path-1"></use>
        </mask>
        <use id="蒙版" fill="#DBDDE9" xlink:href="#path-1"></use>
        <g id="girl-7" mask="url(#mask-2)">
            <g transform="translate(242.000000, 213.000000)">
                <path d="M56.2800762,501.615973 C79.899653,567.592273 42.8604384,689 42.8604384,689 L257,689 L257,316 L22,361.089585 C22,361.089585 34.9252746,441.967443 56.2800762,501.615973 L56.2800762,501.615973 Z" id="Fill-1" fill="#7B351E"></path>
                <path d="M457.719924,501.615973 C434.100347,567.592273 471.139562,689 471.139562,689 L257,689 L257,316 L492,361.089585 C492,361.089585 479.078951,441.967443 457.719924,501.615973 L457.719924,501.615973 Z" id="Fill-2" fill="#7B351E"></path>
                <polygon id="Fill-3" fill="#F2DED4" points="208 644 307 644 307 533 208 533"></polygon>
                <path d="M208,545.922562 C208,545.922562 249.640117,572.16761 307,566.085424 L307,533 L208,533 L208,545.922562 Z" id="Fill-4" fill="#ECCAB8"></path>
                <path d="M112,360.506359 C112,391.161402 90.2871149,416 63.5063401,416 C36.7255654,416 15,391.161402 15,360.506359 C15,329.855555 36.7255654,305 63.5063401,305 C90.2871149,305 112,329.855555 112,360.506359 L112,360.506359 Z" id="Fill-5" fill="#F2DED4"></path>
                <path d="M499,360.506359 C499,391.161402 477.287115,416 450.489433,416 C423.708658,416 402,391.161402 402,360.506359 C402,329.855555 423.708658,305 450.489433,305 C477.287115,305 499,329.855555 499,360.506359 L499,360.506359 Z" id="Fill-6" fill="#F2DED4"></path>
                <path d="M449.80516,254.035043 C449.80516,172.587454 390.331911,113 257.500314,113 C124.668716,113 65.1954675,172.587454 65.1954675,254.035043 C65.1954675,335.469963 51.3145825,550 257.500314,550 C463.669184,549.98733 449.80516,335.469963 449.80516,254.035043 L449.80516,254.035043 Z" id="Fill-7" fill="#F2DED4"></path>
                <path d="M257,578 L257,703 L41,703 C41,652.407675 143.576932,578 257,578 L257,578 Z" id="Fill-19" fill="#F87884"></path>
                <path d="M257,578 L257,703 L473,703 C473,652.407675 370.431878,578 257,578 L257,578 Z" id="Fill-20" fill="#F87884"></path>
                <path d="M256.687673,578 C232.2427,578 207.2434,581.500676 183,587.462698 C183.163778,587.68448 209.884851,623 256.687673,623 C300.009155,623 328.817352,592.746328 333,588.106301 C307.933509,581.739853 281.997732,578 256.687673,578 L256.687673,578 Z" id="Fill-21" fill="#F7B500"></path>
                <path d="M208,582.226951 C208,582.226951 222.473635,600 257.5,600 C292.513735,600 307,582.226951 307,582.226951 C307,582.226951 255.643434,563.716311 208,582.226951 L208,582.226951 Z" id="Fill-22" fill="#F2DED4"></path>
                <path d="M431.685653,82.9738147 C306.706285,-66.1057087 68.6427136,-6.47220878 16.0677756,199.244347 C-36.4945081,404.982035 56.730677,501 56.730677,501 C20.9776944,379.755078 104.349297,254.41907 175.762463,252.918724 C247.192501,251.431056 360.272487,211.183726 360.272487,211.183726 C360.272487,211.183726 379.254132,307.958204 440.615462,343.484724 C486.736641,370.199349 469.218692,448.716086 457.306655,501 C501.943048,483.993253 634.038423,144.090756 431.685653,82.9738147 L431.685653,82.9738147 Z" id="Fill-24" fill="#7B351E"></path>
            </g>
        </g>
        <path d="M410.5,590 L410.5,590 C400.875793,590 393,582.351155 393,573 L393,556 C393,546.65077 400.873811,539 410.5,539 L410.5,539 C420.124207,539 428,546.648845 428,556 L428,573 C428,582.34923 420.124207,590 410.5,590 L410.5,590 Z" id="Shape" fill="#7B351E" mask="url(#mask-2)"></path>
        <path d="M590.5,590 L590.5,590 C580.875793,590 573,582.351155 573,573 L573,556 C573,546.65077 580.873811,539 590.5,539 L590.5,539 C600.124207,539 608,546.648845 608,556 L608,573 C608,582.34923 600.124207,590 590.5,590 L590.5,590 Z" id="Shape备份" fill="#7B351E" mask="url(#mask-2)"></path>
        <path d="M500.501677,705 C489.998992,705 479.824577,702.862077 471.06485,698.816361 C466.727974,696.806953 464.806227,691.593648 466.769985,687.170359 C468.740581,682.756036 473.836582,680.7805 478.191043,682.790904 C491.271038,688.846029 509.76651,688.837062 522.813287,682.79987 C527.158956,680.763563 532.271565,682.757032 534.225553,687.171355 C536.196149,691.593648 534.276356,696.807949 529.938503,698.808391 C521.195385,702.861081 511.012177,705 500.501677,705 L500.501677,705 Z" id="Shape" fill="#EB7480" mask="url(#mask-2)"></path>
    </g>
</svg>