<?xml version="1.0" encoding="UTF-8"?>
<svg width="1024px" height="1024px" viewBox="0 0 1024 1024" version="1.1" xmlns="http://www.w3.org/2000/svg" xmlns:xlink="http://www.w3.org/1999/xlink">
    <!-- Generator: Sketch 64 (93537) - https://sketch.com -->
    <title>面性青年人士</title>
    <desc>Created with Sketch.</desc>
    <defs>
        <circle id="path-1" cx="403.5" cy="403.5" r="403.5"></circle>
    </defs>
    <g id="面性青年人士" stroke="none" stroke-width="1" fill="none" fill-rule="evenodd">
        <g id="编组" transform="translate(109.000000, 109.000000)">
            <g id="路径-2">
                <mask id="mask-2" fill="white">
                    <use xlink:href="#path-1"></use>
                </mask>
                <use id="蒙版" fill="#DBDDE9" xlink:href="#path-1"></use>
                <path d="M402.599935,584.413123 C317.598647,602.847631 253.139337,625.536256 209.222005,652.478998 C143.346008,692.893112 117.845621,720.544873 85.9701384,780.102514 C64.7198165,819.807608 53.3863115,846.750351 51.9696233,860.930741 L763.855407,854.549565 C729.854892,766.631143 700.812785,712.745658 676.729087,692.893112 C640.60354,663.114291 498.226383,601.429592 468.475933,592.921357 C448.642299,587.249201 426.683633,584.413123 402.599935,584.413123 Z" fill="#BDE3FF" mask="url(#mask-2)"></path>
            </g>
            <polygon id="矩形" fill="#F2DED4" points="351.184211 511 461.342105 511 491 638 330 638"></polygon>
            <ellipse id="椭圆形" fill="#F2DED4" cx="553.5" cy="365" rx="35.5" ry="49"></ellipse>
            <ellipse id="椭圆形备份" fill="#F2DED4" cx="252.5" cy="365" rx="35.5" ry="49"></ellipse>
            <ellipse id="椭圆形" fill="#FBF0EA" cx="403" cy="365" rx="150" ry="192"></ellipse>
            <ellipse id="椭圆形" fill="#855B5B" cx="461.5" cy="328.5" rx="23.5" ry="5.5"></ellipse>
            <ellipse id="椭圆形备份-3" fill="#855B5B" cx="343.5" cy="328.5" rx="23.5" ry="5.5"></ellipse>
            <path d="M334.37037,592.170213 C334.37037,610.818636 367.5469,625.93617 408.472222,625.93617 C449.397545,625.93617 482.574074,610.818636 482.574074,592.170213 C482.574074,587.443243 480.442441,582.943137 476.593299,578.858598 C498.900893,588.278004 513,602.149374 513,617.617021 C513,645.995057 465.542183,669 407,669 C348.457817,669 301,645.995057 301,617.617021 C301,601.029049 317.215476,586.276965 342.381732,576.882295 C337.258497,581.473229 334.37037,586.668033 334.37037,592.170213 Z" id="形状结合" fill="#749DBC"></path>
            <path d="M328.925825,220.789017 C368.428088,267.366376 414.278929,267.366376 466.478348,220.789017 C493.988852,212.320407 527.847935,292.772208 527.847935,349.935331 C527.847935,407.098453 601.914677,288.537903 582.868944,212.320407 C563.82321,136.10291 496.105045,78.9397879 390.295412,81.0569406 C282.369587,91.642704 221,153.040132 221,252.546308 C223.82159,292.066491 243.572722,325.235216 280.253394,352.052484 C285.896575,289.949338 299.299128,249.723437 320.461055,231.374781 C327.51503,227.140475 330.33662,223.611888 328.925825,220.789017 Z" id="路径" fill="#855B5B"></path>
            <ellipse id="椭圆形" fill="#333333" cx="343.5" cy="381.5" rx="12.5" ry="14.5"></ellipse>
            <ellipse id="椭圆形备份-2" fill="#333333" cx="461.5" cy="381.5" rx="12.5" ry="14.5"></ellipse>
            <ellipse id="椭圆形" fill="#EB7480" cx="406.5" cy="482.5" rx="37.5" ry="12.5"></ellipse>
        </g>
    </g>
</svg>