<?xml version="1.0" encoding="UTF-8"?>
<svg width="1024px" height="1024px" viewBox="0 0 1024 1024" version="1.1" xmlns="http://www.w3.org/2000/svg" xmlns:xlink="http://www.w3.org/1999/xlink">
    <!-- Generator: Sketch 64 (93537) - https://sketch.com -->
    <title>面性黄发女郎</title>
    <desc>Created with Sketch.</desc>
    <defs>
        <circle id="path-1" cx="512.5" cy="512.5" r="403.5"></circle>
        <polygon id="path-3" points="0.226578366 127.306873 237.960351 127.306873 237.960351 0.00238700387 0.226578366 0.00238700387 0.226578366 127.306873"></polygon>
    </defs>
    <g id="面性黄发女郎" stroke="none" stroke-width="1" fill="none" fill-rule="evenodd">
        <mask id="mask-2" fill="white">
            <use xlink:href="#path-1"></use>
        </mask>
        <use id="蒙版" fill="#DBDDE9" xlink:href="#path-1"></use>
        <g id="Group-48" mask="url(#mask-2)">
            <g transform="translate(292.000000, 252.987079)">
                <path d="M443.996287,184.199519 L164.920611,137.51768 L0.226578366,184.199519 L0.226578366,353.883667 C0.226578366,516.2238 131.289207,647.819323 292.971946,647.819323 L419.549331,652.450111 C362.374358,456.79536 438.59973,263.185477 438.59973,263.185477 L443.996287,184.199519 Z" id="Fill-1" fill="#D8A033"></path>
                <path d="M237.960351,517.184171 L206.262515,517.184171 C101.223809,517.184171 16.0754965,602.678693 16.0754965,708.14448 L16.0754965,724.05784 C16.0754965,750.426276 37.3605936,771.797917 63.622251,771.797917 L380.600614,771.797917 C406.862272,771.797917 428.147369,750.426276 428.147369,724.05784 L428.147369,708.14448 C428.147369,602.678693 342.999056,517.184171 237.960351,517.184171" id="Fill-3" fill="#FA6400"></path>
                <path d="M222.111433,580.837608 L222.111433,580.837608 C195.849775,580.837608 174.564678,559.465966 174.564678,533.09753 L174.564678,421.704016 L269.658187,421.704016 L269.658187,533.09753 C269.658187,559.465966 248.37309,580.837608 222.111433,580.837608" id="Fill-5" fill="#F2DED4"></path>
                <path d="M291.547128,524.922838 C292.735797,530.118549 293.433149,535.497265 293.433149,541.051027 C293.433149,580.603681 261.497579,612.661143 222.113018,612.661143 C182.720531,612.661143 150.792886,580.603681 150.792886,541.051027 C150.792886,535.497265 151.482314,530.118549 152.678907,524.922838 C73.7433702,548.164299 16.0770814,621.373707 16.0770814,708.141298 L16.0770814,724.054657 C16.0770814,750.423093 37.3621785,771.794734 63.6238359,771.794734 L380.602199,771.794734 C406.863857,771.794734 428.148954,750.423093 428.148954,724.054657 L428.148954,708.141298 C428.148954,621.373707 370.482665,548.164299 291.547128,524.922838" id="Fill-7" fill="#FFD561"></path>
                <path d="M91.3578578,712.126003 C84.7884812,712.126003 79.4711692,717.472892 79.4711692,724.061022 L79.4711692,771.8011 L103.244546,771.8011 L103.244546,724.061022 C103.244546,717.472892 97.9272344,712.126003 91.3578578,712.126003" id="Fill-9" fill="#292929" opacity="0.200000003"></path>
                <path d="M352.865008,712.126003 C346.295631,712.126003 340.978319,717.472892 340.978319,724.061022 L340.978319,771.8011 L364.751696,771.8011 L364.751696,724.061022 C364.751696,717.472892 359.434384,712.126003 352.865008,712.126003" id="Fill-11" fill="#292929" opacity="0.200000003"></path>
                <g id="Group-15" stroke-width="1" fill="none" transform="translate(103.017968, 732.014519)">
                    <mask id="mask-4" fill="white">
                        <use xlink:href="#path-3"></use>
                    </mask>
                    <g id="Clip-14"></g>
                    <path d="M237.960351,37.2873874 C237.960351,87.0007213 184.739684,127.30926 119.093465,127.30926 C53.4472456,127.30926 0.226578366,87.0007213 0.226578366,37.2873874 C0.226578366,-12.4259465 237.960351,-12.4259465 237.960351,37.2873874" id="Fill-13" fill="#F06168" mask="url(#mask-4)"></path>
                </g>
                <path d="M269.658187,509.227492 C269.658187,509.227492 234.164535,517.184171 222.111433,517.184171 C210.05833,517.184171 174.564678,509.227492 174.564678,509.227492 L174.564678,493.314132 C174.564678,493.314132 210.05833,501.270812 222.111433,501.270812 C234.164535,501.270812 269.658187,493.314132 269.658187,493.314132 L269.658187,509.227492 Z" id="Fill-16" fill="#ECCAB8"></path>
                <path d="M269.658187,493.314132 C269.658187,493.314132 234.164535,501.270812 222.111433,501.270812 C210.05833,501.270812 174.564678,493.314132 174.564678,493.314132 L174.564678,477.400773 C174.564678,477.400773 210.05833,485.357453 222.111433,485.357453 C234.164535,485.357453 269.658187,477.400773 269.658187,477.400773 L269.658187,493.314132 Z" id="Fill-18" fill="#292929"></path>
                <path d="M222.111433,501.270812 L222.111433,501.270812 C125.829255,501.270812 47.7733329,422.897518 47.7733329,326.223862 L47.7733329,175.04695 C47.7733329,78.3732936 125.829255,0 222.111433,0 L222.111433,0 C318.393611,0 396.449533,78.3732936 396.449533,175.04695 L396.449533,326.223862 C396.449533,422.897518 318.393611,501.270812 222.111433,501.270812" id="Fill-20" fill="#F2DED4"></path>
                <path d="M135,342.012921 L135,342.012921 C127.850589,342.012921 122,336.013827 122,328.679588 L122,315.346255 C122,308.013525 127.849116,302.012921 135,302.012921 L135,302.012921 C142.149411,302.012921 148,308.012015 148,315.346255 L148,328.679588 C148,336.013827 142.149411,342.012921 135,342.012921 L135,342.012921 Z" id="Shape" fill="#54200F"></path>
                <path d="M305,339.012921 L305,339.012921 C297.850589,339.012921 292,333.013827 292,325.679588 L292,312.346255 C292,305.013525 297.849116,299.012921 305,299.012921 L305,299.012921 C312.149411,299.012921 318,305.012015 318,312.346255 L318,325.679588 C318,333.013827 312.149411,339.012921 305,339.012921 L305,339.012921 Z" id="Shape" fill="#54200F"></path>
                <path d="M426.11633,275.543791 C424.80087,258.301667 412.20098,244.791225 396.177724,241.338026 L396.177724,315.565889 C414.4753,311.63529 427.582355,294.798956 426.11633,275.543791" id="Fill-22" fill="#ECCAB8"></path>
                <path d="M54.8562144,240.4795 C54.2539555,240.495414 53.67547,240.391977 53.0732111,240.439717 C32.1605636,242.039009 16.5097569,260.363242 18.1104976,281.36092 C19.4180334,298.603044 32.0179233,312.10553 48.0411796,315.558728 L48.0411796,280.334508 C48.0411796,268.494969 50.4343662,254.379819 54.8562144,240.4795" id="Fill-24" fill="#ECCAB8"></path>
                <path d="M222.111369,450.012921 C202.715895,450.012921 179.370129,438.192464 182.240981,429.36135 C188.223836,410.968902 197.226827,432.89836 219.998422,432.89836 C242.207331,432.89836 251.727075,410.968902 257.70993,429.36135 C260.592265,438.192464 241.506843,450.012921 222.111369,450.012921" id="Fill-28" fill="#E7645B"></path>
                <path d="M341.187525,267.119259 C339.658104,267.119259 338.120759,266.530465 336.963788,265.344919 C327.066139,255.30359 302.936161,248.667719 282.80011,254.754579 C279.622402,255.733251 276.333752,253.919128 275.390741,250.768283 C274.439806,247.617437 276.222809,244.283589 279.360895,243.336744 C304.71124,235.650591 332.866843,244.219935 345.411261,256.958579 C347.717279,259.297843 347.70143,263.069309 345.363715,265.39266 C344.214668,266.546378 342.693172,267.119259 341.187525,267.119259" id="Fill-46" fill="#BE7A5E"></path>
            </g>
        </g>
        <path d="M451.5,445.003736 C417.833333,488.003736 369.333333,509.503736 306,509.503736 C258.5,409.003736 326,209.003736 514.5,210.003736 C703,211.003736 720.5,394.003736 731.5,396.003736 C742.5,398.003736 763.5,398.003736 785.5,389.503736 C793.5,389.003736 767,425.003736 756.5,433.503736 C749.5,439.170403 773.166667,436.670403 827.5,426.003736 C761.833333,513.670403 680.333333,548.337069 583,530.003736 C519,511.670403 475.166667,483.337069 451.5,445.003736 Z" id="路径-4" fill="#D9B746" mask="url(#mask-2)"></path>
    </g>
</svg>