<?xml version="1.0" encoding="UTF-8"?>
<svg width="1024px" height="1024px" viewBox="0 0 1024 1024" version="1.1" xmlns="http://www.w3.org/2000/svg" xmlns:xlink="http://www.w3.org/1999/xlink">
    <!-- Generator: Sketch 64 (93537) - https://sketch.com -->
    <title>面性青年</title>
    <desc>Created with Sketch.</desc>
    <defs>
        <circle id="path-1" cx="512.5" cy="512.5" r="403.5"></circle>
    </defs>
    <g id="面性青年" stroke="none" stroke-width="1" fill="none" fill-rule="evenodd">
        <mask id="mask-2" fill="white">
            <use xlink:href="#path-1"></use>
        </mask>
        <use id="蒙版" fill="#DBDDE9" xlink:href="#path-1"></use>
        <g id="user-36" mask="url(#mask-2)">
            <g transform="translate(216.000000, 202.000000)">
                <path d="M148,563.076923 C148.810191,562.637538 201.254448,534.987692 218.097063,516 L296,547.384615 L296,618 L225.887357,591.950769 L148,563.076923 L148,563.076923 Z" id="Shape" fill="#FFFFFF"></path>
                <path d="M375.902937,516 C392.745552,534.987692 445.189809,562.637538 446,563.076923 L375.902937,589.126154 L298,618 L298,547.384615 L375.902937,516 L375.902937,516 Z" id="Shape" fill="#FFFFFF"></path>
                <path d="M444.714286,563 C593.528571,609.909091 594,695.909091 594,695.909091 L594,735 L374,735 L374,588.956364 L444.698571,563 L444.714286,563 L444.714286,563 Z" id="Shape" fill="#7799FF"></path>
                <path d="M296.260236,0 C360.466324,0 429.370419,31.2592593 429.370419,31.2592593 C445.656841,35.7918519 475.880682,46.8888889 507.670526,31.2592593 C507.670526,31.2592593 558.565596,141.135556 468.520472,211 C381.137553,211 343.240301,140.666667 343.240301,140.666667 C298.389999,185.429926 220.465732,201.70037 170.619884,207.624 C170.572904,207.63963 170.525924,207.63963 170.494604,207.63963 C143.324466,210.281037 124,211 124,211 L124,93.7777778 C124,93.7777778 132.299811,0 296.260236,0 L296.260236,0 Z" id="Shape" fill="#8C6239"></path>
                <path d="M469.035144,251 C495.022364,251 516,260.730382 516,282.38833 C516,302.476861 491.265176,325.704225 467,329 C468.252396,318.955734 469.035144,308.597586 469.035144,298.082495 L469.035144,251 L469.035144,251 Z" id="Shape" fill="#ECCAB8"></path>
                <polygon id="Shape" fill="#BEDEFF" points="375 589 375 735 227 735 227 591.813704 297.105263 617.762313"></polygon>
                <path d="M466.967273,328.323636 C458.523636,389.461818 425.374545,440.592727 375.181818,466.549091 C374.869091,466.861818 374.4,467.018182 374.087273,467.174545 C351.570909,478.589091 325.614545,485 297,485 C268.385455,485 242.429091,478.589091 219.912727,467.174545 C219.6,467.018182 219.130909,466.861818 218.818182,466.549091 C168.625455,440.592727 135.476364,389.461818 127.032727,328.323636 L127.032727,328.167273 C125.781818,318.16 125,307.84 125,297.363636 L125,250.454545 L125,211.363636 C125,211.363636 143.92,211.269818 171.424364,208.001818 C171.455636,208.001818 171.502545,208.001818 171.549455,207.986182 C221.32,202.06 299.126545,185.782545 343.909091,141 C343.909091,141 381.749091,211.363636 469,211.363636 L469,250.454545 L469,297.363636 C469,307.84 468.218182,318.16 466.967273,328.167273 L466.967273,328.323636 L466.967273,328.323636 Z" id="Shape" fill="#F6DED2"></path>
                <path d="M232,281 L232,281 C224.850442,281 219,275.449581 219,268.666667 L219,256.333333 C219,249.550419 224.850442,244 232,244 L232,244 C239.149558,244 245,249.550419 245,256.333333 L245,268.666667 C245,275.449581 239.149558,281 232,281 L232,281 Z" id="Shape" fill="#8C6239"></path>
                <path d="M360,281 L360,281 C352.850442,281 347,275.449581 347,268.666667 L347,256.333333 C347,249.550419 352.850442,244 360,244 L360,244 C367.149558,244 373,249.550419 373,256.333333 L373,268.666667 C373,275.449581 367.149558,281 360,281 L360,281 Z" id="Shape" fill="#8C6239"></path>
                <path d="M320.166909,408 L268.833091,408 C261.746247,408 256,402.184908 256,395 C256,387.815092 261.746247,382 268.833091,382 L320.166909,382 C327.253753,382 333,387.815092 333,395 C333,402.184908 327.253753,408 320.166909,408 L320.166909,408 Z" id="Shape" fill="#F26D6D"></path>
                <path d="M220.092,467.625483 C242.556,479.040541 268.452,485.451737 297,485.451737 C325.548,485.451737 351.444,479.040541 373.908,467.625483 C374.22,467.469112 374.688,467.312741 375,467 L375,508.907336 L375,516.725869 L297,548 L219,516.725869 L219,508.907336 L219,467 C219.312,467.312741 219.78,467.469112 220.092,467.625483 L220.092,467.625483 Z" id="Shape" fill="#ECCAB8"></path>
                <path d="M148.739793,563 L227,591.770909 L227,735 L0,735 L0,695.909091 C0,695.909091 1.40896552,610.378182 148.724138,563 L148.739793,563 L148.739793,563 Z" id="Shape" fill="#7799FF"></path>
                <path d="M124,212 C124,212 143.534523,211.144186 171,208 C143.154598,211.888372 124,212 124,212 L124,212 Z" id="Shape" fill="#FFE1B2"></path>
                <path d="M124.964856,298.082495 C124.964856,308.597586 125.747604,318.955734 127,329 C102.734824,325.704225 78,302.476861 78,282.38833 C78,260.730382 98.9776358,251 124.964856,251 L124.964856,298.082495 L124.964856,298.082495 Z" id="Shape" fill="#ECCAB8"></path>
                <rect id="Rectangle-path" fill="#FFDD6A" x="281" y="661" width="32" height="24"></rect>
            </g>
        </g>
    </g>
</svg>