<?xml version="1.0" encoding="UTF-8"?>
<svg width="1024px" height="1024px" viewBox="0 0 1024 1024" version="1.1" xmlns="http://www.w3.org/2000/svg" xmlns:xlink="http://www.w3.org/1999/xlink">
    <!-- Generator: Sketch 64 (93537) - https://sketch.com -->
    <title>面性工人</title>
    <desc>Created with Sketch.</desc>
    <defs>
        <circle id="path-1" cx="512.5" cy="512.5" r="403.5"></circle>
    </defs>
    <g id="面性工人" stroke="none" stroke-width="1" fill="none" fill-rule="evenodd">
        <mask id="mask-2" fill="white">
            <use xlink:href="#path-1"></use>
        </mask>
        <use id="蒙版" fill="#DBDDE9" xlink:href="#path-1"></use>
        <g id="coach" mask="url(#mask-2)">
            <g transform="translate(227.000000, 211.000000)">
                <polygon id="Rectangle-path" fill="#FFFFFF" points="196 75 376 75 376 166 196 166"></polygon>
                <path d="M495,194.285509 L495,217 L450.107345,217 L120.892655,217 L76,217 L76,194.285509 C76,177.628694 89.4677964,164 105.927964,164 L120.892655,164 L195.714691,164 L375.285309,164 L450.107345,164 L465.072036,164 C473.30212,164 480.785174,167.330789 486.171726,172.933745 C491.707116,178.384649 495,185.955667 495,194.285509 L495,194.285509 Z" id="Shape" fill="#7799FF"></path>
                <path d="M451,83 L451,166 L375.999483,166 L375.999483,75.4550653 L196.000517,75.4550653 L196.000517,166 L121,166 L121,83 C121,83 128.499483,0 286,0 C443.500517,0 451,83 451,83 L451,83 Z" id="Shape" fill="#6DAEF2"></path>
                <path d="M360.716172,494 C368.590643,503.219516 384.58022,514.484524 399,523.687759 L398.072842,525.25074 L286,619 L286,533.062685 C329.93312,533.062685 360.716172,494 360.716172,494 Z M210.283828,494 C210.285244,494.00148 241.06688,533.062685 285,533.062685 L285,619 L172.927158,525.25074 L172,523.687759 C186.41978,514.484524 202.409357,503.219516 210.283828,494 Z" id="形状结合" fill="#FFC400"></path>
                <path d="M0,715 L0,675.330181 C0,675.330181 1.34985567,588.533663 142.50071,540.453999 L142.516978,540.445014 C143.046829,540.152174 156.444378,532.733836 171.570918,523 L172.500187,524.587274 L285,619.793637 L397.499252,524.587274 L398.429937,523 C413.865105,532.933989 427.5,540.453999 427.5,540.453999 C569.549577,588.05718 570,675.330181 570,675.330181 L570,715 L0,715 Z" id="形状结合" fill="#1C75BC"></path>
                <path d="M360,447 L360,494.587639 C360,494.587639 329.099719,532 284.99929,532 C240.89886,532 210,494.587639 210,494.587639 L210,447 C231.90031,458.37312 257.099946,464.6586 284.99929,464.6586 C312.898633,464.6586 338.09969,458.37312 360,447 L360,447 Z" id="Shape" fill="#F0D0C0"></path>
                <path d="M449.910054,240 C474.306398,240 494,249.231312 494,269.778561 C494,288.8378 470.778645,310.874471 448,314 C449.322559,304.471086 449.910054,294.643159 449.910054,284.667137 L449.910054,240 L449.910054,240 Z" id="Shape" fill="#F0D0C0"></path>
                <path d="M122,314 C99.2199625,310.873061 76,288.836389 76,269.778561 C76,249.231312 95.6936021,240 120.089946,240 L120.089946,284.668547 C120.088554,294.643159 120.677441,304.469676 122,314 L122,314 Z" id="Shape" fill="#F0D0C0"></path>
                <path d="M449.050521,314.853903 C440.949965,373.385697 409.1502,422.48621 361.000127,447.33567 C339.09978,458.71248 313.900101,465 285.999288,465 C258.098476,465 232.898797,458.71248 210.99987,447.33567 C162.849798,422.48621 131.050033,373.385697 122.949476,314.853903 C121.59962,305.27373 121,295.392936 121,285.36325 L121,240.454417 L121,218 L450.999997,218 L450.999997,240.454417 L450.999997,285.36325 C451.001418,295.392936 450.400377,305.272312 449.050521,314.853903 L449.050521,314.853903 Z" id="Shape" fill="#FDDCCC"></path>
                <path d="M223.547619,310.940594 L223.547619,310.940594 C216.646997,310.940594 211,305.550319 211,298.960396 L211,286.980198 C211,280.391632 216.645576,275 223.547619,275 L223.547619,275 C230.448241,275 236.095238,280.390275 236.095238,286.980198 L236.095238,298.960396 C236.095238,305.550319 230.448241,310.940594 223.547619,310.940594 L223.547619,310.940594 Z" id="Shape" fill="#7B351E"></path>
                <path d="M349.02381,310.940594 L349.02381,310.940594 C342.123188,310.940594 336.47619,305.550319 336.47619,298.960396 L336.47619,286.980198 C336.47619,280.391632 342.121766,275 349.02381,275 L349.02381,275 C355.924431,275 361.571429,280.390275 361.571429,286.980198 L361.571429,298.960396 C361.571429,305.550319 355.924431,310.940594 349.02381,310.940594 L349.02381,310.940594 Z" id="Shape" fill="#7B351E"></path>
                <path d="M286.28673,400.792079 C271.007636,400.792079 256.206103,397.788948 243.475419,392.102347 C237.153428,389.280077 234.35913,381.948904 237.214544,375.718318 C240.068537,369.498949 247.494887,366.731358 253.816879,369.54802 C272.8326,378.044273 299.73944,378.044273 318.755161,369.54802 C325.077152,366.73276 332.514873,369.500351 335.357495,375.718318 C338.211488,381.948904 335.418612,389.280077 329.09662,392.102347 C316.367358,397.79035 301.565825,400.792079 286.28673,400.792079 L286.28673,400.792079 Z" id="Shape" fill="#F26D6D"></path>
                <rect id="Rectangle-path" fill="#FFFFFF" x="357" y="640" width="91" height="22"></rect>
                <rect id="Rectangle-path" fill="#FFFFFF" x="123" y="640" width="91" height="22"></rect>
                <polygon id="Rectangle-path" fill="#FFC400" points="240 109 331 109 331 131 240 131"></polygon>
            </g>
        </g>
    </g>
</svg>